G04*
G04 #@! TF.GenerationSoftware,Altium Limited,Altium Designer,21.0.8 (223)*
G04*
G04 Layer_Color=8388736*
%FSLAX44Y44*%
%MOMM*%
G71*
G04*
G04 #@! TF.SameCoordinates,CB068B56-A197-48A0-A871-B344E5AE3D22*
G04*
G04*
G04 #@! TF.FilePolarity,Positive*
G04*
G01*
G75*
%ADD84C,1.0160*%
%ADD85C,0.2540*%
%ADD86C,0.3810*%
%ADD87C,0.7000*%
%ADD88C,0.1524*%
D84*
X676400Y355600D02*
G03*
X676400Y355600I-16000J0D01*
G01*
Y76200D02*
G03*
X676400Y76200I-16000J0D01*
G01*
X155700Y25400D02*
G03*
X155700Y25400I-16000J0D01*
G01*
X168400Y508000D02*
G03*
X168400Y508000I-16000J0D01*
G01*
X0Y0D02*
X685800D01*
Y533400D01*
X0D02*
X685800D01*
X0Y0D02*
Y533400D01*
D85*
X-55000Y76200D02*
X-49920Y60960D01*
X-60080D02*
X-55000Y76200D01*
X-60080Y15240D02*
X-55000Y0D01*
X-49920Y15240D01*
X-55000Y58413D02*
Y76200D01*
Y0D02*
Y9659D01*
X-57540Y76200D02*
X619860D01*
X-57540Y0D02*
X-7620D01*
X0Y-33000D02*
X15240Y-27920D01*
X0Y-33000D02*
X15240Y-38080D01*
X6510D02*
X21750Y-33000D01*
X6510Y-27920D02*
X21750Y-33000D01*
X0D02*
X10875D01*
X21750D01*
X0Y-35540D02*
Y-7620D01*
X21750Y-35540D02*
Y210D01*
X-14000Y25400D02*
X-8920Y10160D01*
X-19080D02*
X-14000Y25400D01*
X-19080Y15240D02*
X-14000Y0D01*
X-8920Y15240D01*
X-14000Y12700D02*
Y25400D01*
Y0D02*
Y12700D01*
X-16540Y25400D02*
X99160D01*
X-16540Y0D02*
X-7620D01*
X0Y-66000D02*
X15240Y-60920D01*
X0Y-66000D02*
X15240Y-71080D01*
X10160D02*
X25400Y-66000D01*
X10160Y-60920D02*
X25400Y-66000D01*
X0D02*
X12700D01*
X25400D01*
X0Y-68540D02*
Y-2540D01*
X25400Y-68540D02*
Y460400D01*
X0Y-98000D02*
X15240Y-92920D01*
X0Y-98000D02*
X15240Y-103080D01*
X124460D02*
X139700Y-98000D01*
X124460Y-92920D02*
X139700Y-98000D01*
X0D02*
X41409D01*
X90163D02*
X139700D01*
X0Y-100540D02*
Y-7620D01*
X139700Y-100540D02*
Y-15140D01*
X0Y-138000D02*
X15240Y-132920D01*
X0Y-138000D02*
X15240Y-143080D01*
X137160D02*
X152400Y-138000D01*
X137160Y-132920D02*
X152400Y-138000D01*
X0D02*
X47759D01*
X96513D02*
X152400D01*
X0Y-140540D02*
Y-7620D01*
X152400Y-140540D02*
Y508000D01*
X0Y-178000D02*
X15240Y-172920D01*
X0Y-178000D02*
X15240Y-183080D01*
X401320D02*
X416560Y-178000D01*
X401320Y-172920D02*
X416560Y-178000D01*
X0D02*
X173491D01*
X234941D02*
X416560D01*
X0Y-180540D02*
Y-7620D01*
X416560Y-180540D02*
Y494460D01*
X0Y-231000D02*
X15240Y-225920D01*
X0Y-231000D02*
X15240Y-236080D01*
X492760D02*
X508000Y-231000D01*
X492760Y-225920D02*
X508000Y-231000D01*
X0D02*
X217941D01*
X281931D02*
X508000D01*
X0Y-233540D02*
Y-7620D01*
X508000Y-233540D02*
Y11860D01*
X0Y-282000D02*
X15240Y-276920D01*
X0Y-282000D02*
X15240Y-287080D01*
X619760D02*
X635000Y-282000D01*
X619760Y-276920D02*
X635000Y-282000D01*
X0D02*
X281441D01*
X345431D02*
X635000D01*
X0Y-284540D02*
Y-7620D01*
X635000Y-284540D02*
Y494460D01*
X0Y-331000D02*
X15240Y-325920D01*
X0Y-331000D02*
X15240Y-336080D01*
X645160D02*
X660400Y-331000D01*
X645160Y-325920D02*
X660400Y-331000D01*
X0D02*
X294141D01*
X358131D02*
X660400D01*
X0Y-333540D02*
Y-7620D01*
X660400Y-333540D02*
Y35660D01*
X-268080Y15240D02*
X-263000Y0D01*
X-257920Y15240D01*
X-263000Y472440D02*
X-257920Y457200D01*
X-268080D02*
X-263000Y472440D01*
Y0D02*
Y201431D01*
Y262881D02*
Y472440D01*
X-265540Y0D02*
X-7620D01*
X-265540Y472440D02*
X13360D01*
X-223080Y15240D02*
X-218000Y0D01*
X-212920Y15240D01*
X-218000Y386080D02*
X-212920Y370840D01*
X-223080D02*
X-218000Y386080D01*
Y0D02*
Y158251D01*
Y219701D02*
Y386080D01*
X-220540Y0D02*
X-7620D01*
X-220540Y386080D02*
X13360D01*
X-123080Y15240D02*
X-118000Y0D01*
X-112920Y15240D01*
X-118000Y234000D02*
X-112920Y218760D01*
X-123080D02*
X-118000Y234000D01*
Y0D02*
Y91098D01*
Y134774D02*
Y234000D01*
X-120540Y0D02*
X-7620D01*
X-120540Y234000D02*
X8455D01*
X-95080Y15240D02*
X-90000Y0D01*
X-84920Y15240D01*
X-90000Y138000D02*
X-84920Y122760D01*
X-95080D02*
X-90000Y138000D01*
Y0D02*
Y40559D01*
Y89313D02*
Y138000D01*
X-92540Y0D02*
X-7620D01*
X-92540Y138000D02*
X-1790D01*
X-309000Y508000D02*
X-303920Y492760D01*
X-314080D02*
X-309000Y508000D01*
X-314080Y15240D02*
X-309000Y0D01*
X-303920Y15240D01*
X-309000Y281931D02*
Y508000D01*
Y0D02*
Y217941D01*
X-311540Y508000D02*
X152400D01*
X-311540Y0D02*
X-7620D01*
X-165000Y355600D02*
X-159920Y340360D01*
X-170080D02*
X-165000Y355600D01*
X-170080Y15240D02*
X-165000Y0D01*
X-159920Y15240D01*
X-165000Y204461D02*
Y355600D01*
Y0D02*
Y143011D01*
X-167540Y355600D02*
X619860D01*
X-167540Y0D02*
X678180D01*
X0Y-380000D02*
X15240Y-374920D01*
X0Y-380000D02*
X15240Y-385080D01*
X670560D02*
X685800Y-380000D01*
X670560Y-374920D02*
X685800Y-380000D01*
X0D02*
X306841D01*
X370831D02*
X685800D01*
X0Y-382540D02*
Y-7620D01*
X685800Y-382540D02*
Y-7620D01*
X-367080Y15240D02*
X-362000Y0D01*
X-356920Y15240D01*
X-362000Y533400D02*
X-356920Y518160D01*
X-367080D02*
X-362000Y533400D01*
Y0D02*
Y231911D01*
Y293361D02*
Y533400D01*
X-364540Y0D02*
X-7620D01*
X-364540Y533400D02*
X-7620D01*
D86*
X-264648Y-197262D02*
X-268033Y-193877D01*
X-274804D01*
X-278190Y-197262D01*
Y-200648D01*
X-274804Y-204033D01*
X-268033D01*
X-264648Y-207419D01*
Y-210804D01*
X-268033Y-214190D01*
X-274804D01*
X-278190Y-210804D01*
X-244334Y-200648D02*
X-254491D01*
X-257877Y-204033D01*
Y-210804D01*
X-254491Y-214190D01*
X-244334D01*
X-234178Y-200648D02*
X-227406D01*
X-224021Y-204033D01*
Y-214190D01*
X-234178D01*
X-237563Y-210804D01*
X-234178Y-207419D01*
X-224021D01*
X-217250Y-214190D02*
X-210479D01*
X-213864D01*
Y-193877D01*
X-217250D01*
X-190165Y-214190D02*
X-196936D01*
X-200322Y-210804D01*
Y-204033D01*
X-196936Y-200648D01*
X-190165D01*
X-186780Y-204033D01*
Y-207419D01*
X-200322D01*
X-180009Y-200648D02*
X-176623D01*
Y-204033D01*
X-180009D01*
Y-200648D01*
Y-210804D02*
X-176623D01*
Y-214190D01*
X-180009D01*
Y-210804D01*
X-142767Y-214190D02*
X-135996D01*
X-139382D01*
Y-193877D01*
X-142767Y-197262D01*
X-125839Y-200648D02*
X-122454D01*
Y-204033D01*
X-125839D01*
Y-200648D01*
Y-210804D02*
X-122454D01*
Y-214190D01*
X-125839D01*
Y-210804D01*
X-108912Y-214190D02*
X-102140D01*
X-105526D01*
Y-193877D01*
X-108912Y-197262D01*
X-296190Y-138877D02*
Y-155804D01*
X-292804Y-159190D01*
X-286033D01*
X-282648Y-155804D01*
Y-138877D01*
X-275877Y-159190D02*
Y-145648D01*
X-265720D01*
X-262334Y-149033D01*
Y-159190D01*
X-255563D02*
X-248792D01*
X-252178D01*
Y-145648D01*
X-255563D01*
X-235250Y-142262D02*
Y-145648D01*
X-238635D01*
X-231864D01*
X-235250D01*
Y-155804D01*
X-231864Y-159190D01*
X-221707D02*
X-211551D01*
X-208165Y-155804D01*
X-211551Y-152419D01*
X-218322D01*
X-221707Y-149033D01*
X-218322Y-145648D01*
X-208165D01*
X-201394D02*
X-198008D01*
Y-149033D01*
X-201394D01*
Y-145648D01*
Y-155804D02*
X-198008D01*
Y-159190D01*
X-201394D01*
Y-155804D01*
X-164153Y-159190D02*
Y-145648D01*
X-160767D01*
X-157382Y-149033D01*
Y-159190D01*
Y-149033D01*
X-153996Y-145648D01*
X-150611Y-149033D01*
Y-159190D01*
X-143839D02*
X-137068D01*
X-140454D01*
Y-145648D01*
X-143839D01*
X-126911Y-159190D02*
X-120140D01*
X-123526D01*
Y-138877D01*
X-126911D01*
X-109984Y-159190D02*
X-99827D01*
X-96441Y-155804D01*
X-99827Y-152419D01*
X-106598D01*
X-109984Y-149033D01*
X-106598Y-145648D01*
X-96441D01*
D87*
X456000Y695989D02*
Y672663D01*
X467663Y661000D01*
X479326Y672663D01*
Y695989D01*
X490989Y661000D02*
X502652D01*
X496820D01*
Y695989D01*
X490989Y690157D01*
X520146Y695989D02*
X531809D01*
X525977D01*
Y661000D01*
X520146D01*
X531809D01*
X549303D02*
X560966D01*
X555135D01*
Y695989D01*
X549303Y690157D01*
X136832Y660000D02*
X148494D01*
X154326Y665831D01*
Y677494D01*
X148494Y683326D01*
X136832D01*
X131000Y677494D01*
Y665831D01*
X136832Y660000D01*
X171820D02*
Y689157D01*
Y677494D01*
X165989D01*
X177652D01*
X171820D01*
Y689157D01*
X177652Y694989D01*
X253460Y660000D02*
X230135D01*
X253460Y683326D01*
Y689157D01*
X247629Y694989D01*
X235966D01*
X230135Y689157D01*
X265123D02*
X270955Y694989D01*
X282618D01*
X288449Y689157D01*
Y683326D01*
X282618Y677494D01*
X288449Y671663D01*
Y665831D01*
X282618Y660000D01*
X270955D01*
X265123Y665831D01*
Y671663D01*
X270955Y677494D01*
X265123Y683326D01*
Y689157D01*
X270955Y677494D02*
X282618D01*
X300112Y660000D02*
Y694989D01*
X317606D01*
X323438Y689157D01*
Y677494D01*
X317606Y671663D01*
X300112D01*
X335101Y660000D02*
X346764D01*
X340932D01*
Y683326D01*
X335101D01*
X364258Y660000D02*
Y683326D01*
X381752D01*
X387584Y677494D01*
Y660000D01*
X399247D02*
X416741D01*
X422573Y665831D01*
X416741Y671663D01*
X405078D01*
X399247Y677494D01*
X405078Y683326D01*
X422573D01*
X65000Y726663D02*
Y761652D01*
X76663Y749989D01*
X88326Y761652D01*
Y726663D01*
X117483D02*
X105820D01*
X99989Y732494D01*
Y744157D01*
X105820Y749989D01*
X117483D01*
X123315Y744157D01*
Y738326D01*
X99989D01*
X158303Y749989D02*
X140809D01*
X134977Y744157D01*
Y732494D01*
X140809Y726663D01*
X158303D01*
X169966Y761652D02*
Y726663D01*
Y744157D01*
X175798Y749989D01*
X187460D01*
X193292Y744157D01*
Y726663D01*
X210786Y749989D02*
X222449D01*
X228281Y744157D01*
Y726663D01*
X210786D01*
X204955Y732494D01*
X210786Y738326D01*
X228281D01*
X239944Y726663D02*
Y749989D01*
X257438D01*
X263269Y744157D01*
Y726663D01*
X274932D02*
X286595D01*
X280764D01*
Y749989D01*
X274932D01*
X327415D02*
X309921D01*
X304090Y744157D01*
Y732494D01*
X309921Y726663D01*
X327415D01*
X344910Y749989D02*
X356572D01*
X362404Y744157D01*
Y726663D01*
X344910D01*
X339078Y732494D01*
X344910Y738326D01*
X362404D01*
X374067Y726663D02*
X385730D01*
X379898D01*
Y761652D01*
X374067D01*
X438213D02*
Y726663D01*
X455707D01*
X461539Y732494D01*
Y755820D01*
X455707Y761652D01*
X438213D01*
X473201Y749989D02*
Y726663D01*
Y738326D01*
X479033Y744157D01*
X484864Y749989D01*
X490696D01*
X514022D02*
X525685D01*
X531516Y744157D01*
Y726663D01*
X514022D01*
X508190Y732494D01*
X514022Y738326D01*
X531516D01*
X543179Y749989D02*
Y732494D01*
X549010Y726663D01*
X554842Y732494D01*
X560673Y726663D01*
X566505Y732494D01*
Y749989D01*
X578168Y726663D02*
X589831D01*
X583999D01*
Y749989D01*
X578168D01*
X607325Y726663D02*
Y749989D01*
X624819D01*
X630651Y744157D01*
Y726663D01*
X653977Y715000D02*
X659808D01*
X665639Y720831D01*
Y749989D01*
X648145D01*
X642314Y744157D01*
Y732494D01*
X648145Y726663D01*
X665639D01*
D88*
X-58554Y13723D02*
X-61094Y16262D01*
Y21340D01*
X-58554Y23879D01*
X-56015D01*
X-53476Y21340D01*
Y18801D01*
Y21340D01*
X-50937Y23879D01*
X-48398D01*
X-45858Y21340D01*
Y16262D01*
X-48398Y13723D01*
X-58554Y28958D02*
X-61094Y31497D01*
Y36575D01*
X-58554Y39114D01*
X-48398D01*
X-45858Y36575D01*
Y31497D01*
X-48398Y28958D01*
X-58554D01*
Y44193D02*
X-61094Y46732D01*
Y51810D01*
X-58554Y54349D01*
X-48398D01*
X-45858Y51810D01*
Y46732D01*
X-48398Y44193D01*
X-58554D01*
X30524Y-26780D02*
X33063Y-24241D01*
X38142D01*
X40681Y-26780D01*
Y-29319D01*
X38142Y-31858D01*
X40681Y-34398D01*
Y-36937D01*
X38142Y-39476D01*
X33063D01*
X30524Y-36937D01*
Y-34398D01*
X33063Y-31858D01*
X30524Y-29319D01*
Y-26780D01*
X33063Y-31858D02*
X38142D01*
X55916Y-24241D02*
X50837Y-26780D01*
X45759Y-31858D01*
Y-36937D01*
X48298Y-39476D01*
X53377D01*
X55916Y-36937D01*
Y-34398D01*
X53377Y-31858D01*
X45759D01*
X-9524Y31524D02*
Y36602D01*
Y34063D01*
X-24759D01*
X-22220Y31524D01*
Y44220D02*
X-24759Y46759D01*
Y51837D01*
X-22220Y54377D01*
X-12063D01*
X-9524Y51837D01*
Y46759D01*
X-12063Y44220D01*
X-22220D01*
Y59455D02*
X-24759Y61994D01*
Y67073D01*
X-22220Y69612D01*
X-12063D01*
X-9524Y67073D01*
Y61994D01*
X-12063Y59455D01*
X-22220D01*
X33524Y-68476D02*
X38602D01*
X36063D01*
Y-53241D01*
X33524Y-55780D01*
X46220D02*
X48759Y-53241D01*
X53837D01*
X56377Y-55780D01*
Y-65937D01*
X53837Y-68476D01*
X48759D01*
X46220Y-65937D01*
Y-55780D01*
X61455D02*
X63994Y-53241D01*
X69072D01*
X71612Y-55780D01*
Y-65937D01*
X69072Y-68476D01*
X63994D01*
X61455Y-65937D01*
Y-55780D01*
X55629Y-91906D02*
X45473D01*
Y-99524D01*
X50551Y-96985D01*
X53090D01*
X55629Y-99524D01*
Y-104602D01*
X53090Y-107142D01*
X48012D01*
X45473Y-104602D01*
X70864Y-91906D02*
X60708D01*
Y-99524D01*
X65786Y-96985D01*
X68325D01*
X70864Y-99524D01*
Y-104602D01*
X68325Y-107142D01*
X63247D01*
X60708Y-104602D01*
X75943Y-94446D02*
X78482Y-91906D01*
X83560D01*
X86099Y-94446D01*
Y-104602D01*
X83560Y-107142D01*
X78482D01*
X75943Y-104602D01*
Y-94446D01*
X61979Y-131906D02*
X56901Y-134446D01*
X51823Y-139524D01*
Y-144602D01*
X54362Y-147142D01*
X59440D01*
X61979Y-144602D01*
Y-142063D01*
X59440Y-139524D01*
X51823D01*
X67058Y-134446D02*
X69597Y-131906D01*
X74675D01*
X77214Y-134446D01*
Y-144602D01*
X74675Y-147142D01*
X69597D01*
X67058Y-144602D01*
Y-134446D01*
X82293D02*
X84832Y-131906D01*
X89910D01*
X92449Y-134446D01*
Y-144602D01*
X89910Y-147142D01*
X84832D01*
X82293Y-144602D01*
Y-134446D01*
X177555Y-187141D02*
X182633D01*
X180094D01*
Y-171907D01*
X177555Y-174446D01*
X200407Y-171907D02*
X195329Y-174446D01*
X190250Y-179524D01*
Y-184602D01*
X192790Y-187141D01*
X197868D01*
X200407Y-184602D01*
Y-182063D01*
X197868Y-179524D01*
X190250D01*
X213103Y-187141D02*
Y-171907D01*
X205486Y-179524D01*
X215642D01*
X220721Y-174446D02*
X223260Y-171907D01*
X228338D01*
X230877Y-174446D01*
Y-184602D01*
X228338Y-187141D01*
X223260D01*
X220721Y-184602D01*
Y-174446D01*
X232162Y-240142D02*
X222005D01*
X232162Y-229985D01*
Y-227446D01*
X229623Y-224907D01*
X224544D01*
X222005Y-227446D01*
X237240D02*
X239779Y-224907D01*
X244858D01*
X247397Y-227446D01*
Y-237602D01*
X244858Y-240142D01*
X239779D01*
X237240Y-237602D01*
Y-227446D01*
X252475D02*
X255014Y-224907D01*
X260093D01*
X262632Y-227446D01*
Y-237602D01*
X260093Y-240142D01*
X255014D01*
X252475Y-237602D01*
Y-227446D01*
X267710D02*
X270249Y-224907D01*
X275328D01*
X277867Y-227446D01*
Y-237602D01*
X275328Y-240142D01*
X270249D01*
X267710Y-237602D01*
Y-227446D01*
X295662Y-291141D02*
X285505D01*
X295662Y-280985D01*
Y-278446D01*
X293123Y-275907D01*
X288044D01*
X285505Y-278446D01*
X310897Y-275907D02*
X300740D01*
Y-283524D01*
X305818Y-280985D01*
X308358D01*
X310897Y-283524D01*
Y-288602D01*
X308358Y-291141D01*
X303279D01*
X300740Y-288602D01*
X315975Y-278446D02*
X318514Y-275907D01*
X323593D01*
X326132Y-278446D01*
Y-288602D01*
X323593Y-291141D01*
X318514D01*
X315975Y-288602D01*
Y-278446D01*
X331210D02*
X333749Y-275907D01*
X338828D01*
X341367Y-278446D01*
Y-288602D01*
X338828Y-291141D01*
X333749D01*
X331210Y-288602D01*
Y-278446D01*
X308362Y-340141D02*
X298205D01*
X308362Y-329985D01*
Y-327446D01*
X305823Y-324907D01*
X300744D01*
X298205Y-327446D01*
X323597Y-324907D02*
X318518Y-327446D01*
X313440Y-332524D01*
Y-337602D01*
X315979Y-340141D01*
X321058D01*
X323597Y-337602D01*
Y-335063D01*
X321058Y-332524D01*
X313440D01*
X328675Y-327446D02*
X331214Y-324907D01*
X336293D01*
X338832Y-327446D01*
Y-337602D01*
X336293Y-340141D01*
X331214D01*
X328675Y-337602D01*
Y-327446D01*
X343910D02*
X346449Y-324907D01*
X351528D01*
X354067Y-327446D01*
Y-337602D01*
X351528Y-340141D01*
X346449D01*
X343910Y-337602D01*
Y-327446D01*
X-253859Y205495D02*
Y210573D01*
Y208034D01*
X-269093D01*
X-266554Y205495D01*
Y218190D02*
X-269093Y220730D01*
Y225808D01*
X-266554Y228347D01*
X-264015D01*
X-261476Y225808D01*
X-258937Y228347D01*
X-256398D01*
X-253859Y225808D01*
Y220730D01*
X-256398Y218190D01*
X-258937D01*
X-261476Y220730D01*
X-264015Y218190D01*
X-266554D01*
X-261476Y220730D02*
Y225808D01*
X-269093Y243582D02*
X-266554Y238504D01*
X-261476Y233426D01*
X-256398D01*
X-253859Y235965D01*
Y241043D01*
X-256398Y243582D01*
X-258937D01*
X-261476Y241043D01*
Y233426D01*
X-266554Y248661D02*
X-269093Y251200D01*
Y256278D01*
X-266554Y258817D01*
X-256398D01*
X-253859Y256278D01*
Y251200D01*
X-256398Y248661D01*
X-266554D01*
X-208859Y162315D02*
Y167393D01*
Y164854D01*
X-224093D01*
X-221554Y162315D01*
X-224093Y185167D02*
Y175011D01*
X-216476D01*
X-219015Y180089D01*
Y182628D01*
X-216476Y185167D01*
X-211398D01*
X-208859Y182628D01*
Y177550D01*
X-211398Y175011D01*
X-208859Y200402D02*
Y190246D01*
X-219015Y200402D01*
X-221554D01*
X-224093Y197863D01*
Y192785D01*
X-221554Y190246D01*
Y205481D02*
X-224093Y208020D01*
Y213098D01*
X-221554Y215637D01*
X-211398D01*
X-208859Y213098D01*
Y208020D01*
X-211398Y205481D01*
X-221554D01*
X-111398Y95162D02*
X-108858Y97701D01*
Y102779D01*
X-111398Y105318D01*
X-121554D01*
X-124094Y102779D01*
Y97701D01*
X-121554Y95162D01*
X-119015D01*
X-116476Y97701D01*
Y105318D01*
X-108858Y120554D02*
Y110397D01*
X-119015Y120554D01*
X-121554D01*
X-124094Y118014D01*
Y112936D01*
X-121554Y110397D01*
X-108858Y125632D02*
Y130710D01*
Y128171D01*
X-124094D01*
X-121554Y125632D01*
X-96094Y54779D02*
Y44623D01*
X-88476D01*
X-91015Y49701D01*
Y52240D01*
X-88476Y54779D01*
X-83398D01*
X-80858Y52240D01*
Y47162D01*
X-83398Y44623D01*
X-80858Y67475D02*
X-96094D01*
X-88476Y59858D01*
Y70014D01*
X-93554Y75093D02*
X-96094Y77632D01*
Y82710D01*
X-93554Y85249D01*
X-91015D01*
X-88476Y82710D01*
Y80171D01*
Y82710D01*
X-85937Y85249D01*
X-83398D01*
X-80858Y82710D01*
Y77632D01*
X-83398Y75093D01*
X-299858Y232162D02*
Y222005D01*
X-310015Y232162D01*
X-312554D01*
X-315093Y229623D01*
Y224544D01*
X-312554Y222005D01*
Y237240D02*
X-315093Y239779D01*
Y244858D01*
X-312554Y247397D01*
X-302398D01*
X-299858Y244858D01*
Y239779D01*
X-302398Y237240D01*
X-312554D01*
Y252475D02*
X-315093Y255014D01*
Y260093D01*
X-312554Y262632D01*
X-302398D01*
X-299858Y260093D01*
Y255014D01*
X-302398Y252475D01*
X-312554D01*
Y267710D02*
X-315093Y270249D01*
Y275328D01*
X-312554Y277867D01*
X-302398D01*
X-299858Y275328D01*
Y270249D01*
X-302398Y267710D01*
X-312554D01*
X-155858Y147075D02*
Y152153D01*
Y149614D01*
X-171094D01*
X-168554Y147075D01*
X-155858Y167388D02*
X-171094D01*
X-163476Y159770D01*
Y169927D01*
X-168554Y175006D02*
X-171094Y177545D01*
Y182623D01*
X-168554Y185162D01*
X-158398D01*
X-155858Y182623D01*
Y177545D01*
X-158398Y175006D01*
X-168554D01*
Y190241D02*
X-171094Y192780D01*
Y197858D01*
X-168554Y200397D01*
X-158398D01*
X-155858Y197858D01*
Y192780D01*
X-158398Y190241D01*
X-168554D01*
X321062Y-389142D02*
X310905D01*
X321062Y-378985D01*
Y-376446D01*
X318523Y-373907D01*
X313444D01*
X310905Y-376446D01*
X326140Y-373907D02*
X336297D01*
Y-376446D01*
X326140Y-386602D01*
Y-389142D01*
X341375Y-376446D02*
X343914Y-373907D01*
X348993D01*
X351532Y-376446D01*
Y-386602D01*
X348993Y-389142D01*
X343914D01*
X341375Y-386602D01*
Y-376446D01*
X356610D02*
X359149Y-373907D01*
X364228D01*
X366767Y-376446D01*
Y-386602D01*
X364228Y-389142D01*
X359149D01*
X356610Y-386602D01*
Y-376446D01*
X-352859Y246131D02*
Y235975D01*
X-363015Y246131D01*
X-365554D01*
X-368093Y243592D01*
Y238514D01*
X-365554Y235975D01*
X-352859Y251210D02*
Y256288D01*
Y253749D01*
X-368093D01*
X-365554Y251210D01*
Y263906D02*
X-368093Y266445D01*
Y271523D01*
X-365554Y274062D01*
X-355398D01*
X-352859Y271523D01*
Y266445D01*
X-355398Y263906D01*
X-365554D01*
Y279141D02*
X-368093Y281680D01*
Y286758D01*
X-365554Y289297D01*
X-355398D01*
X-352859Y286758D01*
Y281680D01*
X-355398Y279141D01*
X-365554D01*
M02*
