G04*
G04 #@! TF.GenerationSoftware,Altium Limited,Altium Designer,21.0.8 (223)*
G04*
G04 Layer_Color=16711935*
%FSLAX44Y44*%
%MOMM*%
G71*
G04*
G04 #@! TF.SameCoordinates,CB068B56-A197-48A0-A871-B344E5AE3D22*
G04*
G04*
G04 #@! TF.FilePolarity,Negative*
G04*
G01*
G75*
%ADD45R,2.1000X2.1000*%
%ADD57C,3.4000*%
%ADD58C,2.1000*%
%ADD59R,2.1000X2.1000*%
%ADD60R,1.8000X2.2000*%
%ADD61O,1.8000X2.2000*%
%ADD62O,2.2000X1.8000*%
%ADD63R,2.2000X1.8000*%
%ADD64R,1.9000X1.9000*%
%ADD65C,1.9000*%
G04:AMPARAMS|DCode=66|XSize=2.2mm|YSize=1.4mm|CornerRadius=0.4mm|HoleSize=0mm|Usage=FLASHONLY|Rotation=0.000|XOffset=0mm|YOffset=0mm|HoleType=Round|Shape=RoundedRectangle|*
%AMROUNDEDRECTD66*
21,1,2.2000,0.6000,0,0,0.0*
21,1,1.4000,1.4000,0,0,0.0*
1,1,0.8000,0.7000,-0.3000*
1,1,0.8000,-0.7000,-0.3000*
1,1,0.8000,-0.7000,0.3000*
1,1,0.8000,0.7000,0.3000*
%
%ADD66ROUNDEDRECTD66*%
%ADD67C,4.2000*%
%ADD68C,7.6000*%
D45*
X241500Y79500D02*
D03*
D57*
X152400Y508000D02*
D03*
D58*
X673500Y307500D02*
D03*
X608500D02*
D03*
Y262500D02*
D03*
X241500Y14500D02*
D03*
X196500D02*
D03*
Y79500D02*
D03*
D59*
X673500Y262500D02*
D03*
D60*
X116200Y88000D02*
D03*
X416560Y508000D02*
D03*
X635000D02*
D03*
X508000Y25400D02*
D03*
X279400D02*
D03*
X620650Y201930D02*
D03*
D61*
X141600Y88000D02*
D03*
X167000D02*
D03*
X187960Y508000D02*
D03*
X213360D02*
D03*
X238760D02*
D03*
X264160D02*
D03*
X289560D02*
D03*
X314960D02*
D03*
X340360D02*
D03*
X365760D02*
D03*
X391160D02*
D03*
X457200D02*
D03*
X482600D02*
D03*
X508000D02*
D03*
X533400D02*
D03*
X558800D02*
D03*
X584200D02*
D03*
X609600D02*
D03*
X635000Y25400D02*
D03*
X609600D02*
D03*
X584200D02*
D03*
X558800D02*
D03*
X533400D02*
D03*
X457200D02*
D03*
X431800D02*
D03*
X406400D02*
D03*
X381000D02*
D03*
X355600D02*
D03*
X330200D02*
D03*
X304800D02*
D03*
X595250Y201930D02*
D03*
X569850D02*
D03*
X544450D02*
D03*
X519050D02*
D03*
X493650D02*
D03*
X468250D02*
D03*
X442850D02*
D03*
X417450D02*
D03*
X392050D02*
D03*
X366650D02*
D03*
X341250D02*
D03*
X315850D02*
D03*
X290450D02*
D03*
X620650Y125730D02*
D03*
X595250D02*
D03*
X569850D02*
D03*
X544450D02*
D03*
X519050D02*
D03*
X493650D02*
D03*
X468250D02*
D03*
X442850D02*
D03*
X417450D02*
D03*
X392050D02*
D03*
X366650D02*
D03*
X341250D02*
D03*
X315850D02*
D03*
X290450D02*
D03*
D62*
X146000Y420600D02*
D03*
Y395200D02*
D03*
Y369800D02*
D03*
X662000Y443600D02*
D03*
Y418200D02*
D03*
D63*
X146000Y446000D02*
D03*
X662000Y469000D02*
D03*
D64*
X50000Y344000D02*
D03*
X25400Y386080D02*
D03*
Y472440D02*
D03*
D65*
X24600Y344000D02*
D03*
X50000Y318600D02*
D03*
X24600D02*
D03*
X76200Y411480D02*
D03*
X50800D02*
D03*
X25400D02*
D03*
X76200Y386080D02*
D03*
X50800D02*
D03*
Y472440D02*
D03*
X76200D02*
D03*
X25400Y497840D02*
D03*
X50800D02*
D03*
X76200D02*
D03*
D66*
X21995Y234000D02*
D03*
Y168000D02*
D03*
D67*
X21750Y23750D02*
D03*
Y138000D02*
D03*
D68*
X660400Y355600D02*
D03*
Y76200D02*
D03*
X139700Y25400D02*
D03*
M02*
