G04*
G04 #@! TF.GenerationSoftware,Altium Limited,Altium Designer,21.0.8 (223)*
G04*
G04 Layer_Physical_Order=1*
G04 Layer_Color=255*
%FSLAX44Y44*%
%MOMM*%
G71*
G04*
G04 #@! TF.SameCoordinates,CB068B56-A197-48A0-A871-B344E5AE3D22*
G04*
G04*
G04 #@! TF.FilePolarity,Positive*
G04*
G01*
G75*
%ADD10C,0.2000*%
%ADD11C,0.5000*%
%ADD12C,0.4000*%
%ADD14R,0.9000X1.3000*%
%ADD15R,0.5500X1.0000*%
%ADD16R,1.3000X0.7000*%
%ADD17R,0.7000X1.3000*%
%ADD18R,0.6858X0.5588*%
%ADD19R,0.5588X0.6858*%
%ADD20R,0.6000X2.2000*%
%ADD21R,3.5000X2.2000*%
%ADD22R,1.3500X0.4000*%
%ADD23R,1.4000X1.6000*%
%ADD24R,1.9000X1.9000*%
%ADD25R,1.3000X0.9000*%
%ADD26R,0.8000X0.8000*%
%ADD27R,1.5000X0.5500*%
%ADD28R,0.5500X1.5000*%
%ADD29R,2.7000X2.0000*%
%ADD30R,1.6000X3.0000*%
%ADD31R,0.9000X0.6000*%
%ADD32R,2.6000X2.5000*%
%ADD33R,2.5000X2.6000*%
%ADD34R,1.0000X0.5500*%
%ADD64R,1.9000X1.9000*%
%ADD65C,1.9000*%
%ADD69C,1.0160*%
%ADD70C,0.6000*%
%ADD71C,1.0000*%
%ADD72C,0.8000*%
%ADD73C,3.2000*%
%ADD74R,1.6000X2.0000*%
%ADD75O,1.6000X2.0000*%
%ADD76O,2.0000X1.6000*%
%ADD77R,2.0000X1.6000*%
%ADD78R,1.7000X1.7000*%
%ADD79C,1.7000*%
G04:AMPARAMS|DCode=80|XSize=2mm|YSize=1.2mm|CornerRadius=0.3mm|HoleSize=0mm|Usage=FLASHONLY|Rotation=0.000|XOffset=0mm|YOffset=0mm|HoleType=Round|Shape=RoundedRectangle|*
%AMROUNDEDRECTD80*
21,1,2.0000,0.6000,0,0,0.0*
21,1,1.4000,1.2000,0,0,0.0*
1,1,0.6000,0.7000,-0.3000*
1,1,0.6000,-0.7000,-0.3000*
1,1,0.6000,-0.7000,0.3000*
1,1,0.6000,0.7000,0.3000*
%
%ADD80ROUNDEDRECTD80*%
%ADD81C,4.0000*%
%ADD82C,7.4000*%
%ADD83C,0.6000*%
G36*
X73000Y436000D02*
Y436000D01*
X86000D01*
X100000Y422000D01*
X129000D01*
Y402000D01*
X90000D01*
Y421000D01*
X85000Y426000D01*
Y426000D01*
X36000D01*
X33000Y423000D01*
Y402000D01*
X16000D01*
Y438000D01*
X28000D01*
X30000Y440000D01*
X69000D01*
X73000Y436000D01*
D02*
G37*
G36*
X95000Y102000D02*
X87000D01*
X80000Y95000D01*
Y86000D01*
X3000D01*
Y109000D01*
X33000D01*
X41000Y117000D01*
X84000D01*
Y129000D01*
X95000D01*
Y102000D01*
D02*
G37*
G36*
X200000Y111000D02*
X217000D01*
Y94000D01*
X184000D01*
Y78000D01*
X158000D01*
Y101000D01*
X167000D01*
Y102000D01*
X170000D01*
Y126000D01*
X200000D01*
Y111000D01*
D02*
G37*
G36*
X152000Y104000D02*
X133000D01*
X126000Y97000D01*
X125000D01*
Y78000D01*
X107000D01*
Y116000D01*
X120000D01*
X130000Y126000D01*
X152000D01*
Y104000D01*
D02*
G37*
G36*
X54000Y232485D02*
X53913Y232399D01*
X53000Y230194D01*
Y227806D01*
X53902Y225629D01*
Y224876D01*
X53539Y224000D01*
X37000D01*
Y191000D01*
X38995D01*
Y189500D01*
X56000D01*
Y187000D01*
X59562D01*
X59806Y186756D01*
X61294Y185761D01*
X63050Y185412D01*
X75000D01*
Y177000D01*
X56000D01*
X60000Y173000D01*
Y162000D01*
X79000D01*
Y161500D01*
X92000D01*
Y162000D01*
X99000D01*
X101000Y164000D01*
Y178000D01*
X122000D01*
X132000Y188000D01*
X177280D01*
X177383Y187847D01*
Y166463D01*
X176919Y166000D01*
X134000D01*
X128000Y160000D01*
Y132000D01*
X129000Y131000D01*
X124000Y126000D01*
X104000D01*
Y116295D01*
X103941Y116000D01*
Y78000D01*
X104000Y77705D01*
Y75000D01*
X106000Y73000D01*
X186000D01*
Y75728D01*
X186163Y75837D01*
X186826Y76830D01*
X187059Y78000D01*
Y89059D01*
X188941Y90941D01*
X211000D01*
Y65000D01*
X197000D01*
Y29000D01*
X198000Y28000D01*
X209000D01*
Y3000D01*
X99000D01*
Y46000D01*
X62000D01*
Y81000D01*
X83000D01*
X84000Y82000D01*
Y93000D01*
X89000D01*
X94941Y98941D01*
X95000D01*
X96171Y99174D01*
X97163Y99837D01*
X97826Y100829D01*
X98059Y102000D01*
Y129000D01*
X97826Y130170D01*
X97163Y131163D01*
X96171Y131826D01*
X95000Y132059D01*
X84000D01*
X82830Y131826D01*
X81837Y131163D01*
X81174Y130170D01*
X80941Y129000D01*
Y126000D01*
X46000D01*
X39819Y119819D01*
X38837Y119163D01*
X38837Y119163D01*
X31733Y112059D01*
X3000D01*
Y242000D01*
X54000D01*
Y232485D01*
D02*
G37*
G36*
X42000Y36000D02*
X80000D01*
Y3000D01*
X3000D01*
Y75000D01*
X42000D01*
Y36000D01*
D02*
G37*
G36*
X417000Y388000D02*
Y387000D01*
X399000D01*
Y490000D01*
X417000D01*
Y388000D01*
D02*
G37*
G36*
X644000Y409000D02*
X647000Y406000D01*
X683000D01*
X685000Y404000D01*
Y296000D01*
X602000D01*
X597560Y300440D01*
Y313560D01*
X604000Y320000D01*
Y342000D01*
X613000D01*
Y345500D01*
X615000D01*
Y364500D01*
X613000D01*
Y368000D01*
X615000D01*
Y382000D01*
X601000D01*
X599000Y380000D01*
X597000D01*
Y370000D01*
X587000D01*
X576000Y376000D01*
X575032Y404087D01*
X575914Y405000D01*
X628000D01*
Y417000D01*
X644000D01*
Y409000D01*
D02*
G37*
G36*
X430000Y119000D02*
X437000Y112000D01*
X443000D01*
X447000Y108000D01*
Y86000D01*
X469000D01*
Y74000D01*
X433000D01*
Y100000D01*
X427000Y106000D01*
X426500D01*
Y107500D01*
X420901D01*
X418146Y110256D01*
X418087Y110399D01*
X416399Y112086D01*
X414193Y113000D01*
X414000D01*
X411000Y116000D01*
X408000D01*
Y136000D01*
X430000D01*
Y119000D01*
D02*
G37*
G36*
X515000Y93511D02*
Y57000D01*
X506000Y48000D01*
X495000D01*
Y82409D01*
X495118Y83000D01*
X495000Y83591D01*
Y84193D01*
Y99037D01*
X509474D01*
X515000Y93511D01*
D02*
G37*
G36*
X440000Y50000D02*
Y47000D01*
Y15088D01*
X396000D01*
Y57000D01*
X408000Y69000D01*
X440000D01*
Y50000D01*
D02*
G37*
G36*
X342000Y89000D02*
X387000D01*
Y41000D01*
X392000Y36000D01*
Y15088D01*
X373000D01*
Y56000D01*
X377000Y60000D01*
Y61124D01*
X377076Y61174D01*
X377076D01*
X377411Y61675D01*
X377837Y62101D01*
X378067Y62658D01*
X378402Y63159D01*
X378519Y63750D01*
X378750Y64307D01*
Y64909D01*
X378775Y65034D01*
X378867Y65500D01*
D01*
Y65500D01*
X378750Y66091D01*
Y66694D01*
X378519Y67250D01*
X378402Y67841D01*
X378067Y68342D01*
X377837Y68899D01*
X377411Y69325D01*
X377076Y69826D01*
X377000Y69876D01*
Y72000D01*
X365500D01*
Y73000D01*
X354000D01*
X347000Y80000D01*
Y81000D01*
X343272D01*
X343163Y81163D01*
X342170Y81826D01*
X341000Y82059D01*
X326348D01*
X326326Y82170D01*
X326000Y82658D01*
Y91000D01*
X340000D01*
X342000Y89000D01*
D02*
G37*
G36*
X364000Y15088D02*
X346000D01*
Y31000D01*
X335000Y42000D01*
X326559D01*
Y52000D01*
X364000D01*
Y15088D01*
D02*
G37*
G36*
X323500Y79000D02*
X341000D01*
Y64000D01*
X327000D01*
X325000Y62000D01*
X324000D01*
Y54000D01*
X323500D01*
Y41500D01*
X316000Y34000D01*
Y14000D01*
X296000D01*
Y51000D01*
X311000D01*
X313000Y53000D01*
Y58000D01*
X314500D01*
Y73000D01*
X313000D01*
Y81000D01*
X323500D01*
Y79000D01*
D02*
G37*
D10*
X72750Y342800D02*
X85550Y330000D01*
X49435Y366515D02*
X72750Y343200D01*
X54971Y330600D02*
X67571Y318000D01*
X44965Y366515D02*
X49435D01*
X72750Y342800D02*
Y343200D01*
X70500Y323500D02*
X89500D01*
X85550Y330000D02*
X92192D01*
X94192Y328000D01*
X85808Y318000D02*
X91808Y312000D01*
X67571Y318000D02*
X85808D01*
X89852Y323852D02*
X93704Y320000D01*
X50000Y344000D02*
X70500Y323500D01*
X49742Y316858D02*
X50000D01*
X51185Y318600D02*
X59785Y310000D01*
X83192Y305000D02*
X91350Y296842D01*
X50000Y318600D02*
X51185D01*
X59785Y310000D02*
X85263D01*
X38200Y305000D02*
X83192D01*
X85263Y310000D02*
X91263Y304000D01*
X24600Y318600D02*
X38200Y305000D01*
X91350Y296000D02*
Y296842D01*
X38000Y330600D02*
X54971D01*
X24600Y344000D02*
X38000Y330600D01*
X25400Y386080D02*
X44965Y366515D01*
X94550Y340000D02*
X124750D01*
X96308Y377500D02*
X135437D01*
X50800Y411480D02*
X62800Y399480D01*
Y382509D02*
Y399480D01*
Y382509D02*
X71229Y374080D01*
X74491D01*
X87500Y361071D01*
Y347050D02*
Y361071D01*
Y347050D02*
X94550Y340000D01*
X124750D02*
X126000Y341250D01*
Y342000D01*
X98000Y370000D02*
X98100Y369900D01*
X145900D01*
X146000Y369800D01*
X101500Y353000D02*
X130200D01*
X91500Y372692D02*
X96308Y377500D01*
X91500Y371562D02*
Y372692D01*
X89750Y369812D02*
X91500Y371562D01*
X89750Y369000D02*
Y369812D01*
X80500Y350000D02*
Y361000D01*
X72420Y369080D02*
X80500Y361000D01*
X67800Y369080D02*
X72420D01*
X50800Y386080D02*
X67800Y369080D01*
X132750Y343250D02*
Y350450D01*
X130200Y353000D02*
X132750Y350450D01*
X91263Y304000D02*
X112000D01*
X91350Y296000D02*
X112000D01*
X91808Y312000D02*
X112000D01*
X52000Y250000D02*
X61500D01*
X70000Y273000D02*
Y275250D01*
X52000Y250000D02*
Y251750D01*
X61500Y250000D02*
X62750Y248750D01*
X50750Y253000D02*
X52000Y251750D01*
X32500Y253000D02*
X50750D01*
X62750Y243550D02*
Y248750D01*
Y243550D02*
X69300Y237000D01*
X669000Y160000D02*
Y171500D01*
Y186500D01*
X669750Y171500D02*
Y186500D01*
X651500Y146000D02*
Y154000D01*
X388000Y356000D02*
X404000D01*
X428000Y380000D02*
Y496560D01*
X340000Y308000D02*
X388000Y356000D01*
X348000Y298108D02*
X391142Y341250D01*
X348000Y236080D02*
Y298108D01*
X315850Y203930D02*
X348000Y236080D01*
X404000Y356000D02*
X428000Y380000D01*
X340000Y250000D02*
Y308000D01*
X391142Y341250D02*
X408250D01*
X425060Y499500D02*
X428000Y496560D01*
X416560Y506000D02*
Y508000D01*
Y506000D02*
X423060Y499500D01*
X425060D01*
X280000Y353000D02*
X331000Y404000D01*
X256000Y218496D02*
X280000Y242496D01*
Y353000D01*
X256000Y184000D02*
Y218496D01*
X291000Y343000D02*
X341000Y393000D01*
X291000Y240000D02*
Y343000D01*
X270000Y219000D02*
X291000Y240000D01*
X278950Y215950D02*
X301437Y238438D01*
Y330563D01*
X309000Y240000D02*
X313000D01*
X330000Y257000D01*
Y317000D01*
X316000Y321000D02*
X373000Y378000D01*
X316000Y259000D02*
Y321000D01*
X314960Y486000D02*
Y508000D01*
X315000Y486000D02*
X341000Y460000D01*
X314960Y486000D02*
X315000D01*
X341000Y393000D02*
Y460000D01*
X440100Y488900D02*
X457200Y506000D01*
X408250Y341250D02*
X440100Y373100D01*
Y488900D01*
X290450Y201930D02*
X291930D01*
X340000Y250000D01*
X278950Y190030D02*
Y215950D01*
X270000Y184000D02*
X274000Y180000D01*
X270000Y184000D02*
Y219000D01*
X315850Y201930D02*
Y203930D01*
X362000Y235000D02*
Y300000D01*
X395000Y333000D01*
X343430Y216430D02*
X362000Y235000D01*
X343430Y204110D02*
Y216430D01*
X341250Y201930D02*
X343430Y204110D01*
X375000Y299000D02*
X397000Y321000D01*
X375000Y213258D02*
Y299000D01*
X366650Y201930D02*
Y204908D01*
X375000Y213258D01*
X301437Y330563D02*
X355000Y384125D01*
Y492000D01*
X340360Y506640D02*
X355000Y492000D01*
X340360Y506640D02*
Y508000D01*
X274000Y120750D02*
X288500Y106250D01*
X274000Y120750D02*
Y180000D01*
X289560Y503202D02*
Y508000D01*
Y494440D02*
Y503202D01*
X331000Y404000D02*
Y446000D01*
X297000Y480000D02*
Y495762D01*
X289560Y503202D02*
X297000Y495762D01*
Y480000D02*
X331000Y446000D01*
X256000Y184000D02*
X263000Y177000D01*
Y114000D02*
Y177000D01*
Y114000D02*
X278000Y99000D01*
X243000Y180000D02*
X253000Y170000D01*
Y163500D02*
Y170000D01*
X459000Y361000D02*
Y479500D01*
X431000Y333000D02*
X459000Y361000D01*
X395000Y333000D02*
X431000D01*
X547243Y251937D02*
Y452000D01*
X558000Y462500D02*
X587950D01*
X547243Y452000D02*
X547500D01*
X558000Y462500D01*
X554000Y416000D02*
Y443000D01*
X566500Y455500D02*
X585000D01*
X554000Y443000D02*
X566500Y455500D01*
X617000Y443600D02*
X662000D01*
X592400Y419000D02*
X617000Y443600D01*
X580000Y419000D02*
X592400D01*
X567000Y259000D02*
Y420000D01*
X596000Y230000D02*
X603500D01*
X605500Y226000D02*
Y228000D01*
X603500Y230000D02*
X605500Y228000D01*
X567000Y259000D02*
X596000Y230000D01*
X547243Y251937D02*
X595250Y203930D01*
X536000Y237780D02*
X569850Y203930D01*
X536000Y453000D02*
X557500Y474500D01*
X536000Y237780D02*
Y453000D01*
X569850Y201930D02*
Y203930D01*
X524000Y225000D02*
X544450Y204550D01*
Y201930D02*
Y204550D01*
X524000Y457000D02*
X553000Y486000D01*
X524000Y225000D02*
Y457000D01*
X564200Y486000D02*
X584200Y506000D01*
X553000Y486000D02*
X564200D01*
X584200Y506000D02*
Y508000D01*
X509000Y456200D02*
X558800Y506000D01*
X509000Y213980D02*
Y456200D01*
X558800Y506000D02*
Y508000D01*
X509000Y213980D02*
X519050Y203930D01*
Y201930D02*
Y203930D01*
X457200Y506000D02*
Y508000D01*
X459000Y479500D02*
X482600Y503100D01*
Y508000D01*
X397000Y321000D02*
X456500D01*
X471750Y336250D02*
Y468000D01*
X456500Y321000D02*
X471750Y336250D01*
X508000Y504250D02*
Y508000D01*
X471750Y468000D02*
X508000Y504250D01*
X330000Y317000D02*
X391160Y378160D01*
Y508000D01*
X365760Y502802D02*
Y508000D01*
Y502802D02*
X373000Y495562D01*
Y378000D02*
Y495562D01*
X340360Y508000D02*
Y513518D01*
X289560Y494440D02*
X291000Y493000D01*
Y472000D02*
Y493000D01*
X577000Y38000D02*
X584200Y30800D01*
X569850Y120352D02*
X577000Y113202D01*
X569850Y120352D02*
Y125730D01*
X577000Y38000D02*
Y113202D01*
X584200Y25400D02*
Y30800D01*
X509000Y117000D02*
X518500Y107500D01*
X508000Y27400D02*
X520550Y39950D01*
X508000Y25400D02*
Y27400D01*
X520550Y39950D02*
X525950D01*
X532000Y46000D01*
X530243Y107500D02*
X532000Y105743D01*
Y46000D02*
Y105743D01*
X518500Y107500D02*
X530243D01*
X495168Y125730D02*
X503898Y117000D01*
X509000D01*
X493650Y125730D02*
X495168D01*
X493375Y103625D02*
X511375D01*
X522000Y93000D01*
X481250Y115750D02*
X493375Y103625D01*
X606000Y56400D02*
X635000Y27400D01*
Y25400D02*
Y27400D01*
X606000Y56400D02*
Y109080D01*
X620650Y123730D01*
Y125730D01*
X538890Y109000D02*
X542243D01*
X519050Y123730D02*
X524915Y117865D01*
X530025D02*
X538890Y109000D01*
X533400Y27400D02*
X544000Y38000D01*
X533400Y25400D02*
Y27400D01*
X544000Y38000D02*
Y107243D01*
X542243Y109000D02*
X544000Y107243D01*
X524915Y117865D02*
X530025D01*
X558000Y26200D02*
Y111000D01*
Y26200D02*
X558800Y25400D01*
X544450Y124550D02*
Y125730D01*
Y124550D02*
X558000Y111000D01*
X519050Y123730D02*
Y125730D01*
X651500Y144500D02*
Y146000D01*
X650250D02*
X651500Y144750D01*
X481250Y137250D02*
X490000Y146000D01*
X650250D01*
X481250Y115750D02*
Y137250D01*
X509993Y41250D02*
X522000Y53257D01*
Y93000D01*
X58550Y194500D02*
X63050Y190000D01*
X48745Y194500D02*
X58550D01*
X63050Y190000D02*
X83379D01*
X85137Y188243D01*
X48745Y194500D02*
X48745Y194500D01*
X85137Y171363D02*
Y188243D01*
X94192Y328000D02*
X112000D01*
X171000Y370000D02*
Y383500D01*
X172000Y384500D01*
X157000Y356000D02*
X171463Y370463D01*
X150000Y355537D02*
X156537D01*
X265000Y361250D02*
X319750Y416000D01*
X320000D01*
X214321Y361250D02*
X265000D01*
X263000Y369000D02*
X319500Y425500D01*
X215000Y369000D02*
X263000D01*
X187000Y341000D02*
X215000Y369000D01*
X183000Y341000D02*
X187000D01*
X182000Y342000D02*
X183000Y341000D01*
X196000Y342929D02*
X214321Y361250D01*
X196000Y328000D02*
Y342929D01*
X189025Y364225D02*
X196225D01*
X210000Y378000D01*
X263000Y430750D02*
X270750Y438500D01*
Y441500D01*
X261243Y404000D02*
X263000Y405757D01*
X261000Y404000D02*
X261243D01*
X263000Y405757D02*
Y430750D01*
X254000Y397000D02*
X261000Y404000D01*
X254000Y378000D02*
X270750Y394750D01*
Y418500D01*
X253250Y421250D02*
Y438750D01*
X253500Y439000D01*
X253000Y421000D02*
X253250Y421250D01*
X196750Y421500D02*
X204750Y429500D01*
X194500Y421500D02*
X196750D01*
X222366Y519743D02*
X224123Y521500D01*
X128050Y441000D02*
X134550Y434500D01*
X82240Y441000D02*
X128050D01*
X210000Y494000D02*
X217623D01*
X222366Y517257D02*
X224860Y514763D01*
Y501237D02*
Y514763D01*
X150363Y434500D02*
X153863Y431000D01*
X217623Y494000D02*
X224860Y501237D01*
X224123Y521500D02*
X332750D01*
X222366Y517257D02*
Y519743D01*
X134550Y434500D02*
X150363D01*
X50800Y472440D02*
X82240Y441000D01*
X195373Y479373D02*
X210000Y494000D01*
X195373Y471750D02*
Y479373D01*
X50800Y497840D02*
X53000D01*
X65160Y510000D01*
X92000D01*
X130250Y471750D01*
X195373D01*
X108310Y484440D02*
X126000Y466750D01*
X45829Y484440D02*
X108310D01*
X126000Y466750D02*
X272000D01*
X38800Y477411D02*
X45829Y484440D01*
X282000Y476750D02*
Y486000D01*
X272000Y466750D02*
X282000Y476750D01*
X154864Y212115D02*
X157926Y209053D01*
X160000Y214050D02*
Y218556D01*
X157926Y202324D02*
X158500Y201750D01*
X160000Y214050D02*
X165500Y208550D01*
X157926Y202324D02*
Y209053D01*
X160000Y218556D02*
Y244950D01*
X154864Y212115D02*
Y224879D01*
X567000Y420000D02*
X577000Y430000D01*
X565000D02*
X573750Y438750D01*
X609250Y474500D02*
X610000D01*
X599000D02*
X609250D01*
X609500Y474750D01*
X557500Y474500D02*
X585000D01*
X595975Y470525D02*
Y471475D01*
X599000Y474500D01*
X587950Y462500D02*
X595975Y470525D01*
X85137Y171363D02*
X85500Y171000D01*
X69000Y196500D02*
X92000D01*
X94000Y194500D01*
Y193000D02*
Y194500D01*
X113000Y193000D02*
X124750D01*
X67500Y196500D02*
X69000D01*
Y211500D02*
X83500D01*
X67500D02*
X69000D01*
X160000Y244950D02*
X162050Y247000D01*
X237500Y240000D02*
Y242000D01*
X240500Y245000D01*
X152743Y227000D02*
X154864Y224879D01*
X141550Y227000D02*
X152743D01*
X139500Y229050D02*
X141550Y227000D01*
X139500Y229050D02*
Y244950D01*
X248000Y317500D02*
Y334500D01*
X238500Y344000D02*
X248000Y334500D01*
X204750Y429500D02*
X221950D01*
X225225Y426225D01*
X623250Y173058D02*
Y199330D01*
X620650Y201930D02*
X623250Y199330D01*
Y173058D02*
X632779Y163529D01*
X641971D01*
X651500Y154000D01*
X278000Y99000D02*
X385500D01*
X220000Y122550D02*
Y142700D01*
Y122550D02*
X225050Y117500D01*
X210950Y151750D02*
X220000Y142700D01*
X207750Y151750D02*
X210950D01*
X608500Y262500D02*
X673500D01*
X649000Y242500D02*
X672000D01*
X628442Y242750D02*
X648750D01*
X628192Y243000D02*
X628442Y242750D01*
X648750D02*
X649000Y242500D01*
X661000Y171500D02*
Y196500D01*
X651000Y206500D02*
X661000Y196500D01*
X671500Y188500D02*
X671750D01*
X669750Y186500D02*
X671750Y188500D01*
X649000Y206500D02*
X651000D01*
X139500Y244950D02*
X141550Y247000D01*
X139237Y381300D02*
X149550D01*
X135437Y377500D02*
X139237Y381300D01*
X149550D02*
X150250Y382000D01*
X151063D02*
X159500Y390437D01*
X150000Y342000D02*
Y355537D01*
X150250Y382000D02*
X151063D01*
X146000Y408457D02*
Y420600D01*
Y408457D02*
X147757Y406700D01*
X152763D01*
X159500Y399963D01*
Y390437D02*
Y399963D01*
X134880Y386080D02*
X144000Y395200D01*
X76200Y386080D02*
X134880D01*
X144000Y395200D02*
X146000D01*
X96000Y277500D02*
X100125Y273375D01*
X234000Y144000D02*
X252500D01*
X233500Y143500D02*
X234000Y144000D01*
X252500D02*
X253000Y144500D01*
X206500Y153000D02*
Y162500D01*
Y153000D02*
X207750Y151750D01*
X225050Y117500D02*
X231000D01*
X233000Y115500D01*
Y106500D02*
Y115500D01*
X253000Y106500D02*
X269500Y90000D01*
X233000Y106500D02*
X253000D01*
X269500Y87000D02*
Y90000D01*
X276000Y67500D02*
X286500Y78000D01*
Y85000D01*
X288500Y87000D01*
X273000Y67500D02*
X276000D01*
X258000Y79500D02*
X270000Y67500D01*
X273000D01*
X241500Y79500D02*
X258000D01*
X241500Y14500D02*
Y79500D01*
X392050Y111450D02*
X399500Y104000D01*
X402500D02*
X404500Y102000D01*
Y99000D02*
Y102000D01*
X392050Y111450D02*
Y125730D01*
X399500Y104000D02*
X402500D01*
X165500Y208500D02*
Y208550D01*
X164750Y249550D02*
Y256750D01*
X154200Y247000D02*
X156750Y249550D01*
Y256750D01*
X158000Y258000D01*
X164750Y256750D02*
X166000Y258000D01*
X162200Y247000D02*
X164750Y249550D01*
X141550Y247000D02*
X154200D01*
X162050Y247000D02*
X162200D01*
X69300Y237000D02*
X90500D01*
X104500Y215000D02*
X116000D01*
X104500D02*
X105500Y214000D01*
X63000Y201000D02*
X67500Y196500D01*
X48745Y201000D02*
X63000D01*
X85500Y213500D02*
Y215000D01*
X83500Y211500D02*
X85500Y213500D01*
X63500Y207500D02*
X67500Y211500D01*
X48745Y207500D02*
X63500D01*
X13250Y253250D02*
X13500Y253000D01*
X13000Y269808D02*
X13250Y269558D01*
Y253250D02*
Y269558D01*
X13635Y269808D02*
X19327Y275500D01*
X31000D01*
X13000Y269808D02*
X13635D01*
X75250Y282500D02*
X91000D01*
X70500Y277750D02*
X75250Y282500D01*
X96000Y277500D02*
Y280500D01*
X94000Y282500D02*
X96000Y280500D01*
X91000Y282500D02*
X94000D01*
X101500Y272000D02*
X112000D01*
X241500Y245000D02*
X248000Y251500D01*
X240500Y245000D02*
X241500D01*
X248000Y251500D02*
Y268500D01*
X217000Y264500D02*
X244000D01*
X248000Y268500D01*
X212000Y266500D02*
Y268000D01*
X214000Y264500D02*
X217000D01*
X196000Y272000D02*
X208000D01*
X212000Y268000D01*
Y266500D02*
X214000Y264500D01*
X238500Y344000D02*
Y346000D01*
X236500Y300000D02*
Y306500D01*
X247500Y317500D01*
X217000Y283500D02*
X220000D01*
X236500Y300000D01*
X247500Y317500D02*
X248000D01*
X197250Y281250D02*
X204450D01*
X206700Y283500D01*
X217000D01*
X196000Y280000D02*
X197250Y281250D01*
X175250Y343250D02*
Y350450D01*
X174000Y342000D02*
X175250Y343250D01*
X221929Y397000D02*
X238000D01*
X210000Y378000D02*
X238000D01*
X204429Y379500D02*
X221929Y397000D01*
X196300Y379500D02*
X204429D01*
X175250Y350450D02*
X189025Y364225D01*
X195250Y384500D02*
X218500Y407750D01*
X172000Y384500D02*
X195250D01*
X167250Y350450D02*
X196300Y379500D01*
X167250Y343250D02*
Y350450D01*
X166000Y342000D02*
X167250Y343250D01*
X225225Y424275D02*
X228500Y421000D01*
X237000D01*
X225225Y424275D02*
Y426225D01*
X93704Y320000D02*
X112000D01*
X99500Y350000D02*
Y351000D01*
X101500Y353000D01*
X132750Y343250D02*
X134000Y342000D01*
X273375Y454375D02*
X291000Y472000D01*
X195675Y454375D02*
X273375D01*
X181800Y440500D02*
X195675Y454375D01*
X167500Y440500D02*
X181800D01*
X153863Y431000D02*
X167500D01*
X37043Y472440D02*
X38800Y474197D01*
Y477411D01*
X167500Y431000D02*
Y440500D01*
X25400Y472440D02*
X37043D01*
X335371Y518507D02*
X340360Y513518D01*
X335371Y518507D02*
Y518879D01*
X332750Y521500D02*
X335371Y518879D01*
X417450Y201930D02*
Y203930D01*
X427500Y213980D02*
Y231000D01*
X417450Y203930D02*
X427500Y213980D01*
Y234000D02*
X445500Y252000D01*
X427500Y231000D02*
Y234000D01*
X445500Y252000D02*
Y254000D01*
X459500Y269500D02*
Y287000D01*
X449000Y259000D02*
X459500Y269500D01*
X448500Y259000D02*
X449000D01*
X445500Y256000D02*
X448500Y259000D01*
X445500Y254000D02*
Y256000D01*
X392050Y203550D02*
X408500Y220000D01*
Y231000D01*
X392050Y201930D02*
Y203550D01*
X410500Y236752D02*
X426379Y252632D01*
X410500Y233000D02*
Y236752D01*
X408500Y231000D02*
X410500Y233000D01*
X426379Y252632D02*
Y254632D01*
X410500Y270511D02*
Y287000D01*
Y270511D02*
X421379Y259632D01*
X423379D01*
X426379Y256632D01*
Y254632D02*
Y256632D01*
X649000Y206500D02*
Y223500D01*
X673500Y244000D02*
Y262500D01*
X672000Y242500D02*
X673500Y244000D01*
X608250Y355250D02*
Y374750D01*
Y355250D02*
X608500Y355000D01*
X608000Y375000D02*
X608250Y374750D01*
X660300Y418200D02*
X662000D01*
X636000Y431500D02*
X647000D01*
X660300Y418200D01*
X657500Y473500D02*
X662000Y469000D01*
X636000Y473500D02*
X657500D01*
X620650Y201930D02*
Y203930D01*
X607500Y217080D02*
X620650Y203930D01*
X607500Y217080D02*
Y224000D01*
X605500Y226000D02*
X607500Y224000D01*
X498500Y41250D02*
X509993D01*
X482250Y25000D02*
X498500Y41250D01*
X482250Y14500D02*
Y25000D01*
X478250Y10500D02*
X482250Y14500D01*
X342000Y10500D02*
X478250D01*
X330200Y22300D02*
X342000Y10500D01*
X330200Y22300D02*
Y25400D01*
X573750Y438750D02*
X600929D01*
X610000Y447821D02*
Y455500D01*
X600929Y438750D02*
X610000Y447821D01*
X623250Y454000D02*
X623500D01*
X624000Y454500D02*
X636000D01*
X623500Y454000D02*
X624000Y454500D01*
X315850Y125730D02*
X316250Y126130D01*
Y161500D02*
X328750Y174000D01*
X316250Y126130D02*
Y161500D01*
X278950Y190030D02*
X284299Y184681D01*
X333819D01*
X337000Y181500D01*
Y181500D02*
Y181500D01*
X341250Y125730D02*
Y177250D01*
X337000Y181500D02*
X341250Y177250D01*
X288500Y106250D02*
X346750D01*
X366230Y125730D01*
X366650D01*
X290450Y160200D02*
X304000Y173750D01*
X290450Y125730D02*
Y160200D01*
X595250Y41750D02*
Y125730D01*
Y41750D02*
X609600Y27400D01*
Y25400D02*
Y27400D01*
X609500Y480500D02*
X635000Y506000D01*
X609500Y474750D02*
Y480500D01*
X585000Y474750D02*
Y481400D01*
X609600Y506000D01*
X493650Y466250D02*
X533400Y506000D01*
X493650Y201930D02*
Y466250D01*
D11*
X615500Y62750D02*
Y94891D01*
X670000Y144500D02*
X680000Y154500D01*
Y158750D01*
X669750Y144500D02*
X670000D01*
X680000Y159021D02*
X682000Y161021D01*
X680000Y158750D02*
Y159021D01*
X655000Y130000D02*
X669500Y144500D01*
X669750D01*
X655000Y126000D02*
Y130000D01*
X648200Y119200D02*
X655000Y126000D01*
X615500Y94891D02*
X639809Y119200D01*
X648200D01*
X671000Y209500D02*
X674000D01*
X671000D02*
X671500Y210000D01*
Y223000D02*
X672000Y223500D01*
X182000Y253250D02*
X190000Y245250D01*
Y241000D02*
Y245250D01*
X191000Y240000D02*
X193000D01*
X182000Y253250D02*
Y258000D01*
X190000Y241000D02*
X191000Y240000D01*
X176250Y279928D02*
X182000Y274178D01*
Y258000D02*
Y274178D01*
X176250Y279928D02*
Y291107D01*
X181000Y295857D02*
X195857D01*
X176250Y291107D02*
X181000Y295857D01*
X195857D02*
X196000Y296000D01*
X196250Y296250D01*
X215000Y300500D02*
X217000D01*
X210750Y296250D02*
X215000Y300500D01*
X196250Y296250D02*
X210750D01*
X155393Y194250D02*
X169479D01*
X148500Y201143D02*
X155393Y194250D01*
X148500Y201143D02*
Y214500D01*
X148000Y215000D02*
X148500Y214500D01*
X147500Y215000D02*
X148000D01*
X128500D02*
Y239000D01*
X128500Y239000D02*
X128500Y239000D01*
X227000Y181500D02*
X233500Y175000D01*
Y162500D02*
Y175000D01*
X225000Y181500D02*
X227000D01*
D12*
X674000Y209500D02*
X682000Y201500D01*
Y161021D02*
Y201500D01*
X671500Y210000D02*
Y223000D01*
X59000Y221505D02*
Y229000D01*
X52495Y215000D02*
X59000Y221505D01*
X172000Y239000D02*
X174000Y241000D01*
Y258000D01*
X133000Y270500D02*
X133383Y270117D01*
X141250Y258750D02*
X142000Y258000D01*
X141250Y258750D02*
Y266657D01*
X137789Y270117D02*
X141250Y266657D01*
X133383Y270117D02*
X137789D01*
X128500Y239000D02*
X133023Y243523D01*
D14*
X70500Y295000D02*
D03*
X51500D02*
D03*
X21500Y522000D02*
D03*
X40500D02*
D03*
X673500Y127000D02*
D03*
X654500D02*
D03*
X438000Y98000D02*
D03*
X419000D02*
D03*
X256500Y240000D02*
D03*
X237500D02*
D03*
X445750Y230750D02*
D03*
X464750D02*
D03*
X128500Y237000D02*
D03*
X147500D02*
D03*
X238500Y346000D02*
D03*
X257500D02*
D03*
X500500Y55000D02*
D03*
X481500D02*
D03*
X609500Y332000D02*
D03*
X590500D02*
D03*
X381500Y50000D02*
D03*
X400500D02*
D03*
X500500Y77000D02*
D03*
X481500D02*
D03*
X243500Y484000D02*
D03*
X262500D02*
D03*
X437375Y79000D02*
D03*
X418375D02*
D03*
X477500Y99000D02*
D03*
X458500D02*
D03*
X426379Y254632D02*
D03*
X407379D02*
D03*
X445500Y254000D02*
D03*
X464500D02*
D03*
X90500Y237000D02*
D03*
X109500D02*
D03*
D15*
X71000Y277000D02*
D03*
X52000D02*
D03*
X71000Y250000D02*
D03*
X61500D02*
D03*
X52000D02*
D03*
X669750Y171500D02*
D03*
X660250D02*
D03*
X650750D02*
D03*
X669750Y144500D02*
D03*
X650750D02*
D03*
D16*
X172000Y384500D02*
D03*
Y403500D02*
D03*
X217000Y283500D02*
D03*
Y264500D02*
D03*
X610000Y455500D02*
D03*
Y474500D02*
D03*
X585000D02*
D03*
Y455500D02*
D03*
X636000Y412500D02*
D03*
Y431500D02*
D03*
X253000Y163500D02*
D03*
Y144500D02*
D03*
X649000Y223500D02*
D03*
Y242500D02*
D03*
X333000Y47500D02*
D03*
Y66500D02*
D03*
Y85500D02*
D03*
Y66500D02*
D03*
X91000Y282500D02*
D03*
Y263500D02*
D03*
X671000Y190500D02*
D03*
Y209500D02*
D03*
X31000Y294500D02*
D03*
Y275500D02*
D03*
X672000Y242500D02*
D03*
Y223500D02*
D03*
X273000Y48500D02*
D03*
Y67500D02*
D03*
D17*
X289750Y441500D02*
D03*
X270750D02*
D03*
Y418500D02*
D03*
X289750D02*
D03*
X80500Y350000D02*
D03*
X99500D02*
D03*
X85500Y215000D02*
D03*
X104500D02*
D03*
X113000Y193000D02*
D03*
X94000D02*
D03*
X104500Y171000D02*
D03*
X85500D02*
D03*
X385500Y99000D02*
D03*
X404500D02*
D03*
X253500Y439000D02*
D03*
X234500D02*
D03*
X408500Y231000D02*
D03*
X427500D02*
D03*
X608500Y355000D02*
D03*
X589500D02*
D03*
X13000Y254000D02*
D03*
X32000D02*
D03*
X288500Y87000D02*
D03*
X269500D02*
D03*
X147500Y215000D02*
D03*
X128500D02*
D03*
X624500Y226000D02*
D03*
X605500D02*
D03*
D18*
X13000Y294192D02*
D03*
Y269808D02*
D03*
D19*
X628192Y243000D02*
D03*
X603808D02*
D03*
D20*
X135600Y115000D02*
D03*
X148300D02*
D03*
X161000D02*
D03*
X173700D02*
D03*
X186400D02*
D03*
D21*
X161000Y177000D02*
D03*
D22*
X48745Y214000D02*
D03*
Y207500D02*
D03*
Y201000D02*
D03*
Y194500D02*
D03*
Y188000D02*
D03*
D23*
X46495Y233000D02*
D03*
Y169000D02*
D03*
D24*
X21995Y213000D02*
D03*
Y189000D02*
D03*
X241500Y79500D02*
D03*
D25*
X214000Y239000D02*
D03*
Y220000D02*
D03*
X194000D02*
D03*
Y239000D02*
D03*
X170000Y220000D02*
D03*
Y239000D02*
D03*
X23000Y451500D02*
D03*
Y432500D02*
D03*
X201000Y200500D02*
D03*
Y181500D02*
D03*
X217000Y300500D02*
D03*
Y319500D02*
D03*
X636000Y473500D02*
D03*
Y454500D02*
D03*
X210000Y106500D02*
D03*
Y125500D02*
D03*
X114000Y111500D02*
D03*
Y130500D02*
D03*
X356000Y46500D02*
D03*
Y65500D02*
D03*
X305000Y46500D02*
D03*
Y65500D02*
D03*
X461000Y79500D02*
D03*
Y60500D02*
D03*
X214000Y440500D02*
D03*
Y421500D02*
D03*
X225000Y181500D02*
D03*
Y200500D02*
D03*
X233000Y106500D02*
D03*
Y125500D02*
D03*
X649000Y206500D02*
D03*
Y187500D02*
D03*
D26*
X254000Y378000D02*
D03*
X238000D02*
D03*
X254000Y397000D02*
D03*
X238000D02*
D03*
X253000Y421000D02*
D03*
X237000D02*
D03*
X608000Y375000D02*
D03*
X592000D02*
D03*
D27*
X196000Y272000D02*
D03*
Y328000D02*
D03*
Y320000D02*
D03*
Y312000D02*
D03*
Y304000D02*
D03*
Y296000D02*
D03*
Y288000D02*
D03*
Y280000D02*
D03*
X112000Y328000D02*
D03*
Y304000D02*
D03*
Y288000D02*
D03*
Y312000D02*
D03*
Y272000D02*
D03*
Y280000D02*
D03*
Y296000D02*
D03*
Y320000D02*
D03*
D28*
X174000Y342000D02*
D03*
X182000D02*
D03*
X150000Y258000D02*
D03*
X134000D02*
D03*
X126000Y342000D02*
D03*
X150000D02*
D03*
X142000D02*
D03*
X158000Y258000D02*
D03*
X142000D02*
D03*
X166000Y342000D02*
D03*
Y258000D02*
D03*
X126000D02*
D03*
X134000Y342000D02*
D03*
X158000D02*
D03*
X174000Y258000D02*
D03*
X182000D02*
D03*
D29*
X20000Y67000D02*
D03*
Y99000D02*
D03*
D30*
X72000Y62500D02*
D03*
Y21500D02*
D03*
Y143000D02*
D03*
Y102000D02*
D03*
D31*
X69000Y181500D02*
D03*
Y196500D02*
D03*
Y226500D02*
D03*
Y211500D02*
D03*
D32*
X248000Y317500D02*
D03*
Y268500D02*
D03*
D33*
X410500Y287000D02*
D03*
X459500D02*
D03*
D34*
X194500Y421500D02*
D03*
Y440500D02*
D03*
X167500Y421500D02*
D03*
Y431000D02*
D03*
Y440500D02*
D03*
X233500Y143500D02*
D03*
Y162500D02*
D03*
X206500Y143500D02*
D03*
Y153000D02*
D03*
Y162500D02*
D03*
D64*
X673500Y262500D02*
D03*
D65*
Y307500D02*
D03*
X608500D02*
D03*
Y262500D02*
D03*
X241500Y14500D02*
D03*
X196500D02*
D03*
Y79500D02*
D03*
D69*
X104000Y516000D02*
D03*
X668000Y513000D02*
D03*
X670000Y19000D02*
D03*
X220000Y48000D02*
D03*
D70*
X70500Y295000D02*
X84000D01*
X30846Y294346D02*
X31250Y294750D01*
X50750D02*
X51500Y294000D01*
X31250Y294750D02*
X50750D01*
X71000Y250000D02*
X79250D01*
X51500Y273250D02*
X61250Y263500D01*
X238760Y503294D02*
X243500Y498554D01*
Y484000D02*
Y498554D01*
X238760Y503294D02*
Y508000D01*
X213000Y475000D02*
X222000Y484000D01*
X459210Y44000D02*
Y58710D01*
X162000Y141000D02*
X163000Y140000D01*
Y130436D02*
Y140000D01*
X161000Y128436D02*
X163000Y130436D01*
X161000Y115000D02*
Y128436D01*
X40750Y522250D02*
X53500D01*
X40500Y522000D02*
X40750Y522250D01*
X673500Y127000D02*
X674500Y126000D01*
X682000D01*
X634541Y171500D02*
X651500D01*
X412875Y106875D02*
X419000Y100750D01*
X630291Y175750D02*
X634541Y171500D01*
X485500Y83000D02*
X489000D01*
X301000Y48500D02*
X303000Y46500D01*
X273000Y48500D02*
X301000D01*
X303000Y46500D02*
X305000D01*
X356000Y65500D02*
X372750D01*
X372750Y65500D01*
X210500Y412500D02*
Y420000D01*
X212000Y421500D01*
X205500Y407500D02*
X210500Y412500D01*
X172500Y420750D02*
X185500Y407750D01*
X189750D01*
X192000Y239000D02*
X193000Y240000D01*
X192000Y239000D02*
X194000D01*
X210500Y296000D02*
X210750Y296250D01*
X181500Y207351D02*
Y229500D01*
X193000Y211000D02*
Y219000D01*
X194000Y220000D01*
X170000Y239000D02*
X172000D01*
X172000Y220000D02*
X173500Y218500D01*
Y205500D02*
Y218500D01*
X173000Y205000D02*
X173500Y205500D01*
X170000Y220000D02*
X172000D01*
X182332Y191239D02*
Y206518D01*
X135600Y115000D02*
Y150085D01*
X142515Y157000D01*
X154000Y134750D02*
Y144314D01*
X191500Y160615D02*
Y172000D01*
X158686Y149000D02*
X179885D01*
X191500Y160615D01*
X154000Y134750D02*
X155000Y133750D01*
X197500Y178000D02*
Y180000D01*
X199000Y181500D01*
X191500Y172000D02*
X197500Y178000D01*
X154000Y144314D02*
X158686Y149000D01*
X182332Y191239D02*
X183500Y190071D01*
X142515Y157000D02*
X176571D01*
X199000Y181500D02*
X201000D01*
X183500Y163929D02*
Y190071D01*
X176571Y157000D02*
X183500Y163929D01*
X23000Y451500D02*
X61959D01*
X64459Y449000D02*
X65000D01*
X61959Y451500D02*
X64459Y449000D01*
X629750Y175750D02*
Y183500D01*
X441750Y219791D02*
X443250Y221291D01*
Y228250D02*
X445750Y230750D01*
X443250Y221291D02*
Y228250D01*
X441750Y219250D02*
Y219791D01*
X465000Y254500D02*
X477250D01*
X464500Y254000D02*
X465000Y254500D01*
X392250D02*
X392382Y254632D01*
X407379D01*
X109500Y237000D02*
X109500Y237000D01*
Y250000D01*
X147500Y237000D02*
X153500D01*
X214000Y239000D02*
Y251000D01*
X212000Y220000D02*
X214000D01*
X209500Y222500D02*
X212000Y220000D01*
X209500Y222500D02*
Y223500D01*
X194000Y239000D02*
X209500Y223500D01*
Y215500D02*
Y217500D01*
X212000Y220000D01*
X205500Y211500D02*
X209500Y215500D01*
X172000Y239000D02*
X181500Y229500D01*
X150000Y258000D02*
Y270750D01*
X150000Y258000D02*
X150000Y258000D01*
X236733Y200500D02*
X239733Y203500D01*
X240000D01*
X225000Y200500D02*
X236733D01*
X264750Y240000D02*
X267750Y243000D01*
X256500Y240000D02*
X264750D01*
X183750Y288000D02*
X183750Y288000D01*
X196000D01*
X217000Y319500D02*
Y333500D01*
X257500Y346000D02*
X257750Y345750D01*
X270000D01*
X262500Y484000D02*
X263330Y484830D01*
Y507170D02*
X264160Y508000D01*
X263330Y484830D02*
Y507170D01*
X212000Y421500D02*
X214000D01*
X194500Y440500D02*
X214000D01*
X629750Y183500D02*
X630291D01*
X634291Y187500D02*
X649000D01*
X630291Y183500D02*
X634291Y187500D01*
X629750Y175750D02*
X630291D01*
X481500Y79000D02*
X485500Y83000D01*
X481500Y77000D02*
Y79000D01*
X468750Y109500D02*
X477500Y100750D01*
Y99000D02*
Y100750D01*
X410750Y85375D02*
X417125Y79000D01*
X418375D01*
X305000Y65500D02*
Y86000D01*
X192250Y143500D02*
X206500D01*
X233000Y125500D02*
Y135000D01*
X210000Y125500D02*
Y134500D01*
X78500Y226500D02*
X78750Y226750D01*
X69000Y226500D02*
X78500D01*
X23450Y499790D02*
Y520050D01*
X21500Y522000D02*
X23450Y520050D01*
Y499790D02*
X25400Y497840D01*
X290500Y419250D02*
X297250D01*
X289750Y418500D02*
X290500Y419250D01*
X289750Y418500D02*
Y441500D01*
X233250Y440250D02*
X234500Y439000D01*
X225250Y440250D02*
X233250D01*
X214000Y440500D02*
X214250Y440250D01*
X225250D01*
X167750Y405000D02*
Y413750D01*
X169250Y403500D02*
X172000D01*
X167750Y405000D02*
X169250Y403500D01*
X13000Y285750D02*
Y294192D01*
X13154Y294346D02*
X30846D01*
X13000Y294192D02*
X13154Y294346D01*
X51500Y275500D02*
Y294000D01*
X61250Y263500D02*
X91000D01*
X51500Y273250D02*
Y275500D01*
X225000Y181500D02*
X225000Y181500D01*
X459210Y58710D02*
X461000Y60500D01*
X479709Y53209D02*
X481500Y55000D01*
X479709Y42500D02*
Y53209D01*
X466500Y203680D02*
Y229000D01*
X464750Y230750D02*
X466500Y229000D01*
Y203680D02*
X468250Y201930D01*
X205500Y203000D02*
Y211500D01*
X201000Y200500D02*
X203000D01*
X205500Y203000D01*
X196000Y296000D02*
X210500D01*
X114000Y90200D02*
X116200Y88000D01*
X114000Y111500D02*
X116000D01*
X222000Y484000D02*
X243500D01*
X458500Y99000D02*
Y110080D01*
X442850Y125730D02*
X458500Y110080D01*
D71*
X442850Y125730D02*
Y126889D01*
X485961Y170000D01*
X451000Y152010D02*
Y182680D01*
X450738Y151748D02*
X451000Y152010D01*
X485961Y170000D02*
X593000D01*
X468250Y199930D02*
Y201930D01*
X451000Y182680D02*
X468250Y199930D01*
X593000Y170000D02*
X606000Y183000D01*
D72*
X201000Y181500D02*
X225000D01*
X590500Y282000D02*
Y332000D01*
Y256943D02*
Y282000D01*
X654750D01*
X655250Y281500D01*
X589500Y355000D02*
X590000Y354500D01*
Y332500D02*
X590500Y332000D01*
X590000Y332500D02*
Y354500D01*
X603808Y243000D02*
Y243635D01*
X590500Y256943D02*
X603808Y243635D01*
X611929Y241571D02*
X624500Y229000D01*
X604602Y241571D02*
X611929D01*
X603808Y242365D02*
X604602Y241571D01*
X624500Y226000D02*
Y229000D01*
X603808Y242365D02*
Y243000D01*
D73*
X152400Y508000D02*
D03*
D74*
X116200Y88000D02*
D03*
X416560Y508000D02*
D03*
X635000D02*
D03*
X508000Y25400D02*
D03*
X279400D02*
D03*
X620650Y201930D02*
D03*
D75*
X141600Y88000D02*
D03*
X167000D02*
D03*
X187960Y508000D02*
D03*
X213360D02*
D03*
X238760D02*
D03*
X264160D02*
D03*
X289560D02*
D03*
X314960D02*
D03*
X340360D02*
D03*
X365760D02*
D03*
X391160D02*
D03*
X457200D02*
D03*
X482600D02*
D03*
X508000D02*
D03*
X533400D02*
D03*
X558800D02*
D03*
X584200D02*
D03*
X609600D02*
D03*
X635000Y25400D02*
D03*
X609600D02*
D03*
X584200D02*
D03*
X558800D02*
D03*
X533400D02*
D03*
X457200D02*
D03*
X431800D02*
D03*
X406400D02*
D03*
X381000D02*
D03*
X355600D02*
D03*
X330200D02*
D03*
X304800D02*
D03*
X595250Y201930D02*
D03*
X569850D02*
D03*
X544450D02*
D03*
X519050D02*
D03*
X493650D02*
D03*
X468250D02*
D03*
X442850D02*
D03*
X417450D02*
D03*
X392050D02*
D03*
X366650D02*
D03*
X341250D02*
D03*
X315850D02*
D03*
X290450D02*
D03*
X620650Y125730D02*
D03*
X595250D02*
D03*
X569850D02*
D03*
X544450D02*
D03*
X519050D02*
D03*
X493650D02*
D03*
X468250D02*
D03*
X442850D02*
D03*
X417450D02*
D03*
X392050D02*
D03*
X366650D02*
D03*
X341250D02*
D03*
X315850D02*
D03*
X290450D02*
D03*
D76*
X146000Y420600D02*
D03*
Y395200D02*
D03*
Y369800D02*
D03*
X662000Y443600D02*
D03*
Y418200D02*
D03*
D77*
X146000Y446000D02*
D03*
X662000Y469000D02*
D03*
D78*
X50000Y344000D02*
D03*
X25400Y386080D02*
D03*
Y472440D02*
D03*
D79*
X24600Y344000D02*
D03*
X50000Y318600D02*
D03*
X24600D02*
D03*
X76200Y411480D02*
D03*
X50800D02*
D03*
X25400D02*
D03*
X76200Y386080D02*
D03*
X50800D02*
D03*
Y472440D02*
D03*
X76200D02*
D03*
X25400Y497840D02*
D03*
X50800D02*
D03*
X76200D02*
D03*
D80*
X21995Y234000D02*
D03*
Y168000D02*
D03*
D81*
X21750Y23750D02*
D03*
Y138000D02*
D03*
D82*
X660400Y355600D02*
D03*
Y76200D02*
D03*
X139700Y25400D02*
D03*
D83*
X84000Y295000D02*
D03*
X79250Y250000D02*
D03*
X450738Y151748D02*
D03*
X162000Y141000D02*
D03*
X53500Y522250D02*
D03*
X682000Y126000D02*
D03*
X680000Y158750D02*
D03*
X669000Y160000D02*
D03*
X109000Y145000D02*
D03*
X117000Y153000D02*
D03*
X109000D02*
D03*
X101000D02*
D03*
X137000Y170000D02*
D03*
X124000Y172000D02*
D03*
X137000Y178000D02*
D03*
Y185000D02*
D03*
X404000Y486000D02*
D03*
X412690Y485667D02*
D03*
X403690Y477667D02*
D03*
X412690D02*
D03*
X413000Y391000D02*
D03*
X404000D02*
D03*
X413000Y399000D02*
D03*
X309000Y240000D02*
D03*
X580315Y384349D02*
D03*
X580063Y392359D02*
D03*
X615571Y72602D02*
D03*
X413000Y107000D02*
D03*
X418494Y64293D02*
D03*
X435000Y64000D02*
D03*
X319991Y77437D02*
D03*
X59000Y229000D02*
D03*
Y221505D02*
D03*
X117000Y405000D02*
D03*
Y414000D02*
D03*
X173000Y205000D02*
D03*
X165500Y208500D02*
D03*
X577000Y430000D02*
D03*
X606000Y183000D02*
D03*
X65000Y449000D02*
D03*
X124750Y193000D02*
D03*
X404310Y399333D02*
D03*
X441750Y219250D02*
D03*
X477250Y254500D02*
D03*
X392250D02*
D03*
X109500Y250000D02*
D03*
X153500Y237000D02*
D03*
X214000Y251000D02*
D03*
X193000Y211000D02*
D03*
X150000Y270750D02*
D03*
X240000Y203500D02*
D03*
X267750Y243000D02*
D03*
X183750Y288000D02*
D03*
X217000Y333500D02*
D03*
X270000Y345750D02*
D03*
X205500Y407500D02*
D03*
X189750Y407750D02*
D03*
X580000Y401000D02*
D03*
X629750Y183500D02*
D03*
Y175750D02*
D03*
X489000Y83000D02*
D03*
X468750Y109500D02*
D03*
X426500Y64000D02*
D03*
X410750Y85375D02*
D03*
X372750Y65500D02*
D03*
X305000Y86000D02*
D03*
X192250Y143500D02*
D03*
X233000Y135000D02*
D03*
X210000Y134500D02*
D03*
X78750Y226750D02*
D03*
X297250Y419250D02*
D03*
X225250Y440250D02*
D03*
X167750Y413750D02*
D03*
X124500Y410500D02*
D03*
X13000Y285750D02*
D03*
X155000Y133750D02*
D03*
X319710Y70758D02*
D03*
X459000Y44000D02*
D03*
X478250Y40500D02*
D03*
X615500Y62750D02*
D03*
X655250Y281500D02*
D03*
X133000Y270500D02*
D03*
X133023Y245500D02*
D03*
X89500Y323500D02*
D03*
X89750Y369000D02*
D03*
X100250Y273500D02*
D03*
X98000Y370000D02*
D03*
X243000Y180000D02*
D03*
X499000Y96000D02*
D03*
X205500Y211500D02*
D03*
X170854Y195625D02*
D03*
X88000Y108000D02*
D03*
Y124000D02*
D03*
X158500Y201750D02*
D03*
X116000Y215000D02*
D03*
X282000Y486000D02*
D03*
X580000Y419000D02*
D03*
X213000Y475000D02*
D03*
X218500Y407750D02*
D03*
X320000Y416000D02*
D03*
X554000D02*
D03*
X319500Y425500D02*
D03*
X565000Y430000D02*
D03*
X623250Y454000D02*
D03*
X316000Y259000D02*
D03*
X328750Y174000D02*
D03*
X304000Y173750D02*
D03*
M02*
