G04*
G04 #@! TF.GenerationSoftware,Altium Limited,Altium Designer,21.0.8 (223)*
G04*
G04 Layer_Physical_Order=2*
G04 Layer_Color=16711680*
%FSLAX44Y44*%
%MOMM*%
G71*
G04*
G04 #@! TF.SameCoordinates,CB068B56-A197-48A0-A871-B344E5AE3D22*
G04*
G04*
G04 #@! TF.FilePolarity,Positive*
G04*
G01*
G75*
%ADD10C,0.2000*%
%ADD11C,0.5000*%
%ADD12C,0.4000*%
%ADD24R,1.9000X1.9000*%
%ADD64R,1.9000X1.9000*%
%ADD65C,1.9000*%
%ADD70C,0.6000*%
%ADD71C,1.0000*%
%ADD73C,3.2000*%
%ADD74R,1.6000X2.0000*%
%ADD75O,1.6000X2.0000*%
%ADD76O,2.0000X1.6000*%
%ADD77R,2.0000X1.6000*%
%ADD78R,1.7000X1.7000*%
%ADD79C,1.7000*%
G04:AMPARAMS|DCode=80|XSize=2mm|YSize=1.2mm|CornerRadius=0.3mm|HoleSize=0mm|Usage=FLASHONLY|Rotation=0.000|XOffset=0mm|YOffset=0mm|HoleType=Round|Shape=RoundedRectangle|*
%AMROUNDEDRECTD80*
21,1,2.0000,0.6000,0,0,0.0*
21,1,1.4000,1.2000,0,0,0.0*
1,1,0.6000,0.7000,-0.3000*
1,1,0.6000,-0.7000,-0.3000*
1,1,0.6000,-0.7000,0.3000*
1,1,0.6000,0.7000,0.3000*
%
%ADD80ROUNDEDRECTD80*%
%ADD81C,4.0000*%
%ADD82C,7.4000*%
%ADD83C,0.6000*%
G36*
X683000Y476000D02*
X675000D01*
Y480000D01*
X649000D01*
Y476000D01*
X278000Y476000D01*
X250000Y504000D01*
X250000Y530000D01*
X683000D01*
Y476000D01*
D02*
G37*
G36*
X94000Y530000D02*
X95000Y529586D01*
Y461788D01*
X93827Y461302D01*
X86961Y468168D01*
X87700Y470926D01*
Y473954D01*
X86916Y476879D01*
X85402Y479501D01*
X83261Y481642D01*
X80639Y483156D01*
X77714Y483940D01*
X74686D01*
X71761Y483156D01*
X69139Y481642D01*
X66998Y479501D01*
X65484Y476879D01*
X64700Y473954D01*
Y470926D01*
X65484Y468001D01*
X66998Y465379D01*
X69139Y463238D01*
X71761Y461724D01*
X74686Y460940D01*
X77714D01*
X80472Y461679D01*
X95000Y447151D01*
Y392000D01*
X112000Y375000D01*
X133105D01*
X133810Y373944D01*
X133283Y372672D01*
X132905Y369800D01*
X133283Y366928D01*
X134391Y364253D01*
X136155Y361955D01*
X138453Y360191D01*
X141128Y359083D01*
X144000Y358705D01*
X148000D01*
X150872Y359083D01*
X153547Y360191D01*
X155845Y361955D01*
X157608Y364253D01*
X158717Y366928D01*
X159095Y369800D01*
X158717Y372672D01*
X158190Y373944D01*
X158895Y375000D01*
X183000D01*
Y377941D01*
X184170Y378174D01*
X185163Y378837D01*
X185826Y379829D01*
X186059Y381000D01*
Y409733D01*
X190267Y413941D01*
X211059D01*
X213000Y412000D01*
Y410151D01*
X212500Y408943D01*
Y406557D01*
X213000Y405349D01*
Y403000D01*
X214765D01*
X215101Y402663D01*
X217306Y401750D01*
X219694D01*
X221899Y402663D01*
X222235Y403000D01*
X388000D01*
X389412Y404412D01*
X558000D01*
X559756Y404761D01*
X560113Y405000D01*
X588181D01*
Y390181D01*
X585000Y387000D01*
X573000D01*
Y215841D01*
X571730Y214777D01*
X569850Y215025D01*
X566978Y214647D01*
X564302Y213538D01*
X562005Y211775D01*
X560242Y209478D01*
X559133Y206802D01*
X558755Y203930D01*
Y199930D01*
X559133Y197058D01*
X560242Y194382D01*
X562005Y192085D01*
X564302Y190322D01*
X566978Y189213D01*
X567378Y189161D01*
X568027Y188069D01*
X568000Y188000D01*
X580000Y176000D01*
X615000D01*
Y188930D01*
X631650D01*
X631662Y187665D01*
Y170630D01*
X603031Y142000D01*
X585000D01*
X583000Y140000D01*
Y114000D01*
X589996D01*
X592378Y113013D01*
X595250Y112635D01*
X598122Y113013D01*
X600504Y114000D01*
X615396D01*
X617778Y113013D01*
X620650Y112635D01*
X623522Y113013D01*
X625904Y114000D01*
X632000D01*
Y131000D01*
X633000Y132000D01*
X684000D01*
Y3000D01*
X622059D01*
Y15605D01*
X622039Y15705D01*
X622052Y15805D01*
X621923Y16287D01*
X621826Y16776D01*
X621770Y16860D01*
X621743Y16958D01*
X621440Y17354D01*
X621163Y17768D01*
X621078Y17825D01*
X621017Y17905D01*
X621000Y17915D01*
Y32885D01*
X621017Y32895D01*
X621078Y32975D01*
X621163Y33032D01*
X621440Y33446D01*
X621743Y33842D01*
X621770Y33940D01*
X621826Y34024D01*
X621923Y34513D01*
X622052Y34995D01*
X622039Y35095D01*
X622059Y35195D01*
Y76341D01*
X621911Y77085D01*
X621826Y77511D01*
X621163Y78503D01*
X621000Y78612D01*
Y83000D01*
X620000Y84000D01*
X615059Y79059D01*
X530000D01*
X529705Y79000D01*
X528000D01*
Y78272D01*
X527837Y78163D01*
X527174Y77171D01*
X526941Y76000D01*
Y56000D01*
X524326D01*
X524163Y56163D01*
X523171Y56826D01*
X522000Y57059D01*
X522000Y57059D01*
X377848D01*
X377826Y57171D01*
X377163Y58163D01*
X373623Y61703D01*
X372631Y62366D01*
X371084Y63007D01*
X370257Y63834D01*
X369616Y65381D01*
X368953Y66373D01*
X352163Y83163D01*
X351171Y83826D01*
X350000Y84059D01*
X350000Y84059D01*
X308485D01*
X307315Y83826D01*
X307115Y83693D01*
X305585Y83059D01*
X304415D01*
X303334Y83507D01*
X302507Y84334D01*
X302396Y84600D01*
X302000Y85193D01*
Y86000D01*
X263000Y125000D01*
Y130000D01*
X257326D01*
X254163Y133163D01*
X253171Y133826D01*
X252000Y134059D01*
X252000Y134059D01*
X237485D01*
X237485Y134059D01*
X236315Y133826D01*
X235322Y133163D01*
X235322Y133163D01*
X234666Y132507D01*
X233585Y132059D01*
X232415D01*
X231334Y132507D01*
X230678Y133163D01*
X229685Y133826D01*
X228515Y134059D01*
X228515Y134059D01*
X214985D01*
X214985Y134059D01*
X213815Y133826D01*
X212822Y133163D01*
X212822Y133163D01*
X211666Y132007D01*
X210585Y131559D01*
X209415D01*
X208334Y132007D01*
X207178Y133163D01*
X206185Y133826D01*
X205015Y134059D01*
X205015Y134059D01*
X199941D01*
X199000Y135000D01*
X162059D01*
Y135748D01*
X161826Y136919D01*
X161427Y137515D01*
X161163Y137911D01*
X160459Y138382D01*
X159382Y139459D01*
X158911Y140163D01*
X158416Y140494D01*
X157919Y140826D01*
X156748Y141059D01*
X98059D01*
Y163000D01*
X98000Y163295D01*
Y164000D01*
X97776Y164245D01*
X97533Y164609D01*
X97261Y165060D01*
X77333Y186932D01*
X77059Y188303D01*
Y223015D01*
X76826Y224185D01*
X76307Y224962D01*
X76167Y225299D01*
X76108Y228056D01*
X76307Y228538D01*
X76826Y229315D01*
X77059Y230485D01*
X77059Y230485D01*
Y232000D01*
X76826Y233171D01*
X76163Y234163D01*
X75170Y234826D01*
X74000Y235059D01*
X56059D01*
Y306455D01*
X56019Y306653D01*
X56033Y306854D01*
X55904Y307233D01*
X55826Y307626D01*
X56108Y308624D01*
X56382Y309005D01*
X57061Y309398D01*
X59202Y311539D01*
X60716Y314161D01*
X61500Y317086D01*
Y320114D01*
X60716Y323039D01*
X59202Y325661D01*
X57061Y327802D01*
X56382Y328195D01*
X56108Y328576D01*
X55826Y329574D01*
X55904Y329967D01*
X56033Y330346D01*
X56019Y330547D01*
X56059Y330745D01*
Y332500D01*
X61500D01*
Y355500D01*
X56059D01*
Y374054D01*
X56019Y374252D01*
X56033Y374453D01*
X55904Y374832D01*
X55826Y375224D01*
X56649Y376178D01*
X57861Y376878D01*
X60002Y379019D01*
X61516Y381641D01*
X62300Y384566D01*
Y387594D01*
X61516Y390519D01*
X60002Y393141D01*
X57861Y395282D01*
X56649Y395982D01*
X55826Y396936D01*
X55904Y397328D01*
X56033Y397707D01*
X56019Y397909D01*
X56059Y398106D01*
Y399454D01*
X56019Y399651D01*
X56033Y399853D01*
X55904Y400232D01*
X55826Y400624D01*
X56649Y401578D01*
X57861Y402278D01*
X60002Y404419D01*
X61516Y407041D01*
X62300Y409966D01*
Y412994D01*
X61516Y415919D01*
X60002Y418541D01*
X57861Y420682D01*
X56649Y421382D01*
X55826Y422336D01*
X55904Y422728D01*
X56033Y423107D01*
X56019Y423308D01*
X56059Y423506D01*
Y460414D01*
X56019Y460611D01*
X56033Y460813D01*
X55904Y461192D01*
X55826Y461584D01*
X56649Y462538D01*
X57861Y463238D01*
X60002Y465379D01*
X61516Y468001D01*
X62300Y470926D01*
Y473954D01*
X61516Y476879D01*
X60002Y479501D01*
X57861Y481642D01*
X56649Y482342D01*
X55826Y483296D01*
X55904Y483688D01*
X56033Y484067D01*
X56019Y484268D01*
X56059Y484466D01*
Y485814D01*
X56019Y486012D01*
X56033Y486213D01*
X55904Y486592D01*
X55826Y486984D01*
X56649Y487938D01*
X57861Y488638D01*
X60002Y490779D01*
X61516Y493401D01*
X62300Y496326D01*
Y499354D01*
X61516Y502279D01*
X60002Y504901D01*
X57861Y507042D01*
X55535Y508386D01*
Y510535D01*
X57000Y512000D01*
X45085D01*
X44989Y512033D01*
X44788Y512019D01*
X44590Y512059D01*
X3000D01*
Y530000D01*
X94000D01*
D02*
G37*
G36*
X238506Y436006D02*
X239000Y435675D01*
Y430000D01*
X307000D01*
X307421Y429579D01*
Y414773D01*
X282227D01*
X280000Y417000D01*
X189000D01*
X183000Y411000D01*
Y381000D01*
X126000D01*
Y389000D01*
X105000D01*
Y434000D01*
X160000D01*
Y448000D01*
X226511D01*
X238506Y436006D01*
D02*
G37*
G36*
X44930Y507730D02*
X43739Y507042D01*
X41598Y504901D01*
X40084Y502279D01*
X39300Y499354D01*
Y496326D01*
X40084Y493401D01*
X41598Y490779D01*
X43739Y488638D01*
X46361Y487124D01*
X49286Y486340D01*
X52314D01*
X53000Y485814D01*
Y484466D01*
X52314Y483940D01*
X49286D01*
X46361Y483156D01*
X43739Y481642D01*
X41598Y479501D01*
X40084Y476879D01*
X39300Y473954D01*
Y470926D01*
X40084Y468001D01*
X41598Y465379D01*
X43739Y463238D01*
X46361Y461724D01*
X49286Y460940D01*
X52314D01*
X53000Y460414D01*
Y423506D01*
X52314Y422980D01*
X49286D01*
X46361Y422196D01*
X43739Y420682D01*
X41598Y418541D01*
X40084Y415919D01*
X39300Y412994D01*
Y409966D01*
X40084Y407041D01*
X41598Y404419D01*
X43739Y402278D01*
X46361Y400764D01*
X49286Y399980D01*
X52314D01*
X53000Y399454D01*
Y398106D01*
X52314Y397580D01*
X49286D01*
X46361Y396796D01*
X43739Y395282D01*
X41598Y393141D01*
X40084Y390519D01*
X39300Y387594D01*
Y384566D01*
X40084Y381641D01*
X41598Y379019D01*
X43739Y376878D01*
X46361Y375364D01*
X49286Y374580D01*
X52314D01*
X53000Y374054D01*
Y355500D01*
X38500D01*
Y332500D01*
X53000D01*
Y330745D01*
X51992Y329972D01*
X51514Y330100D01*
X48486D01*
X45561Y329316D01*
X42939Y327802D01*
X40798Y325661D01*
X39284Y323039D01*
X38500Y320114D01*
Y317086D01*
X39284Y314161D01*
X40798Y311539D01*
X42939Y309398D01*
X45561Y307884D01*
X48486Y307100D01*
X51514D01*
X51992Y307228D01*
X53000Y306455D01*
Y233420D01*
X52833Y233171D01*
X52347Y231997D01*
X52115Y230827D01*
X52263Y230083D01*
X52347Y229656D01*
X52941Y228767D01*
Y167000D01*
X53174Y165830D01*
X53837Y164837D01*
X53837Y164837D01*
X65837Y152837D01*
X66829Y152174D01*
X68000Y151941D01*
X68000Y151941D01*
X68059D01*
X70941Y149059D01*
Y137000D01*
X71000Y136705D01*
Y134000D01*
X73705D01*
X74000Y133941D01*
X75059D01*
X81941Y127059D01*
Y104000D01*
X82174Y102830D01*
X82837Y101837D01*
X83829Y101174D01*
X85000Y100941D01*
X94000D01*
X94000Y100941D01*
X95170Y101174D01*
X96163Y101837D01*
X96163Y101837D01*
X96326Y102000D01*
X97000D01*
X98000Y103000D01*
Y104705D01*
X98059Y105000D01*
X98059Y105000D01*
Y138000D01*
X156748D01*
X156913Y137601D01*
X158601Y135913D01*
X159000Y135748D01*
Y131000D01*
X205015D01*
X206601Y129413D01*
X208806Y128500D01*
X211194D01*
X213399Y129413D01*
X214985Y131000D01*
X228515D01*
X229601Y129914D01*
X231807Y129000D01*
X234193D01*
X236399Y129914D01*
X237485Y131000D01*
X252000D01*
X299570Y83430D01*
X299913Y82601D01*
X301601Y80913D01*
X303806Y80000D01*
X306194D01*
X308399Y80913D01*
X308485Y81000D01*
X350000D01*
X366790Y64210D01*
X367663Y62101D01*
X369351Y60413D01*
X371460Y59540D01*
X375000Y56000D01*
Y54000D01*
X522000D01*
X527000Y49000D01*
X530000Y52000D01*
Y76000D01*
X617000D01*
X617827Y76827D01*
X619000Y76341D01*
Y35195D01*
X617797Y34786D01*
X617445Y35245D01*
X615148Y37009D01*
X612472Y38117D01*
X609600Y38495D01*
X606728Y38117D01*
X604053Y37009D01*
X601755Y35245D01*
X599991Y32947D01*
X598883Y30272D01*
X598505Y27400D01*
Y23400D01*
X598883Y20528D01*
X599991Y17852D01*
X601755Y15555D01*
X604053Y13792D01*
X606728Y12683D01*
X609600Y12305D01*
X612472Y12683D01*
X615148Y13792D01*
X617445Y15555D01*
X617797Y16014D01*
X619000Y15605D01*
Y3000D01*
X397059D01*
Y15529D01*
X398261Y15937D01*
X398555Y15555D01*
X400853Y13792D01*
X403528Y12683D01*
X406400Y12305D01*
X409272Y12683D01*
X411948Y13792D01*
X414245Y15555D01*
X416008Y17852D01*
X417117Y20528D01*
X417495Y23400D01*
Y27400D01*
X417117Y30272D01*
X416008Y32947D01*
X414245Y35245D01*
X411948Y37009D01*
X409272Y38117D01*
X406400Y38495D01*
X403528Y38117D01*
X400853Y37009D01*
X398555Y35245D01*
X398261Y34863D01*
X397059Y35271D01*
Y38000D01*
X396826Y39170D01*
X396163Y40163D01*
X396000Y40272D01*
Y41000D01*
X394296D01*
X394000Y41059D01*
X368059D01*
Y47102D01*
X367826Y48273D01*
X367163Y49265D01*
X367163Y49265D01*
X367000Y49428D01*
Y51000D01*
X364398D01*
X364102Y51059D01*
X364102Y51059D01*
X352941Y51059D01*
X345000Y59000D01*
Y66000D01*
X337326D01*
X335163Y68163D01*
X335163Y68163D01*
X334170Y68826D01*
X333000Y69059D01*
X333000Y69059D01*
X323438D01*
X322267Y68826D01*
X321509Y68319D01*
X320295Y67817D01*
X319125D01*
X317912Y68319D01*
X317153Y68826D01*
X315983Y69059D01*
X315983Y69059D01*
X270267Y69059D01*
X269163Y70163D01*
X268171Y70826D01*
X267000Y71059D01*
X267000Y71059D01*
X255000D01*
Y92000D01*
X229059D01*
Y97000D01*
X229059Y97000D01*
X228826Y98170D01*
X228163Y99163D01*
X228163Y99163D01*
X228000Y99326D01*
Y107000D01*
X222059Y112941D01*
Y113000D01*
X221826Y114171D01*
X221163Y115163D01*
X220170Y115826D01*
X219000Y116059D01*
X167000D01*
X167000Y116059D01*
X166704Y116000D01*
X165000D01*
X155000Y106000D01*
Y104296D01*
X154941Y104000D01*
X154941Y104000D01*
Y78059D01*
X142321D01*
X142123Y78019D01*
X141921Y78033D01*
X141600Y77990D01*
X141279Y78033D01*
X141077Y78019D01*
X140879Y78059D01*
X128059Y78059D01*
X128059Y98000D01*
X127826Y99171D01*
X127200Y100107D01*
Y101000D01*
X125295D01*
X125000Y101059D01*
X108000Y101059D01*
X107704Y101000D01*
X105200D01*
Y99526D01*
X70674Y65000D01*
X4000D01*
X3000Y65796D01*
Y122427D01*
X4270Y122953D01*
X7088Y120135D01*
X10855Y117618D01*
X15041Y115884D01*
X19485Y115000D01*
X24015D01*
X28459Y115884D01*
X32645Y117618D01*
X36412Y120135D01*
X39615Y123338D01*
X42132Y127105D01*
X43866Y131291D01*
X44750Y135735D01*
Y140265D01*
X43866Y144709D01*
X42132Y148895D01*
X39615Y152662D01*
X36412Y155865D01*
X32645Y158382D01*
X32356Y158502D01*
X32215Y159935D01*
X33321Y160674D01*
X34647Y162659D01*
X35113Y165000D01*
Y171000D01*
X34647Y173341D01*
X33321Y175326D01*
X31336Y176652D01*
X28995Y177118D01*
X14995D01*
X12654Y176652D01*
X10669Y175326D01*
X9343Y173341D01*
X8878Y171000D01*
Y165000D01*
X9343Y162659D01*
X10669Y160674D01*
X11588Y160060D01*
X11447Y158627D01*
X10855Y158382D01*
X7088Y155865D01*
X4270Y153047D01*
X3000Y153573D01*
Y509000D01*
X44590D01*
X44930Y507730D01*
D02*
G37*
G36*
X74000Y230485D02*
X73664Y230149D01*
X72750Y227943D01*
Y225557D01*
X73664Y223351D01*
X74000Y223015D01*
Y188000D01*
X74500Y185500D01*
X95000Y163000D01*
Y105000D01*
X94000Y104000D01*
X85000D01*
Y128000D01*
X86000Y129000D01*
X78000Y137000D01*
X74000D01*
Y152000D01*
X71000Y155000D01*
X68000Y155000D01*
X56000Y167000D01*
Y230000D01*
X55173Y230827D01*
X55659Y232000D01*
X74000D01*
Y230485D01*
D02*
G37*
G36*
X219000Y104000D02*
X226000Y97000D01*
Y68000D01*
X229000D01*
Y67000D01*
X254000D01*
Y68000D01*
X267000D01*
X269000Y66000D01*
X315983Y66000D01*
X316312Y65671D01*
X318517Y64758D01*
X320904D01*
X323109Y65671D01*
X323438Y66000D01*
X333000D01*
X351000Y48000D01*
X364102Y48000D01*
X365000Y47102D01*
Y38295D01*
X364941Y38000D01*
Y16059D01*
X359237D01*
X358066Y15826D01*
X357673Y15663D01*
X355600Y15390D01*
X353527Y15663D01*
X353134Y15826D01*
X351963Y16059D01*
X346000D01*
Y31000D01*
X345000D01*
X336000Y40000D01*
X274000D01*
Y44000D01*
X272819Y45181D01*
X272163Y46163D01*
X272163Y46163D01*
X269163Y49163D01*
X268181Y49819D01*
X268000Y50000D01*
X267296D01*
X267000Y50059D01*
X267000Y50059D01*
X212941D01*
X197173Y65827D01*
X197659Y67000D01*
X198146D01*
X201325Y67852D01*
X204175Y69497D01*
X206502Y71825D01*
X208148Y74675D01*
X209000Y77854D01*
Y81146D01*
X208148Y84325D01*
X206502Y87175D01*
X204175Y89502D01*
X201325Y91148D01*
X198146Y92000D01*
X194854D01*
X191675Y91148D01*
X188825Y89502D01*
X186497Y87175D01*
X184852Y84325D01*
X184000Y81146D01*
Y78086D01*
X183842Y77912D01*
X183470Y77653D01*
X182807Y77401D01*
X182171Y77826D01*
X181000Y78059D01*
X181000Y78059D01*
X167721D01*
X167523Y78019D01*
X167322Y78033D01*
X167000Y77990D01*
X166678Y78033D01*
X166477Y78019D01*
X166279Y78059D01*
X158000D01*
Y104000D01*
X167000Y113000D01*
X219000D01*
Y104000D01*
D02*
G37*
G36*
X125000Y98000D02*
X125000Y75000D01*
X140879Y75000D01*
X141600Y74905D01*
X142321Y75000D01*
X166279D01*
X167000Y74905D01*
X167721Y75000D01*
X181000D01*
X209000Y47000D01*
X267000D01*
X270000Y44000D01*
Y38400D01*
X268400D01*
Y12400D01*
X290400D01*
Y13000D01*
X301163D01*
X301928Y12683D01*
X304800Y12305D01*
X307672Y12683D01*
X308437Y13000D01*
X326563D01*
X327328Y12683D01*
X330200Y12305D01*
X333072Y12683D01*
X333837Y13000D01*
X351963D01*
X352728Y12683D01*
X355600Y12305D01*
X358472Y12683D01*
X359237Y13000D01*
X367000D01*
X368000Y14000D01*
Y38000D01*
X394000D01*
Y3000D01*
X249035D01*
X248706Y4227D01*
X249175Y4498D01*
X251502Y6825D01*
X253148Y9675D01*
X254000Y12854D01*
Y16146D01*
X253148Y19325D01*
X251502Y22175D01*
X249175Y24502D01*
X246325Y26148D01*
X243146Y27000D01*
X239854D01*
X236675Y26148D01*
X233825Y24502D01*
X231497Y22175D01*
X229852Y19325D01*
X229000Y16146D01*
Y12854D01*
X229852Y9675D01*
X231497Y6825D01*
X233825Y4498D01*
X234294Y4227D01*
X233965Y3000D01*
X204035D01*
X203706Y4227D01*
X204175Y4498D01*
X206502Y6825D01*
X208148Y9675D01*
X209000Y12854D01*
Y16146D01*
X208148Y19325D01*
X206502Y22175D01*
X204175Y24502D01*
X201325Y26148D01*
X198146Y27000D01*
X194854D01*
X191675Y26148D01*
X188825Y24502D01*
X186497Y22175D01*
X184852Y19325D01*
X184000Y16146D01*
Y12854D01*
X184852Y9675D01*
X186497Y6825D01*
X188825Y4498D01*
X189294Y4227D01*
X188965Y3000D01*
X174267D01*
X173690Y4132D01*
X173911Y4435D01*
X176770Y10045D01*
X178715Y16033D01*
X179700Y22252D01*
Y28548D01*
X178715Y34767D01*
X176770Y40755D01*
X173911Y46365D01*
X170210Y51458D01*
X165758Y55910D01*
X160665Y59611D01*
X155055Y62470D01*
X149067Y64415D01*
X142848Y65400D01*
X136552D01*
X130333Y64415D01*
X124345Y62470D01*
X118735Y59611D01*
X113642Y55910D01*
X109190Y51458D01*
X105489Y46365D01*
X102631Y40755D01*
X100685Y34767D01*
X99700Y28548D01*
Y22252D01*
X100685Y16033D01*
X102631Y10045D01*
X105489Y4435D01*
X105710Y4132D01*
X105133Y3000D01*
X3000D01*
Y61000D01*
X71000Y61000D01*
X108000Y98000D01*
X125000Y98000D01*
D02*
G37*
%LPC*%
G36*
X646000Y521000D02*
X624000D01*
Y495000D01*
X646000D01*
Y521000D01*
D02*
G37*
G36*
X427560D02*
X405560D01*
Y495000D01*
X427560D01*
Y521000D01*
D02*
G37*
G36*
X609600Y521095D02*
X606728Y520717D01*
X604053Y519608D01*
X601755Y517845D01*
X599991Y515547D01*
X598883Y512872D01*
X598505Y510000D01*
Y506000D01*
X598883Y503128D01*
X599991Y500452D01*
X601755Y498155D01*
X604053Y496391D01*
X606728Y495283D01*
X609600Y494905D01*
X612472Y495283D01*
X615148Y496391D01*
X617445Y498155D01*
X619208Y500452D01*
X620317Y503128D01*
X620695Y506000D01*
Y510000D01*
X620317Y512872D01*
X619208Y515547D01*
X617445Y517845D01*
X615148Y519608D01*
X612472Y520717D01*
X609600Y521095D01*
D02*
G37*
G36*
X584200D02*
X581328Y520717D01*
X578652Y519608D01*
X576355Y517845D01*
X574591Y515547D01*
X573483Y512872D01*
X573105Y510000D01*
Y506000D01*
X573483Y503128D01*
X574591Y500452D01*
X576355Y498155D01*
X578652Y496391D01*
X581328Y495283D01*
X584200Y494905D01*
X587072Y495283D01*
X589748Y496391D01*
X592045Y498155D01*
X593809Y500452D01*
X594917Y503128D01*
X595295Y506000D01*
Y510000D01*
X594917Y512872D01*
X593809Y515547D01*
X592045Y517845D01*
X589748Y519608D01*
X587072Y520717D01*
X584200Y521095D01*
D02*
G37*
G36*
X558800D02*
X555928Y520717D01*
X553252Y519608D01*
X550955Y517845D01*
X549192Y515547D01*
X548083Y512872D01*
X547705Y510000D01*
Y506000D01*
X548083Y503128D01*
X549192Y500452D01*
X550955Y498155D01*
X553252Y496391D01*
X555928Y495283D01*
X558800Y494905D01*
X561672Y495283D01*
X564347Y496391D01*
X566645Y498155D01*
X568409Y500452D01*
X569517Y503128D01*
X569895Y506000D01*
Y510000D01*
X569517Y512872D01*
X568409Y515547D01*
X566645Y517845D01*
X564347Y519608D01*
X561672Y520717D01*
X558800Y521095D01*
D02*
G37*
G36*
X533400D02*
X530528Y520717D01*
X527853Y519608D01*
X525555Y517845D01*
X523792Y515547D01*
X522683Y512872D01*
X522305Y510000D01*
Y506000D01*
X522683Y503128D01*
X523792Y500452D01*
X525555Y498155D01*
X527853Y496391D01*
X530528Y495283D01*
X533400Y494905D01*
X536272Y495283D01*
X538947Y496391D01*
X541245Y498155D01*
X543008Y500452D01*
X544117Y503128D01*
X544495Y506000D01*
Y510000D01*
X544117Y512872D01*
X543008Y515547D01*
X541245Y517845D01*
X538947Y519608D01*
X536272Y520717D01*
X533400Y521095D01*
D02*
G37*
G36*
X508000D02*
X505128Y520717D01*
X502453Y519608D01*
X500155Y517845D01*
X498391Y515547D01*
X497283Y512872D01*
X496905Y510000D01*
Y506000D01*
X497283Y503128D01*
X498391Y500452D01*
X500155Y498155D01*
X502453Y496391D01*
X505128Y495283D01*
X508000Y494905D01*
X510872Y495283D01*
X513548Y496391D01*
X515845Y498155D01*
X517608Y500452D01*
X518717Y503128D01*
X519095Y506000D01*
Y510000D01*
X518717Y512872D01*
X517608Y515547D01*
X515845Y517845D01*
X513548Y519608D01*
X510872Y520717D01*
X508000Y521095D01*
D02*
G37*
G36*
X482600D02*
X479728Y520717D01*
X477052Y519608D01*
X474755Y517845D01*
X472991Y515547D01*
X471883Y512872D01*
X471505Y510000D01*
Y506000D01*
X471883Y503128D01*
X472991Y500452D01*
X474755Y498155D01*
X477052Y496391D01*
X479728Y495283D01*
X482600Y494905D01*
X485472Y495283D01*
X488148Y496391D01*
X490445Y498155D01*
X492209Y500452D01*
X493317Y503128D01*
X493695Y506000D01*
Y510000D01*
X493317Y512872D01*
X492209Y515547D01*
X490445Y517845D01*
X488148Y519608D01*
X485472Y520717D01*
X482600Y521095D01*
D02*
G37*
G36*
X457200D02*
X454328Y520717D01*
X451652Y519608D01*
X449355Y517845D01*
X447592Y515547D01*
X446483Y512872D01*
X446105Y510000D01*
Y506000D01*
X446483Y503128D01*
X447592Y500452D01*
X449355Y498155D01*
X451652Y496391D01*
X454328Y495283D01*
X457200Y494905D01*
X460072Y495283D01*
X462747Y496391D01*
X465045Y498155D01*
X466809Y500452D01*
X467917Y503128D01*
X468295Y506000D01*
Y510000D01*
X467917Y512872D01*
X466809Y515547D01*
X465045Y517845D01*
X462747Y519608D01*
X460072Y520717D01*
X457200Y521095D01*
D02*
G37*
G36*
X391160D02*
X388288Y520717D01*
X385612Y519608D01*
X383315Y517845D01*
X381552Y515547D01*
X380443Y512872D01*
X380065Y510000D01*
Y506000D01*
X380443Y503128D01*
X381552Y500452D01*
X383315Y498155D01*
X385612Y496391D01*
X388288Y495283D01*
X391160Y494905D01*
X394032Y495283D01*
X396707Y496391D01*
X399005Y498155D01*
X400769Y500452D01*
X401877Y503128D01*
X402255Y506000D01*
Y510000D01*
X401877Y512872D01*
X400769Y515547D01*
X399005Y517845D01*
X396707Y519608D01*
X394032Y520717D01*
X391160Y521095D01*
D02*
G37*
G36*
X365760D02*
X362888Y520717D01*
X360213Y519608D01*
X357915Y517845D01*
X356152Y515547D01*
X355043Y512872D01*
X354665Y510000D01*
Y506000D01*
X355043Y503128D01*
X356152Y500452D01*
X357915Y498155D01*
X360213Y496391D01*
X362888Y495283D01*
X365760Y494905D01*
X368632Y495283D01*
X371307Y496391D01*
X373605Y498155D01*
X375368Y500452D01*
X376477Y503128D01*
X376855Y506000D01*
Y510000D01*
X376477Y512872D01*
X375368Y515547D01*
X373605Y517845D01*
X371307Y519608D01*
X368632Y520717D01*
X365760Y521095D01*
D02*
G37*
G36*
X340360D02*
X337488Y520717D01*
X334813Y519608D01*
X332515Y517845D01*
X330751Y515547D01*
X329643Y512872D01*
X329265Y510000D01*
Y506000D01*
X329643Y503128D01*
X330751Y500452D01*
X332515Y498155D01*
X334813Y496391D01*
X337488Y495283D01*
X340360Y494905D01*
X343232Y495283D01*
X345908Y496391D01*
X348205Y498155D01*
X349968Y500452D01*
X351077Y503128D01*
X351455Y506000D01*
Y510000D01*
X351077Y512872D01*
X349968Y515547D01*
X348205Y517845D01*
X345908Y519608D01*
X343232Y520717D01*
X340360Y521095D01*
D02*
G37*
G36*
X314960D02*
X312088Y520717D01*
X309412Y519608D01*
X307115Y517845D01*
X305352Y515547D01*
X304243Y512872D01*
X303865Y510000D01*
Y506000D01*
X304243Y503128D01*
X304641Y502169D01*
X293060Y490588D01*
X285897D01*
X285399Y491087D01*
X283193Y492000D01*
X280807D01*
X278601Y491087D01*
X276913Y489399D01*
X276000Y487193D01*
Y484807D01*
X276913Y482601D01*
X278601Y480913D01*
X280807Y480000D01*
X283193D01*
X285399Y480913D01*
X285897Y481412D01*
X294960D01*
X296716Y481761D01*
X298204Y482756D01*
X311129Y495681D01*
X312088Y495283D01*
X314960Y494905D01*
X317832Y495283D01*
X320508Y496391D01*
X322805Y498155D01*
X324568Y500452D01*
X325677Y503128D01*
X326055Y506000D01*
Y510000D01*
X325677Y512872D01*
X324568Y515547D01*
X322805Y517845D01*
X320508Y519608D01*
X317832Y520717D01*
X314960Y521095D01*
D02*
G37*
G36*
X289560D02*
X286688Y520717D01*
X284013Y519608D01*
X281715Y517845D01*
X279951Y515547D01*
X278843Y512872D01*
X278465Y510000D01*
Y506000D01*
X278843Y503128D01*
X279951Y500452D01*
X281715Y498155D01*
X284013Y496391D01*
X286688Y495283D01*
X289560Y494905D01*
X292432Y495283D01*
X295107Y496391D01*
X297405Y498155D01*
X299168Y500452D01*
X300277Y503128D01*
X300655Y506000D01*
Y510000D01*
X300277Y512872D01*
X299168Y515547D01*
X297405Y517845D01*
X295107Y519608D01*
X292432Y520717D01*
X289560Y521095D01*
D02*
G37*
G36*
X77714Y397580D02*
X74686D01*
X71761Y396796D01*
X69139Y395282D01*
X66998Y393141D01*
X65484Y390519D01*
X64700Y387594D01*
Y384566D01*
X65484Y381641D01*
X66998Y379019D01*
X69139Y376878D01*
X71761Y375364D01*
X74686Y374580D01*
X77714D01*
X80639Y375364D01*
X83261Y376878D01*
X85402Y379019D01*
X86916Y381641D01*
X87700Y384566D01*
Y387594D01*
X86916Y390519D01*
X85402Y393141D01*
X83261Y395282D01*
X80639Y396796D01*
X77714Y397580D01*
D02*
G37*
G36*
X99193Y376000D02*
X96806D01*
X94601Y375087D01*
X93375Y373860D01*
X93149Y374087D01*
X90943Y375000D01*
X88556D01*
X86351Y374087D01*
X84663Y372399D01*
X83750Y370193D01*
Y367807D01*
X84663Y365601D01*
X84912Y365353D01*
Y327397D01*
X84413Y326899D01*
X83500Y324693D01*
Y322307D01*
X84413Y320101D01*
X86101Y318413D01*
X88307Y317500D01*
X90694D01*
X92142Y318100D01*
X93412Y317267D01*
Y275750D01*
X93761Y273994D01*
X94250Y273263D01*
Y272306D01*
X95163Y270101D01*
X96851Y268414D01*
X99057Y267500D01*
X101444D01*
X103649Y268414D01*
X105337Y270101D01*
X106250Y272306D01*
Y274694D01*
X105337Y276899D01*
X103649Y278587D01*
X102588Y279026D01*
Y366103D01*
X103087Y366601D01*
X104000Y368806D01*
Y371194D01*
X103087Y373399D01*
X101399Y375087D01*
X99193Y376000D01*
D02*
G37*
G36*
X134193Y276500D02*
X131806D01*
X129601Y275586D01*
X127913Y273899D01*
X127000Y271693D01*
Y269307D01*
X127913Y267101D01*
X128152Y266863D01*
Y249114D01*
X127937Y248899D01*
X127023Y246693D01*
Y244307D01*
X127937Y242101D01*
X129625Y240413D01*
X131830Y239500D01*
X134217D01*
X136422Y240413D01*
X138110Y242101D01*
X139023Y244307D01*
Y246693D01*
X138348Y248324D01*
Y267732D01*
X139000Y269307D01*
Y271693D01*
X138087Y273899D01*
X136399Y275586D01*
X134193Y276500D01*
D02*
G37*
G36*
X317194Y265000D02*
X314806D01*
X312601Y264086D01*
X310913Y262399D01*
X310000Y260194D01*
Y257806D01*
X310913Y255601D01*
X312601Y253913D01*
X314806Y253000D01*
X315511D01*
X317162Y251350D01*
Y222094D01*
X317511Y220338D01*
X318506Y218850D01*
X323331Y214024D01*
X323277Y213697D01*
X321900Y213153D01*
X321398Y213538D01*
X318722Y214647D01*
X315850Y215025D01*
X312978Y214647D01*
X310303Y213538D01*
X309727Y213097D01*
X308588Y213659D01*
Y232493D01*
X310095Y234000D01*
X310194D01*
X312399Y234913D01*
X314086Y236601D01*
X315000Y238806D01*
Y241194D01*
X314086Y243399D01*
X312399Y245087D01*
X310194Y246000D01*
X307806D01*
X305601Y245087D01*
X303913Y243399D01*
X303000Y241194D01*
Y239882D01*
X300756Y237638D01*
X299761Y236149D01*
X299412Y234393D01*
Y212188D01*
X298142Y211893D01*
X295998Y213538D01*
X293322Y214647D01*
X290450Y215025D01*
X287578Y214647D01*
X284902Y213538D01*
X282605Y211775D01*
X280842Y209478D01*
X279733Y206802D01*
X279355Y203930D01*
Y199930D01*
X279733Y197058D01*
X280131Y196099D01*
X268619Y184588D01*
X246897D01*
X246399Y185086D01*
X244193Y186000D01*
X241807D01*
X239601Y185086D01*
X237913Y183399D01*
X237000Y181194D01*
Y178806D01*
X237913Y176601D01*
X239601Y174913D01*
X241807Y174000D01*
X244193D01*
X246399Y174913D01*
X246897Y175412D01*
X270520D01*
X272276Y175761D01*
X273764Y176756D01*
X286619Y189611D01*
X287578Y189213D01*
X290450Y188835D01*
X293322Y189213D01*
X295998Y190322D01*
X298142Y191967D01*
X299412Y191672D01*
Y177647D01*
X298913Y177149D01*
X298000Y174944D01*
Y172556D01*
X298913Y170351D01*
X300601Y168663D01*
X302806Y167750D01*
X305194D01*
X307399Y168663D01*
X309087Y170351D01*
X310000Y172556D01*
Y174944D01*
X309087Y177149D01*
X308588Y177647D01*
Y190201D01*
X309727Y190763D01*
X310303Y190322D01*
X312978Y189213D01*
X315850Y188835D01*
X318722Y189213D01*
X321398Y190322D01*
X322892Y191468D01*
X324162Y190842D01*
Y177897D01*
X323663Y177399D01*
X322750Y175194D01*
Y172806D01*
X323663Y170601D01*
X325351Y168913D01*
X327556Y168000D01*
X329944D01*
X332149Y168913D01*
X333837Y170601D01*
X334750Y172806D01*
Y175194D01*
X333837Y177399D01*
X333338Y177897D01*
Y190535D01*
X334608Y191161D01*
X335703Y190322D01*
X338378Y189213D01*
X341250Y188835D01*
X344122Y189213D01*
X346797Y190322D01*
X349095Y192085D01*
X350858Y194382D01*
X351967Y197058D01*
X352345Y199930D01*
Y203930D01*
X351967Y206802D01*
X350858Y209478D01*
X349095Y211775D01*
X346797Y213538D01*
X344122Y214647D01*
X341250Y215025D01*
X338378Y214647D01*
X335703Y213538D01*
X334608Y212699D01*
X333338Y213325D01*
Y215094D01*
X332989Y216850D01*
X331994Y218338D01*
X326338Y223995D01*
Y253250D01*
X325989Y255006D01*
X324994Y256494D01*
X322000Y259489D01*
Y260194D01*
X321087Y262399D01*
X319399Y264086D01*
X317194Y265000D01*
D02*
G37*
G36*
X117193Y221000D02*
X114806D01*
X112601Y220087D01*
X110913Y218399D01*
X110000Y216194D01*
Y213806D01*
X110913Y211601D01*
X112601Y209913D01*
X114806Y209000D01*
X115511D01*
X119256Y205256D01*
X120744Y204261D01*
X122500Y203912D01*
X128014D01*
X128500Y202738D01*
X124761Y199000D01*
X123556D01*
X121351Y198086D01*
X119663Y196399D01*
X118750Y194193D01*
Y191807D01*
X119663Y189601D01*
X121351Y187913D01*
X123556Y187000D01*
X125943D01*
X128149Y187913D01*
X129837Y189601D01*
X130750Y191807D01*
Y192011D01*
X135900Y197162D01*
X154603D01*
X155101Y196663D01*
X157306Y195750D01*
X159693D01*
X161899Y196663D01*
X163587Y198351D01*
X164500Y200557D01*
Y202500D01*
X166693D01*
X168899Y203413D01*
X170587Y205101D01*
X171500Y207306D01*
Y209694D01*
X170587Y211899D01*
X168899Y213587D01*
X166693Y214500D01*
X164307D01*
X162101Y213587D01*
X161603Y213088D01*
X124401D01*
X122000Y215489D01*
Y216194D01*
X121087Y218399D01*
X119399Y220087D01*
X117193Y221000D01*
D02*
G37*
G36*
X205500Y217617D02*
X204909Y217500D01*
X204307D01*
X203750Y217269D01*
X203159Y217152D01*
X202658Y216817D01*
X202101Y216587D01*
X201675Y216161D01*
X201174Y215826D01*
X187091Y201742D01*
X170854D01*
X170263Y201625D01*
X169661D01*
X169104Y201394D01*
X168513Y201277D01*
X168012Y200942D01*
X167456Y200712D01*
X167030Y200285D01*
X166529Y199951D01*
X166194Y199450D01*
X165768Y199024D01*
X165537Y198467D01*
X165203Y197966D01*
X165085Y197375D01*
X164854Y196819D01*
Y196216D01*
X164737Y195625D01*
X164854Y195034D01*
Y194431D01*
X165085Y193875D01*
X165203Y193284D01*
X165537Y192783D01*
X165768Y192226D01*
X166194Y191800D01*
X166529Y191299D01*
X167030Y190965D01*
X167456Y190539D01*
X168012Y190308D01*
X168513Y189973D01*
X169104Y189856D01*
X169661Y189625D01*
X170263D01*
X170854Y189508D01*
X189625D01*
X191966Y189973D01*
X193951Y191299D01*
X209826Y207174D01*
X210161Y207675D01*
X210587Y208101D01*
X210817Y208658D01*
X211152Y209159D01*
X211269Y209750D01*
X211500Y210306D01*
Y210909D01*
X211618Y211500D01*
X211500Y212091D01*
Y212694D01*
X211269Y213250D01*
X211152Y213841D01*
X210817Y214342D01*
X210587Y214899D01*
X210161Y215325D01*
X209826Y215826D01*
X209325Y216161D01*
X208899Y216587D01*
X208342Y216817D01*
X207841Y217152D01*
X207250Y217269D01*
X206693Y217500D01*
X206091D01*
X205500Y217617D01*
D02*
G37*
G36*
X544450Y215025D02*
X541578Y214647D01*
X538903Y213538D01*
X536605Y211775D01*
X534841Y209478D01*
X533733Y206802D01*
X533355Y203930D01*
Y199930D01*
X533733Y197058D01*
X534841Y194382D01*
X536605Y192085D01*
X538903Y190322D01*
X541578Y189213D01*
X544450Y188835D01*
X547322Y189213D01*
X549997Y190322D01*
X552295Y192085D01*
X554058Y194382D01*
X555167Y197058D01*
X555545Y199930D01*
Y203930D01*
X555167Y206802D01*
X554058Y209478D01*
X552295Y211775D01*
X549997Y213538D01*
X547322Y214647D01*
X544450Y215025D01*
D02*
G37*
G36*
X519050D02*
X516178Y214647D01*
X513503Y213538D01*
X511205Y211775D01*
X509441Y209478D01*
X508333Y206802D01*
X507955Y203930D01*
Y199930D01*
X508333Y197058D01*
X509441Y194382D01*
X511205Y192085D01*
X513503Y190322D01*
X516178Y189213D01*
X519050Y188835D01*
X521922Y189213D01*
X524598Y190322D01*
X526895Y192085D01*
X528658Y194382D01*
X529767Y197058D01*
X530145Y199930D01*
Y203930D01*
X529767Y206802D01*
X528658Y209478D01*
X526895Y211775D01*
X524598Y213538D01*
X521922Y214647D01*
X519050Y215025D01*
D02*
G37*
G36*
X493650D02*
X490778Y214647D01*
X488102Y213538D01*
X485805Y211775D01*
X484041Y209478D01*
X482933Y206802D01*
X482555Y203930D01*
Y199930D01*
X482933Y197058D01*
X484041Y194382D01*
X485805Y192085D01*
X488102Y190322D01*
X490778Y189213D01*
X493650Y188835D01*
X496522Y189213D01*
X499198Y190322D01*
X501495Y192085D01*
X503259Y194382D01*
X504367Y197058D01*
X504745Y199930D01*
Y203930D01*
X504367Y206802D01*
X503259Y209478D01*
X501495Y211775D01*
X499198Y213538D01*
X496522Y214647D01*
X493650Y215025D01*
D02*
G37*
G36*
X468250D02*
X465378Y214647D01*
X462702Y213538D01*
X460405Y211775D01*
X458642Y209478D01*
X457533Y206802D01*
X457155Y203930D01*
Y199930D01*
X457533Y197058D01*
X458642Y194382D01*
X460405Y192085D01*
X462702Y190322D01*
X465378Y189213D01*
X468250Y188835D01*
X471122Y189213D01*
X473797Y190322D01*
X476095Y192085D01*
X477859Y194382D01*
X478967Y197058D01*
X479345Y199930D01*
Y203930D01*
X478967Y206802D01*
X477859Y209478D01*
X476095Y211775D01*
X473797Y213538D01*
X471122Y214647D01*
X468250Y215025D01*
D02*
G37*
G36*
X417450D02*
X414578Y214647D01*
X411903Y213538D01*
X409605Y211775D01*
X407841Y209478D01*
X406733Y206802D01*
X406355Y203930D01*
Y199930D01*
X406733Y197058D01*
X407841Y194382D01*
X409605Y192085D01*
X411903Y190322D01*
X414578Y189213D01*
X417450Y188835D01*
X420322Y189213D01*
X422998Y190322D01*
X425295Y192085D01*
X427058Y194382D01*
X428167Y197058D01*
X428545Y199930D01*
Y203930D01*
X428167Y206802D01*
X427058Y209478D01*
X425295Y211775D01*
X422998Y213538D01*
X420322Y214647D01*
X417450Y215025D01*
D02*
G37*
G36*
X392050D02*
X389178Y214647D01*
X386502Y213538D01*
X384205Y211775D01*
X382441Y209478D01*
X381333Y206802D01*
X380955Y203930D01*
Y199930D01*
X381333Y197058D01*
X382441Y194382D01*
X384205Y192085D01*
X386502Y190322D01*
X389178Y189213D01*
X392050Y188835D01*
X394922Y189213D01*
X397598Y190322D01*
X399895Y192085D01*
X401659Y194382D01*
X402767Y197058D01*
X403145Y199930D01*
Y203930D01*
X402767Y206802D01*
X401659Y209478D01*
X399895Y211775D01*
X397598Y213538D01*
X394922Y214647D01*
X392050Y215025D01*
D02*
G37*
G36*
X366650D02*
X363778Y214647D01*
X361102Y213538D01*
X358805Y211775D01*
X357042Y209478D01*
X355933Y206802D01*
X355555Y203930D01*
Y199930D01*
X355933Y197058D01*
X357042Y194382D01*
X358805Y192085D01*
X361102Y190322D01*
X363778Y189213D01*
X366650Y188835D01*
X369522Y189213D01*
X372197Y190322D01*
X374495Y192085D01*
X376259Y194382D01*
X377367Y197058D01*
X377745Y199930D01*
Y203930D01*
X377367Y206802D01*
X376259Y209478D01*
X374495Y211775D01*
X372197Y213538D01*
X369522Y214647D01*
X366650Y215025D01*
D02*
G37*
G36*
X569850Y138825D02*
X566978Y138447D01*
X564302Y137338D01*
X562005Y135575D01*
X560242Y133278D01*
X559133Y130602D01*
X558755Y127730D01*
Y123730D01*
X559133Y120858D01*
X560242Y118182D01*
X562005Y115885D01*
X564302Y114122D01*
X566978Y113013D01*
X569850Y112635D01*
X572722Y113013D01*
X575397Y114122D01*
X577695Y115885D01*
X579459Y118182D01*
X580567Y120858D01*
X580945Y123730D01*
Y127730D01*
X580567Y130602D01*
X579459Y133278D01*
X577695Y135575D01*
X575397Y137338D01*
X572722Y138447D01*
X569850Y138825D01*
D02*
G37*
G36*
X544450D02*
X541578Y138447D01*
X538903Y137338D01*
X536605Y135575D01*
X534841Y133278D01*
X533733Y130602D01*
X533355Y127730D01*
Y123730D01*
X533733Y120858D01*
X534841Y118182D01*
X536605Y115885D01*
X538903Y114122D01*
X541578Y113013D01*
X544450Y112635D01*
X547322Y113013D01*
X549997Y114122D01*
X552295Y115885D01*
X554058Y118182D01*
X555167Y120858D01*
X555545Y123730D01*
Y127730D01*
X555167Y130602D01*
X554058Y133278D01*
X552295Y135575D01*
X549997Y137338D01*
X547322Y138447D01*
X544450Y138825D01*
D02*
G37*
G36*
X451932Y157748D02*
X449545D01*
X447340Y156835D01*
X445652Y155147D01*
X444738Y152942D01*
Y150555D01*
X445652Y148349D01*
X447340Y146662D01*
X449545Y145748D01*
X451932D01*
X452398Y145941D01*
X469733D01*
X478941Y136733D01*
Y131667D01*
X479000Y131372D01*
Y131071D01*
X479115Y130792D01*
X479174Y130497D01*
X479341Y130246D01*
X479457Y129968D01*
X479670Y129755D01*
X479837Y129505D01*
X480088Y129337D01*
X480301Y129124D01*
X480579Y129009D01*
X480830Y128842D01*
X481125Y128783D01*
X481403Y128667D01*
X482646Y128420D01*
X482555Y127730D01*
Y123730D01*
X482646Y123040D01*
X481403Y122793D01*
X481125Y122677D01*
X480830Y122618D01*
X480579Y122451D01*
X480301Y122336D01*
X480088Y122123D01*
X479837Y121955D01*
X479670Y121705D01*
X479457Y121492D01*
X479341Y121214D01*
X479174Y120963D01*
X479115Y120668D01*
X479000Y120389D01*
Y120088D01*
X478941Y119792D01*
Y98000D01*
X479174Y96829D01*
X479837Y95837D01*
X486837Y88837D01*
X487830Y88174D01*
X489000Y87941D01*
X489000Y87941D01*
X508000D01*
X509170Y88174D01*
X510163Y88837D01*
X510826Y89830D01*
X511059Y91000D01*
Y114396D01*
X512329Y115022D01*
X513503Y114122D01*
X516178Y113013D01*
X519050Y112635D01*
X521922Y113013D01*
X524598Y114122D01*
X526895Y115885D01*
X528658Y118182D01*
X529767Y120858D01*
X530145Y123730D01*
Y127730D01*
X529767Y130602D01*
X528658Y133278D01*
X526895Y135575D01*
X524598Y137338D01*
X521922Y138447D01*
X519050Y138825D01*
X516178Y138447D01*
X513503Y137338D01*
X512329Y136438D01*
X511059Y137064D01*
Y154285D01*
X510826Y155456D01*
X510163Y156448D01*
X509544Y156861D01*
X509171Y157111D01*
X508665Y157320D01*
X507495Y157553D01*
X452402D01*
X451932Y157748D01*
D02*
G37*
G36*
X442850Y138825D02*
X439978Y138447D01*
X437303Y137338D01*
X435005Y135575D01*
X433242Y133278D01*
X432133Y130602D01*
X431755Y127730D01*
Y123730D01*
X432133Y120858D01*
X433242Y118182D01*
X435005Y115885D01*
X437303Y114122D01*
X439978Y113013D01*
X442850Y112635D01*
X445722Y113013D01*
X448397Y114122D01*
X450695Y115885D01*
X452458Y118182D01*
X453567Y120858D01*
X453945Y123730D01*
Y127730D01*
X453567Y130602D01*
X452458Y133278D01*
X450695Y135575D01*
X448397Y137338D01*
X445722Y138447D01*
X442850Y138825D01*
D02*
G37*
G36*
X417450D02*
X414578Y138447D01*
X411903Y137338D01*
X409605Y135575D01*
X407841Y133278D01*
X406733Y130602D01*
X406355Y127730D01*
Y123730D01*
X406733Y120858D01*
X407841Y118182D01*
X409605Y115885D01*
X411903Y114122D01*
X414578Y113013D01*
X417450Y112635D01*
X420322Y113013D01*
X422998Y114122D01*
X425295Y115885D01*
X427058Y118182D01*
X428167Y120858D01*
X428545Y123730D01*
Y127730D01*
X428167Y130602D01*
X427058Y133278D01*
X425295Y135575D01*
X422998Y137338D01*
X420322Y138447D01*
X417450Y138825D01*
D02*
G37*
G36*
X392050D02*
X389178Y138447D01*
X386502Y137338D01*
X384205Y135575D01*
X382441Y133278D01*
X381333Y130602D01*
X380955Y127730D01*
Y123730D01*
X381333Y120858D01*
X382441Y118182D01*
X384205Y115885D01*
X386502Y114122D01*
X389178Y113013D01*
X392050Y112635D01*
X394922Y113013D01*
X397598Y114122D01*
X399895Y115885D01*
X401659Y118182D01*
X402767Y120858D01*
X403145Y123730D01*
Y127730D01*
X402767Y130602D01*
X401659Y133278D01*
X399895Y135575D01*
X397598Y137338D01*
X394922Y138447D01*
X392050Y138825D01*
D02*
G37*
G36*
X366650D02*
X363778Y138447D01*
X361102Y137338D01*
X358805Y135575D01*
X357042Y133278D01*
X355933Y130602D01*
X355555Y127730D01*
Y123730D01*
X355933Y120858D01*
X357042Y118182D01*
X358805Y115885D01*
X361102Y114122D01*
X363778Y113013D01*
X366650Y112635D01*
X369522Y113013D01*
X372197Y114122D01*
X374495Y115885D01*
X376259Y118182D01*
X377367Y120858D01*
X377745Y123730D01*
Y127730D01*
X377367Y130602D01*
X376259Y133278D01*
X374495Y135575D01*
X372197Y137338D01*
X369522Y138447D01*
X366650Y138825D01*
D02*
G37*
G36*
X341250D02*
X338378Y138447D01*
X335703Y137338D01*
X333405Y135575D01*
X331642Y133278D01*
X330533Y130602D01*
X330155Y127730D01*
Y123730D01*
X330533Y120858D01*
X331642Y118182D01*
X333405Y115885D01*
X335703Y114122D01*
X338378Y113013D01*
X341250Y112635D01*
X344122Y113013D01*
X346797Y114122D01*
X349095Y115885D01*
X350858Y118182D01*
X351967Y120858D01*
X352345Y123730D01*
Y127730D01*
X351967Y130602D01*
X350858Y133278D01*
X349095Y135575D01*
X346797Y137338D01*
X344122Y138447D01*
X341250Y138825D01*
D02*
G37*
G36*
X315850D02*
X312978Y138447D01*
X310303Y137338D01*
X308005Y135575D01*
X306241Y133278D01*
X305133Y130602D01*
X304755Y127730D01*
Y123730D01*
X305133Y120858D01*
X306241Y118182D01*
X308005Y115885D01*
X310303Y114122D01*
X312978Y113013D01*
X315850Y112635D01*
X318722Y113013D01*
X321398Y114122D01*
X323695Y115885D01*
X325458Y118182D01*
X326567Y120858D01*
X326945Y123730D01*
Y127730D01*
X326567Y130602D01*
X325458Y133278D01*
X323695Y135575D01*
X321398Y137338D01*
X318722Y138447D01*
X315850Y138825D01*
D02*
G37*
G36*
X290450D02*
X287578Y138447D01*
X284902Y137338D01*
X282605Y135575D01*
X280842Y133278D01*
X279733Y130602D01*
X279355Y127730D01*
Y123730D01*
X279733Y120858D01*
X280842Y118182D01*
X282605Y115885D01*
X284902Y114122D01*
X287578Y113013D01*
X290450Y112635D01*
X293322Y113013D01*
X295998Y114122D01*
X298295Y115885D01*
X300058Y118182D01*
X301167Y120858D01*
X301545Y123730D01*
Y127730D01*
X301167Y130602D01*
X300058Y133278D01*
X298295Y135575D01*
X295998Y137338D01*
X293322Y138447D01*
X290450Y138825D01*
D02*
G37*
G36*
X635000Y38495D02*
X632128Y38117D01*
X629453Y37009D01*
X627155Y35245D01*
X625392Y32947D01*
X624283Y30272D01*
X623905Y27400D01*
Y23400D01*
X624283Y20528D01*
X625392Y17852D01*
X627155Y15555D01*
X629453Y13792D01*
X632128Y12683D01*
X635000Y12305D01*
X637872Y12683D01*
X640547Y13792D01*
X642845Y15555D01*
X644609Y17852D01*
X645717Y20528D01*
X646095Y23400D01*
Y27400D01*
X645717Y30272D01*
X644609Y32947D01*
X642845Y35245D01*
X640547Y37009D01*
X637872Y38117D01*
X635000Y38495D01*
D02*
G37*
%LPD*%
G36*
X507495Y154495D02*
X508000Y154285D01*
Y128071D01*
X507955Y127730D01*
Y123730D01*
X508000Y123389D01*
Y91000D01*
X489000D01*
X482000Y98000D01*
Y119792D01*
X483270Y120045D01*
X484041Y118182D01*
X485805Y115885D01*
X488102Y114122D01*
X490778Y113013D01*
X493650Y112635D01*
X496522Y113013D01*
X499198Y114122D01*
X501495Y115885D01*
X503259Y118182D01*
X504367Y120858D01*
X504745Y123730D01*
Y127730D01*
X504367Y130602D01*
X503259Y133278D01*
X501495Y135575D01*
X499198Y137338D01*
X496522Y138447D01*
X493650Y138825D01*
X490778Y138447D01*
X488102Y137338D01*
X485805Y135575D01*
X484041Y133278D01*
X483270Y131415D01*
X482000Y131667D01*
Y138000D01*
X471000Y149000D01*
X450754D01*
X450738Y150264D01*
Y154495D01*
X507495D01*
D02*
G37*
%LPC*%
G36*
X148000Y431695D02*
X144000D01*
X141128Y431317D01*
X138453Y430209D01*
X136155Y428445D01*
X134391Y426147D01*
X133283Y423472D01*
X132905Y420600D01*
X133283Y417728D01*
X134391Y415053D01*
X136155Y412755D01*
X138453Y410992D01*
X141128Y409883D01*
X144000Y409505D01*
X148000D01*
X150872Y409883D01*
X153547Y410992D01*
X155845Y412755D01*
X157608Y415053D01*
X158717Y417728D01*
X159095Y420600D01*
X158717Y423472D01*
X157608Y426147D01*
X155845Y428445D01*
X153547Y430209D01*
X150872Y431317D01*
X148000Y431695D01*
D02*
G37*
G36*
Y406295D02*
X144000D01*
X141128Y405917D01*
X138453Y404809D01*
X136155Y403045D01*
X134391Y400747D01*
X133283Y398072D01*
X132905Y395200D01*
X133283Y392328D01*
X134391Y389653D01*
X136155Y387355D01*
X138453Y385592D01*
X141128Y384483D01*
X144000Y384105D01*
X148000D01*
X150872Y384483D01*
X153547Y385592D01*
X155845Y387355D01*
X157608Y389653D01*
X158717Y392328D01*
X159095Y395200D01*
X158717Y398072D01*
X157608Y400747D01*
X155845Y403045D01*
X153547Y404809D01*
X150872Y405917D01*
X148000Y406295D01*
D02*
G37*
G36*
X36900Y483940D02*
X13900D01*
Y460940D01*
X36900D01*
Y483940D01*
D02*
G37*
G36*
Y397580D02*
X13900D01*
Y374580D01*
X36900D01*
Y397580D01*
D02*
G37*
G36*
X26114Y355500D02*
X23086D01*
X20161Y354716D01*
X17539Y353202D01*
X15398Y351061D01*
X13884Y348439D01*
X13100Y345514D01*
Y342486D01*
X13884Y339561D01*
X15398Y336939D01*
X17539Y334798D01*
X20161Y333284D01*
X23086Y332500D01*
X26114D01*
X29039Y333284D01*
X31661Y334798D01*
X33802Y336939D01*
X35316Y339561D01*
X36100Y342486D01*
Y345514D01*
X35316Y348439D01*
X33802Y351061D01*
X31661Y353202D01*
X29039Y354716D01*
X26114Y355500D01*
D02*
G37*
G36*
Y330100D02*
X23086D01*
X20161Y329316D01*
X17539Y327802D01*
X15398Y325661D01*
X13884Y323039D01*
X13100Y320114D01*
Y317086D01*
X13884Y314161D01*
X15398Y311539D01*
X17539Y309398D01*
X20161Y307884D01*
X23086Y307100D01*
X26114D01*
X29039Y307884D01*
X31661Y309398D01*
X33802Y311539D01*
X35316Y314161D01*
X36100Y317086D01*
Y320114D01*
X35316Y323039D01*
X33802Y325661D01*
X31661Y327802D01*
X29039Y329316D01*
X26114Y330100D01*
D02*
G37*
G36*
X28995Y243118D02*
X14995D01*
X12654Y242652D01*
X10669Y241326D01*
X9343Y239341D01*
X8878Y237000D01*
Y231000D01*
X9343Y228659D01*
X10669Y226674D01*
X12654Y225348D01*
X14995Y224883D01*
X28995D01*
X31336Y225348D01*
X33321Y226674D01*
X34647Y228659D01*
X35113Y231000D01*
Y237000D01*
X34647Y239341D01*
X33321Y241326D01*
X31336Y242652D01*
X28995Y243118D01*
D02*
G37*
G36*
X519000Y38400D02*
X497000D01*
Y12400D01*
X519000D01*
Y38400D01*
D02*
G37*
G36*
X584200Y38495D02*
X581328Y38117D01*
X578652Y37009D01*
X576355Y35245D01*
X574591Y32947D01*
X573483Y30272D01*
X573105Y27400D01*
Y23400D01*
X573483Y20528D01*
X574591Y17852D01*
X576355Y15555D01*
X578652Y13792D01*
X581328Y12683D01*
X584200Y12305D01*
X587072Y12683D01*
X589748Y13792D01*
X592045Y15555D01*
X593809Y17852D01*
X594917Y20528D01*
X595295Y23400D01*
Y27400D01*
X594917Y30272D01*
X593809Y32947D01*
X592045Y35245D01*
X589748Y37009D01*
X587072Y38117D01*
X584200Y38495D01*
D02*
G37*
G36*
X558800D02*
X555928Y38117D01*
X553252Y37009D01*
X550955Y35245D01*
X549192Y32947D01*
X548083Y30272D01*
X547705Y27400D01*
Y23400D01*
X548083Y20528D01*
X549192Y17852D01*
X550955Y15555D01*
X553252Y13792D01*
X555928Y12683D01*
X558800Y12305D01*
X561672Y12683D01*
X564347Y13792D01*
X566645Y15555D01*
X568409Y17852D01*
X569517Y20528D01*
X569895Y23400D01*
Y27400D01*
X569517Y30272D01*
X568409Y32947D01*
X566645Y35245D01*
X564347Y37009D01*
X561672Y38117D01*
X558800Y38495D01*
D02*
G37*
G36*
X533400D02*
X530528Y38117D01*
X527853Y37009D01*
X525555Y35245D01*
X523792Y32947D01*
X522683Y30272D01*
X522305Y27400D01*
Y23400D01*
X522683Y20528D01*
X523792Y17852D01*
X525555Y15555D01*
X527853Y13792D01*
X530528Y12683D01*
X533400Y12305D01*
X536272Y12683D01*
X538947Y13792D01*
X541245Y15555D01*
X543008Y17852D01*
X544117Y20528D01*
X544495Y23400D01*
Y27400D01*
X544117Y30272D01*
X543008Y32947D01*
X541245Y35245D01*
X538947Y37009D01*
X536272Y38117D01*
X533400Y38495D01*
D02*
G37*
G36*
X457200D02*
X454328Y38117D01*
X451652Y37009D01*
X449355Y35245D01*
X447592Y32947D01*
X446483Y30272D01*
X446105Y27400D01*
Y23400D01*
X446483Y20528D01*
X447592Y17852D01*
X449355Y15555D01*
X451652Y13792D01*
X454328Y12683D01*
X457200Y12305D01*
X460072Y12683D01*
X462747Y13792D01*
X465045Y15555D01*
X466809Y17852D01*
X467917Y20528D01*
X468295Y23400D01*
Y27400D01*
X467917Y30272D01*
X466809Y32947D01*
X465045Y35245D01*
X462747Y37009D01*
X460072Y38117D01*
X457200Y38495D01*
D02*
G37*
G36*
X431800D02*
X428928Y38117D01*
X426253Y37009D01*
X423955Y35245D01*
X422192Y32947D01*
X421083Y30272D01*
X420705Y27400D01*
Y23400D01*
X421083Y20528D01*
X422192Y17852D01*
X423955Y15555D01*
X426253Y13792D01*
X428928Y12683D01*
X431800Y12305D01*
X434672Y12683D01*
X437347Y13792D01*
X439645Y15555D01*
X441409Y17852D01*
X442517Y20528D01*
X442895Y23400D01*
Y27400D01*
X442517Y30272D01*
X441409Y32947D01*
X439645Y35245D01*
X437347Y37009D01*
X434672Y38117D01*
X431800Y38495D01*
D02*
G37*
%LPD*%
D10*
X199710Y521750D02*
X222855D01*
Y516768D02*
Y521750D01*
X224860Y501140D02*
X256000Y470000D01*
X224860Y501140D02*
Y514763D01*
X222855Y516768D02*
X224860Y514763D01*
X213000Y490757D02*
Y507640D01*
Y490757D02*
X214757Y489000D01*
X222000D01*
X213000Y507640D02*
X213360Y508000D01*
X247750Y463250D02*
X588750D01*
X222000Y489000D02*
X247750Y463250D01*
X226000Y455000D02*
X241750Y439250D01*
X147757Y447757D02*
Y455000D01*
X226000D01*
X146000Y446000D02*
X147757Y447757D01*
X309000Y239393D02*
Y240000D01*
X304000Y234393D02*
X309000Y239393D01*
X304000Y173750D02*
Y234393D01*
X321750Y222094D02*
Y253250D01*
X316000Y259000D02*
X321750Y253250D01*
X243000Y180000D02*
X270520D01*
X613500Y335750D02*
Y450500D01*
X594000Y470000D02*
X613500Y450500D01*
X256000Y470000D02*
X594000D01*
X608500Y325885D02*
Y443500D01*
X588750Y463250D02*
X608500Y443500D01*
X241750Y439250D02*
X567750D01*
X577000Y430000D01*
X221000Y409000D02*
X558000D01*
X568000Y419000D02*
X577000D01*
X558000Y409000D02*
X568000Y419000D01*
X320000Y425000D02*
X559393D01*
X564394Y430000D01*
X565000D01*
X320000Y416000D02*
X554000D01*
X219074Y408324D02*
X220324D01*
X218500Y407750D02*
X219074Y408324D01*
X220324D02*
X221000Y409000D01*
X632993Y216750D02*
X636250Y213493D01*
X621500Y218507D02*
Y312885D01*
X636250Y168730D02*
Y213493D01*
X642250Y149330D02*
Y307000D01*
X649750Y180000D02*
Y218750D01*
X621500Y218507D02*
X623257Y216750D01*
X649750Y180000D02*
X669750Y160000D01*
X647250Y221250D02*
X649750Y218750D01*
X595250Y127730D02*
X636250Y168730D01*
X623257Y216750D02*
X632993D01*
X647250Y221250D02*
Y311474D01*
X620650Y127730D02*
X642250Y149330D01*
X608500Y325885D02*
X621500Y312885D01*
X613500Y335750D02*
X642250Y307000D01*
X134000Y201750D02*
X158500D01*
X125250Y193000D02*
X134000Y201750D01*
X124750Y193000D02*
X125250D01*
X282000Y486000D02*
X294960D01*
X314960Y506000D01*
X321750Y222094D02*
X328750Y215094D01*
X98000Y275750D02*
Y370000D01*
Y275750D02*
X100250Y273500D01*
X89500Y323500D02*
Y368750D01*
X89750Y369000D01*
X270520Y180000D02*
X290450Y199930D01*
Y201930D01*
X122500Y208500D02*
X165500D01*
X116000Y215000D02*
X122500Y208500D01*
X314960Y506000D02*
Y508000D01*
X76200Y472440D02*
X102640Y446000D01*
X146000D01*
X187960Y508000D02*
Y510000D01*
X199710Y521750D01*
X595250Y125730D02*
Y127730D01*
X620650Y125730D02*
Y127730D01*
X619900Y338824D02*
X647250Y311474D01*
X619900Y338824D02*
Y394331D01*
X623250Y397681D02*
Y454000D01*
X619900Y394331D02*
X623250Y397681D01*
X328750Y174000D02*
Y215094D01*
X635000Y506000D02*
Y508000D01*
X595250Y201930D02*
Y203930D01*
X609600Y506000D02*
Y508000D01*
X584200Y506000D02*
Y508000D01*
X558800Y506000D02*
Y508000D01*
X533400Y506000D02*
Y508000D01*
D11*
X582350Y190650D02*
X590000Y183000D01*
X606000D01*
X582350Y190650D02*
Y226650D01*
X582000Y227000D02*
X582350Y226650D01*
D12*
X680750Y158750D02*
Y207104D01*
X655250Y232604D02*
Y281500D01*
Y232604D02*
X680750Y207104D01*
X133000Y270250D02*
X133250Y270000D01*
X133000Y270250D02*
Y270500D01*
X133250Y245727D02*
Y270000D01*
X133023Y245500D02*
X133250Y245727D01*
X381000Y23400D02*
Y25400D01*
X116200Y86000D02*
X122200Y80000D01*
X116200Y86000D02*
Y88000D01*
D24*
X241500Y79500D02*
D03*
D64*
X673500Y262500D02*
D03*
D65*
Y307500D02*
D03*
X608500D02*
D03*
Y262500D02*
D03*
X241500Y14500D02*
D03*
X196500D02*
D03*
Y79500D02*
D03*
D70*
X189625Y195625D02*
X205500Y211500D01*
X170854Y195625D02*
X189625D01*
D71*
X253071Y454179D02*
X256000Y451250D01*
X213000Y475000D02*
X222625D01*
X243446Y454179D01*
X253071D01*
X256000Y451250D02*
X583750D01*
X596250Y438750D01*
Y352250D02*
Y438750D01*
X582000Y338000D02*
X596250Y352250D01*
X582000Y227000D02*
Y338000D01*
D73*
X152400Y508000D02*
D03*
D74*
X116200Y88000D02*
D03*
X416560Y508000D02*
D03*
X635000D02*
D03*
X508000Y25400D02*
D03*
X279400D02*
D03*
X620650Y201930D02*
D03*
D75*
X141600Y88000D02*
D03*
X167000D02*
D03*
X187960Y508000D02*
D03*
X213360D02*
D03*
X238760D02*
D03*
X264160D02*
D03*
X289560D02*
D03*
X314960D02*
D03*
X340360D02*
D03*
X365760D02*
D03*
X391160D02*
D03*
X457200D02*
D03*
X482600D02*
D03*
X508000D02*
D03*
X533400D02*
D03*
X558800D02*
D03*
X584200D02*
D03*
X609600D02*
D03*
X635000Y25400D02*
D03*
X609600D02*
D03*
X584200D02*
D03*
X558800D02*
D03*
X533400D02*
D03*
X457200D02*
D03*
X431800D02*
D03*
X406400D02*
D03*
X381000D02*
D03*
X355600D02*
D03*
X330200D02*
D03*
X304800D02*
D03*
X595250Y201930D02*
D03*
X569850D02*
D03*
X544450D02*
D03*
X519050D02*
D03*
X493650D02*
D03*
X468250D02*
D03*
X442850D02*
D03*
X417450D02*
D03*
X392050D02*
D03*
X366650D02*
D03*
X341250D02*
D03*
X315850D02*
D03*
X290450D02*
D03*
X620650Y125730D02*
D03*
X595250D02*
D03*
X569850D02*
D03*
X544450D02*
D03*
X519050D02*
D03*
X493650D02*
D03*
X468250D02*
D03*
X442850D02*
D03*
X417450D02*
D03*
X392050D02*
D03*
X366650D02*
D03*
X341250D02*
D03*
X315850D02*
D03*
X290450D02*
D03*
D76*
X146000Y420600D02*
D03*
Y395200D02*
D03*
Y369800D02*
D03*
X662000Y443600D02*
D03*
Y418200D02*
D03*
D77*
X146000Y446000D02*
D03*
X662000Y469000D02*
D03*
D78*
X50000Y344000D02*
D03*
X25400Y386080D02*
D03*
Y472440D02*
D03*
D79*
X24600Y344000D02*
D03*
X50000Y318600D02*
D03*
X24600D02*
D03*
X76200Y411480D02*
D03*
X50800D02*
D03*
X25400D02*
D03*
X76200Y386080D02*
D03*
X50800D02*
D03*
Y472440D02*
D03*
X76200D02*
D03*
X25400Y497840D02*
D03*
X50800D02*
D03*
X76200D02*
D03*
D80*
X21995Y234000D02*
D03*
Y168000D02*
D03*
D81*
X21750Y23750D02*
D03*
Y138000D02*
D03*
D82*
X660400Y355600D02*
D03*
Y76200D02*
D03*
X139700Y25400D02*
D03*
D83*
X84000Y295000D02*
D03*
X79250Y250000D02*
D03*
X450738Y151748D02*
D03*
X162000Y141000D02*
D03*
X53500Y522250D02*
D03*
X682000Y126000D02*
D03*
X680000Y158750D02*
D03*
X669000Y160000D02*
D03*
X109000Y145000D02*
D03*
X117000Y153000D02*
D03*
X109000D02*
D03*
X101000D02*
D03*
X137000Y170000D02*
D03*
X124000Y172000D02*
D03*
X137000Y178000D02*
D03*
Y185000D02*
D03*
X404000Y486000D02*
D03*
X412690Y485667D02*
D03*
X403690Y477667D02*
D03*
X412690D02*
D03*
X413000Y391000D02*
D03*
X404000D02*
D03*
X413000Y399000D02*
D03*
X309000Y240000D02*
D03*
X580315Y384349D02*
D03*
X580063Y392359D02*
D03*
X615571Y72602D02*
D03*
X413000Y107000D02*
D03*
X418494Y64293D02*
D03*
X435000Y64000D02*
D03*
X319991Y77437D02*
D03*
X59000Y229000D02*
D03*
Y221505D02*
D03*
X117000Y405000D02*
D03*
Y414000D02*
D03*
X173000Y205000D02*
D03*
X165500Y208500D02*
D03*
X577000Y430000D02*
D03*
X606000Y183000D02*
D03*
X65000Y449000D02*
D03*
X124750Y193000D02*
D03*
X404310Y399333D02*
D03*
X441750Y219250D02*
D03*
X477250Y254500D02*
D03*
X392250D02*
D03*
X109500Y250000D02*
D03*
X153500Y237000D02*
D03*
X214000Y251000D02*
D03*
X193000Y211000D02*
D03*
X150000Y270750D02*
D03*
X240000Y203500D02*
D03*
X267750Y243000D02*
D03*
X183750Y288000D02*
D03*
X217000Y333500D02*
D03*
X270000Y345750D02*
D03*
X205500Y407500D02*
D03*
X189750Y407750D02*
D03*
X580000Y401000D02*
D03*
X629750Y183500D02*
D03*
Y175750D02*
D03*
X489000Y83000D02*
D03*
X468750Y109500D02*
D03*
X426500Y64000D02*
D03*
X410750Y85375D02*
D03*
X372750Y65500D02*
D03*
X305000Y86000D02*
D03*
X192250Y143500D02*
D03*
X233000Y135000D02*
D03*
X210000Y134500D02*
D03*
X78750Y226750D02*
D03*
X297250Y419250D02*
D03*
X225250Y440250D02*
D03*
X167750Y413750D02*
D03*
X124500Y410500D02*
D03*
X13000Y285750D02*
D03*
X155000Y133750D02*
D03*
X319710Y70758D02*
D03*
X459000Y44000D02*
D03*
X478250Y40500D02*
D03*
X615500Y62750D02*
D03*
X655250Y281500D02*
D03*
X133000Y270500D02*
D03*
X133023Y245500D02*
D03*
X89500Y323500D02*
D03*
X89750Y369000D02*
D03*
X100250Y273500D02*
D03*
X98000Y370000D02*
D03*
X243000Y180000D02*
D03*
X499000Y96000D02*
D03*
X205500Y211500D02*
D03*
X170854Y195625D02*
D03*
X88000Y108000D02*
D03*
Y124000D02*
D03*
X158500Y201750D02*
D03*
X116000Y215000D02*
D03*
X282000Y486000D02*
D03*
X580000Y419000D02*
D03*
X213000Y475000D02*
D03*
X218500Y407750D02*
D03*
X320000Y416000D02*
D03*
X554000D02*
D03*
X319500Y425500D02*
D03*
X565000Y430000D02*
D03*
X623250Y454000D02*
D03*
X316000Y259000D02*
D03*
X328750Y174000D02*
D03*
X304000Y173750D02*
D03*
M02*
