G04*
G04 #@! TF.GenerationSoftware,Altium Limited,Altium Designer,21.0.8 (223)*
G04*
G04 Layer_Color=8421504*
%FSLAX44Y44*%
%MOMM*%
G71*
G04*
G04 #@! TF.SameCoordinates,CB068B56-A197-48A0-A871-B344E5AE3D22*
G04*
G04*
G04 #@! TF.FilePolarity,Positive*
G04*
G01*
G75*
%ADD14R,0.9000X1.3000*%
%ADD15R,0.5500X1.0000*%
%ADD16R,1.3000X0.7000*%
%ADD17R,0.7000X1.3000*%
%ADD18R,0.6858X0.5588*%
%ADD19R,0.5588X0.6858*%
%ADD20R,0.6000X2.2000*%
%ADD21R,3.5000X2.2000*%
%ADD22R,1.3500X0.4000*%
%ADD23R,1.4000X1.6000*%
%ADD24R,1.9000X1.9000*%
%ADD25R,1.3000X0.9000*%
%ADD26R,0.8000X0.8000*%
%ADD27R,1.5000X0.5500*%
%ADD28R,0.5500X1.5000*%
%ADD29R,2.7000X2.0000*%
%ADD30R,1.6000X3.0000*%
%ADD31R,0.9000X0.6000*%
%ADD32R,2.6000X2.5000*%
%ADD33R,2.5000X2.6000*%
%ADD34R,1.0000X0.5500*%
D14*
X70500Y295000D02*
D03*
X51500D02*
D03*
X21500Y522000D02*
D03*
X40500D02*
D03*
X673500Y127000D02*
D03*
X654500D02*
D03*
X438000Y98000D02*
D03*
X419000D02*
D03*
X256500Y240000D02*
D03*
X237500D02*
D03*
X445750Y230750D02*
D03*
X464750D02*
D03*
X128500Y237000D02*
D03*
X147500D02*
D03*
X238500Y346000D02*
D03*
X257500D02*
D03*
X500500Y55000D02*
D03*
X481500D02*
D03*
X609500Y332000D02*
D03*
X590500D02*
D03*
X381500Y50000D02*
D03*
X400500D02*
D03*
X500500Y77000D02*
D03*
X481500D02*
D03*
X243500Y484000D02*
D03*
X262500D02*
D03*
X437375Y79000D02*
D03*
X418375D02*
D03*
X477500Y99000D02*
D03*
X458500D02*
D03*
X426379Y254632D02*
D03*
X407379D02*
D03*
X445500Y254000D02*
D03*
X464500D02*
D03*
X90500Y237000D02*
D03*
X109500D02*
D03*
D15*
X71000Y277000D02*
D03*
X52000D02*
D03*
X71000Y250000D02*
D03*
X61500D02*
D03*
X52000D02*
D03*
X669750Y171500D02*
D03*
X660250D02*
D03*
X650750D02*
D03*
X669750Y144500D02*
D03*
X650750D02*
D03*
D16*
X172000Y384500D02*
D03*
Y403500D02*
D03*
X217000Y283500D02*
D03*
Y264500D02*
D03*
X610000Y455500D02*
D03*
Y474500D02*
D03*
X585000D02*
D03*
Y455500D02*
D03*
X636000Y412500D02*
D03*
Y431500D02*
D03*
X253000Y163500D02*
D03*
Y144500D02*
D03*
X649000Y223500D02*
D03*
Y242500D02*
D03*
X333000Y47500D02*
D03*
Y66500D02*
D03*
Y85500D02*
D03*
Y66500D02*
D03*
X91000Y282500D02*
D03*
Y263500D02*
D03*
X671000Y190500D02*
D03*
Y209500D02*
D03*
X31000Y294500D02*
D03*
Y275500D02*
D03*
X672000Y242500D02*
D03*
Y223500D02*
D03*
X273000Y48500D02*
D03*
Y67500D02*
D03*
D17*
X289750Y441500D02*
D03*
X270750D02*
D03*
Y418500D02*
D03*
X289750D02*
D03*
X80500Y350000D02*
D03*
X99500D02*
D03*
X85500Y215000D02*
D03*
X104500D02*
D03*
X113000Y193000D02*
D03*
X94000D02*
D03*
X104500Y171000D02*
D03*
X85500D02*
D03*
X385500Y99000D02*
D03*
X404500D02*
D03*
X253500Y439000D02*
D03*
X234500D02*
D03*
X408500Y231000D02*
D03*
X427500D02*
D03*
X608500Y355000D02*
D03*
X589500D02*
D03*
X13000Y254000D02*
D03*
X32000D02*
D03*
X288500Y87000D02*
D03*
X269500D02*
D03*
X147500Y215000D02*
D03*
X128500D02*
D03*
X624500Y226000D02*
D03*
X605500D02*
D03*
D18*
X13000Y294192D02*
D03*
Y269808D02*
D03*
D19*
X628192Y243000D02*
D03*
X603808D02*
D03*
D20*
X135600Y115000D02*
D03*
X148300D02*
D03*
X161000D02*
D03*
X173700D02*
D03*
X186400D02*
D03*
D21*
X161000Y177000D02*
D03*
D22*
X48745Y214000D02*
D03*
Y207500D02*
D03*
Y201000D02*
D03*
Y194500D02*
D03*
Y188000D02*
D03*
D23*
X46495Y233000D02*
D03*
Y169000D02*
D03*
D24*
X21995Y213000D02*
D03*
Y189000D02*
D03*
D25*
X214000Y239000D02*
D03*
Y220000D02*
D03*
X194000D02*
D03*
Y239000D02*
D03*
X170000Y220000D02*
D03*
Y239000D02*
D03*
X23000Y451500D02*
D03*
Y432500D02*
D03*
X201000Y200500D02*
D03*
Y181500D02*
D03*
X217000Y300500D02*
D03*
Y319500D02*
D03*
X636000Y473500D02*
D03*
Y454500D02*
D03*
X210000Y106500D02*
D03*
Y125500D02*
D03*
X114000Y111500D02*
D03*
Y130500D02*
D03*
X356000Y46500D02*
D03*
Y65500D02*
D03*
X305000Y46500D02*
D03*
Y65500D02*
D03*
X461000Y79500D02*
D03*
Y60500D02*
D03*
X214000Y440500D02*
D03*
Y421500D02*
D03*
X225000Y181500D02*
D03*
Y200500D02*
D03*
X233000Y106500D02*
D03*
Y125500D02*
D03*
X649000Y206500D02*
D03*
Y187500D02*
D03*
D26*
X254000Y378000D02*
D03*
X238000D02*
D03*
X254000Y397000D02*
D03*
X238000D02*
D03*
X253000Y421000D02*
D03*
X237000D02*
D03*
X608000Y375000D02*
D03*
X592000D02*
D03*
D27*
X196000Y272000D02*
D03*
Y328000D02*
D03*
Y320000D02*
D03*
Y312000D02*
D03*
Y304000D02*
D03*
Y296000D02*
D03*
Y288000D02*
D03*
Y280000D02*
D03*
X112000Y328000D02*
D03*
Y304000D02*
D03*
Y288000D02*
D03*
Y312000D02*
D03*
Y272000D02*
D03*
Y280000D02*
D03*
Y296000D02*
D03*
Y320000D02*
D03*
D28*
X174000Y342000D02*
D03*
X182000D02*
D03*
X150000Y258000D02*
D03*
X134000D02*
D03*
X126000Y342000D02*
D03*
X150000D02*
D03*
X142000D02*
D03*
X158000Y258000D02*
D03*
X142000D02*
D03*
X166000Y342000D02*
D03*
Y258000D02*
D03*
X126000D02*
D03*
X134000Y342000D02*
D03*
X158000D02*
D03*
X174000Y258000D02*
D03*
X182000D02*
D03*
D29*
X20000Y67000D02*
D03*
Y99000D02*
D03*
D30*
X72000Y62500D02*
D03*
Y21500D02*
D03*
Y143000D02*
D03*
Y102000D02*
D03*
D31*
X69000Y181500D02*
D03*
Y196500D02*
D03*
Y226500D02*
D03*
Y211500D02*
D03*
D32*
X248000Y317500D02*
D03*
Y268500D02*
D03*
D33*
X410500Y287000D02*
D03*
X459500D02*
D03*
D34*
X194500Y421500D02*
D03*
Y440500D02*
D03*
X167500Y421500D02*
D03*
Y431000D02*
D03*
Y440500D02*
D03*
X233500Y143500D02*
D03*
Y162500D02*
D03*
X206500Y143500D02*
D03*
Y153000D02*
D03*
Y162500D02*
D03*
M02*
