G04*
G04 #@! TF.GenerationSoftware,Altium Limited,Altium Designer,21.0.8 (223)*
G04*
G04 Layer_Color=65535*
%FSLAX44Y44*%
%MOMM*%
G71*
G04*
G04 #@! TF.SameCoordinates,CB068B56-A197-48A0-A871-B344E5AE3D22*
G04*
G04*
G04 #@! TF.FilePolarity,Positive*
G04*
G01*
G75*
%ADD10C,0.2000*%
%ADD11C,0.5000*%
%ADD12C,0.4000*%
%ADD13C,0.1500*%
G36*
X390311Y457589D02*
X385392D01*
Y462118D01*
X390311D01*
Y457589D01*
D02*
G37*
G36*
X545650Y436469D02*
X541082D01*
Y439162D01*
X541043Y439084D01*
X540887Y438889D01*
X540614Y438616D01*
X540302Y438264D01*
X539911Y437913D01*
X539443Y437484D01*
X538935Y437132D01*
X538350Y436781D01*
X538271Y436742D01*
X538076Y436664D01*
X537803Y436547D01*
X537413Y436390D01*
X536944Y436234D01*
X536398Y436117D01*
X535851Y436039D01*
X535266Y436000D01*
X534953D01*
X534719Y436039D01*
X534446Y436078D01*
X534133Y436156D01*
X533391Y436312D01*
X532533Y436625D01*
X532064Y436820D01*
X531596Y437093D01*
X531127Y437366D01*
X530698Y437718D01*
X530229Y438108D01*
X529800Y438577D01*
X529761Y438616D01*
X529722Y438694D01*
X529605Y438850D01*
X529449Y439045D01*
X529292Y439318D01*
X529097Y439631D01*
X528863Y440021D01*
X528668Y440451D01*
X528473Y440919D01*
X528238Y441466D01*
X528043Y442051D01*
X527887Y442715D01*
X527731Y443378D01*
X527653Y444120D01*
X527575Y444940D01*
X527536Y445760D01*
Y445799D01*
Y445955D01*
Y446228D01*
X527575Y446541D01*
X527614Y446931D01*
X527653Y447400D01*
X527731Y447907D01*
X527809Y448415D01*
X528082Y449586D01*
X528473Y450796D01*
X528707Y451382D01*
X529019Y451928D01*
X529331Y452475D01*
X529722Y452943D01*
X529761Y452982D01*
X529839Y453060D01*
X529956Y453177D01*
X530112Y453334D01*
X530346Y453529D01*
X530620Y453724D01*
X530932Y453958D01*
X531244Y454193D01*
X531635Y454427D01*
X532064Y454661D01*
X533040Y455051D01*
X533548Y455208D01*
X534133Y455325D01*
X534719Y455403D01*
X535344Y455442D01*
X535656D01*
X535851Y455403D01*
X536124Y455364D01*
X536437Y455286D01*
X537178Y455130D01*
X537998Y454817D01*
X538467Y454583D01*
X538935Y454349D01*
X539365Y454036D01*
X539833Y453685D01*
X540302Y453295D01*
X540731Y452826D01*
Y462118D01*
X545650D01*
Y436469D01*
D02*
G37*
G36*
X523866Y455403D02*
X524295Y455325D01*
X524764Y455208D01*
X525349Y455051D01*
X525935Y454817D01*
X526521Y454505D01*
X524998Y450210D01*
X524959Y450249D01*
X524803Y450328D01*
X524529Y450484D01*
X524256Y450640D01*
X523866Y450757D01*
X523475Y450913D01*
X523085Y450991D01*
X522656Y451030D01*
X522499D01*
X522304Y450991D01*
X522070Y450952D01*
X521797Y450874D01*
X521484Y450796D01*
X521172Y450640D01*
X520899Y450445D01*
X520860Y450406D01*
X520782Y450328D01*
X520665Y450172D01*
X520508Y449976D01*
X520313Y449703D01*
X520118Y449313D01*
X519923Y448883D01*
X519767Y448376D01*
Y448298D01*
X519728Y448219D01*
X519689Y448063D01*
Y447907D01*
X519650Y447673D01*
X519610Y447361D01*
X519571Y447048D01*
X519532Y446658D01*
X519493Y446228D01*
X519454Y445721D01*
Y445135D01*
X519415Y444511D01*
X519376Y443808D01*
Y443027D01*
Y442168D01*
Y436469D01*
X514457D01*
Y455051D01*
X519025D01*
Y452436D01*
X519064Y452475D01*
X519220Y452709D01*
X519454Y453021D01*
X519728Y453412D01*
X520040Y453841D01*
X520391Y454232D01*
X520782Y454583D01*
X521133Y454856D01*
X521172Y454895D01*
X521289Y454934D01*
X521484Y455051D01*
X521758Y455169D01*
X522070Y455247D01*
X522421Y455364D01*
X522812Y455403D01*
X523241Y455442D01*
X523515D01*
X523866Y455403D01*
D02*
G37*
G36*
X406512D02*
X406903Y455364D01*
X407371Y455286D01*
X407879Y455208D01*
X408386Y455051D01*
X408894Y454856D01*
X408972Y454817D01*
X409128Y454739D01*
X409362Y454622D01*
X409635Y454466D01*
X409987Y454232D01*
X410299Y453958D01*
X410650Y453685D01*
X410924Y453334D01*
X410963Y453295D01*
X411041Y453177D01*
X411158Y452982D01*
X411314Y452748D01*
X411470Y452436D01*
X411626Y452084D01*
X411783Y451694D01*
X411900Y451265D01*
Y451226D01*
X411939Y451069D01*
X411978Y450796D01*
X412056Y450445D01*
X412095Y449976D01*
X412134Y449391D01*
X412173Y448727D01*
Y447985D01*
Y436469D01*
X407254D01*
Y445916D01*
Y445955D01*
Y446033D01*
Y446189D01*
Y446385D01*
Y446658D01*
Y446931D01*
X407215Y447517D01*
X407176Y448180D01*
X407098Y448805D01*
X407020Y449352D01*
X406981Y449586D01*
X406903Y449781D01*
Y449820D01*
X406864Y449937D01*
X406786Y450093D01*
X406668Y450289D01*
X406356Y450757D01*
X405888Y451186D01*
X405849Y451226D01*
X405770Y451265D01*
X405614Y451343D01*
X405419Y451460D01*
X405185Y451538D01*
X404873Y451616D01*
X404560Y451655D01*
X404209Y451694D01*
X403975D01*
X403740Y451655D01*
X403428Y451616D01*
X403077Y451538D01*
X402686Y451382D01*
X402296Y451226D01*
X401906Y450991D01*
X401866Y450952D01*
X401749Y450874D01*
X401593Y450718D01*
X401359Y450484D01*
X401164Y450210D01*
X400929Y449898D01*
X400695Y449547D01*
X400539Y449117D01*
Y449078D01*
X400500Y448883D01*
X400422Y448610D01*
X400383Y448180D01*
X400344Y447907D01*
X400305Y447595D01*
X400266Y447243D01*
X400227Y446853D01*
Y446424D01*
X400188Y445955D01*
Y445409D01*
Y444862D01*
Y436469D01*
X395269D01*
Y455051D01*
X399836D01*
Y452319D01*
X399875Y452358D01*
X399953Y452436D01*
X400071Y452592D01*
X400266Y452826D01*
X400500Y453060D01*
X400812Y453295D01*
X401125Y453607D01*
X401515Y453880D01*
X401945Y454154D01*
X402374Y454466D01*
X402882Y454700D01*
X403428Y454973D01*
X404014Y455169D01*
X404599Y455325D01*
X405263Y455403D01*
X405927Y455442D01*
X406200D01*
X406512Y455403D01*
D02*
G37*
G36*
X424861D02*
X425251Y455364D01*
X426071Y455286D01*
X426969Y455130D01*
X427945Y454934D01*
X428804Y454622D01*
X429233Y454427D01*
X429585Y454193D01*
X429624D01*
X429663Y454154D01*
X429897Y453958D01*
X430209Y453685D01*
X430600Y453256D01*
X431029Y452748D01*
X431459Y452123D01*
X431849Y451421D01*
X432161Y450562D01*
X427516Y449703D01*
Y449742D01*
X427438Y449859D01*
X427359Y450054D01*
X427242Y450289D01*
X427086Y450562D01*
X426891Y450835D01*
X426657Y451108D01*
X426344Y451343D01*
X426305Y451382D01*
X426188Y451421D01*
X425993Y451538D01*
X425759Y451655D01*
X425407Y451733D01*
X425017Y451850D01*
X424549Y451889D01*
X424002Y451928D01*
X423690D01*
X423338Y451889D01*
X422909Y451850D01*
X422011Y451694D01*
X421582Y451577D01*
X421230Y451382D01*
X421191D01*
X421152Y451304D01*
X420957Y451108D01*
X420762Y450796D01*
X420723Y450601D01*
X420684Y450367D01*
Y450328D01*
Y450289D01*
X420762Y450054D01*
X420879Y449742D01*
X420996Y449625D01*
X421152Y449469D01*
X421191Y449430D01*
X421308Y449391D01*
X421582Y449273D01*
X421738Y449196D01*
X421972Y449117D01*
X422245Y449000D01*
X422557Y448922D01*
X422948Y448805D01*
X423377Y448649D01*
X423846Y448532D01*
X424392Y448376D01*
X425017Y448219D01*
X425720Y448063D01*
X425759D01*
X425876Y448024D01*
X426110Y447985D01*
X426344Y447907D01*
X426696Y447829D01*
X427047Y447712D01*
X427906Y447478D01*
X428804Y447165D01*
X429702Y446775D01*
X430522Y446346D01*
X430912Y446111D01*
X431224Y445877D01*
X431302Y445799D01*
X431459Y445643D01*
X431732Y445331D01*
X432005Y444940D01*
X432279Y444433D01*
X432552Y443769D01*
X432708Y443066D01*
X432786Y442207D01*
Y442168D01*
Y442090D01*
Y441973D01*
X432747Y441778D01*
X432708Y441583D01*
X432669Y441309D01*
X432513Y440724D01*
X432279Y440021D01*
X431888Y439279D01*
X431654Y438928D01*
X431342Y438538D01*
X431029Y438186D01*
X430639Y437835D01*
X430600D01*
X430561Y437757D01*
X430405Y437679D01*
X430248Y437562D01*
X430014Y437405D01*
X429741Y437249D01*
X429429Y437093D01*
X429077Y436937D01*
X428648Y436742D01*
X428179Y436586D01*
X427672Y436429D01*
X427086Y436273D01*
X426501Y436156D01*
X425837Y436078D01*
X425095Y436039D01*
X424353Y436000D01*
X424002D01*
X423729Y436039D01*
X423416D01*
X423026Y436078D01*
X422636Y436117D01*
X422167Y436195D01*
X421230Y436390D01*
X420215Y436625D01*
X419239Y437015D01*
X418341Y437523D01*
X418302D01*
X418263Y437601D01*
X418146Y437679D01*
X417990Y437796D01*
X417599Y438147D01*
X417170Y438616D01*
X416702Y439201D01*
X416233Y439943D01*
X415804Y440763D01*
X415491Y441700D01*
X420410Y442442D01*
Y442364D01*
X420488Y442207D01*
X420566Y441934D01*
X420684Y441622D01*
X420840Y441270D01*
X421074Y440919D01*
X421347Y440568D01*
X421660Y440255D01*
X421699Y440216D01*
X421855Y440138D01*
X422050Y440021D01*
X422362Y439904D01*
X422753Y439787D01*
X423221Y439670D01*
X423729Y439592D01*
X424353Y439553D01*
X424666D01*
X425017Y439592D01*
X425407Y439631D01*
X425876Y439709D01*
X426344Y439826D01*
X426813Y439982D01*
X427203Y440216D01*
X427242Y440255D01*
X427320Y440294D01*
X427398Y440411D01*
X427555Y440568D01*
X427750Y440997D01*
X427828Y441270D01*
X427867Y441544D01*
Y441583D01*
Y441661D01*
X427828Y441895D01*
X427711Y442168D01*
X427516Y442481D01*
X427438Y442559D01*
X427320Y442598D01*
X427164Y442715D01*
X426930Y442793D01*
X426657Y442910D01*
X426266Y443027D01*
X425837Y443144D01*
X425759D01*
X425564Y443222D01*
X425290Y443261D01*
X424900Y443378D01*
X424431Y443496D01*
X423885Y443613D01*
X423299Y443769D01*
X422675Y443925D01*
X421386Y444277D01*
X420762Y444472D01*
X420137Y444706D01*
X419590Y444901D01*
X419083Y445096D01*
X418654Y445331D01*
X418302Y445526D01*
X418263D01*
X418224Y445604D01*
X417951Y445799D01*
X417599Y446150D01*
X417209Y446619D01*
X416819Y447204D01*
X416467Y447946D01*
X416194Y448766D01*
X416155Y449235D01*
X416116Y449703D01*
Y449742D01*
Y449820D01*
Y449937D01*
X416155Y450093D01*
X416233Y450562D01*
X416350Y451108D01*
X416585Y451772D01*
X416897Y452436D01*
X417365Y453139D01*
X417678Y453451D01*
X417990Y453763D01*
X418029Y453802D01*
X418068Y453841D01*
X418185Y453919D01*
X418341Y454036D01*
X418576Y454154D01*
X418810Y454310D01*
X419122Y454466D01*
X419434Y454622D01*
X419825Y454778D01*
X420293Y454895D01*
X420762Y455051D01*
X421308Y455169D01*
X421894Y455286D01*
X422519Y455364D01*
X423182Y455442D01*
X424549D01*
X424861Y455403D01*
D02*
G37*
G36*
X502823D02*
X503136D01*
X503877Y455364D01*
X504658Y455247D01*
X505478Y455130D01*
X506259Y454934D01*
X506610Y454817D01*
X506923Y454661D01*
X507001Y454622D01*
X507196Y454505D01*
X507469Y454349D01*
X507821Y454114D01*
X508172Y453841D01*
X508562Y453490D01*
X508914Y453099D01*
X509187Y452670D01*
X509226Y452631D01*
X509304Y452436D01*
X509382Y452123D01*
X509538Y451655D01*
X509577Y451382D01*
X509655Y451069D01*
X509694Y450718D01*
X509733Y450289D01*
X509772Y449859D01*
X509812Y449352D01*
X509851Y448844D01*
Y448259D01*
X509772Y442559D01*
Y442520D01*
Y442442D01*
Y442324D01*
Y442168D01*
Y441739D01*
X509812Y441192D01*
Y440607D01*
X509890Y439982D01*
X509929Y439436D01*
X510007Y438928D01*
Y438889D01*
X510046Y438733D01*
X510124Y438499D01*
X510202Y438186D01*
X510319Y437835D01*
X510475Y437405D01*
X510670Y436976D01*
X510905Y436469D01*
X506064D01*
Y436507D01*
X506025Y436547D01*
X505986Y436664D01*
X505947Y436820D01*
X505868Y437015D01*
X505751Y437249D01*
X505673Y437562D01*
X505556Y437874D01*
Y437913D01*
Y437952D01*
X505478Y438108D01*
X505439Y438303D01*
X505400Y438460D01*
X505361Y438420D01*
X505166Y438264D01*
X504931Y438030D01*
X504580Y437757D01*
X504190Y437444D01*
X503721Y437132D01*
X503253Y436859D01*
X502706Y436586D01*
X502628Y436547D01*
X502472Y436507D01*
X502160Y436390D01*
X501769Y436312D01*
X501340Y436195D01*
X500832Y436078D01*
X500247Y436039D01*
X499661Y436000D01*
X499388D01*
X499193Y436039D01*
X498958D01*
X498646Y436078D01*
X498022Y436195D01*
X497280Y436390D01*
X496538Y436625D01*
X495796Y437015D01*
X495132Y437523D01*
X495055Y437601D01*
X494859Y437796D01*
X494625Y438147D01*
X494313Y438616D01*
X494000Y439201D01*
X493766Y439865D01*
X493571Y440646D01*
X493493Y441505D01*
Y441583D01*
Y441778D01*
X493532Y442051D01*
X493571Y442442D01*
X493688Y442871D01*
X493805Y443340D01*
X494000Y443808D01*
X494235Y444277D01*
X494274Y444315D01*
X494391Y444472D01*
X494547Y444706D01*
X494781Y444979D01*
X495055Y445291D01*
X495406Y445604D01*
X495835Y445916D01*
X496304Y446189D01*
X496382Y446228D01*
X496577Y446306D01*
X496889Y446424D01*
X497319Y446580D01*
X497865Y446775D01*
X498529Y446970D01*
X499310Y447165D01*
X500208Y447361D01*
X500247D01*
X500364Y447400D01*
X500520Y447439D01*
X500754Y447478D01*
X501067Y447517D01*
X501379Y447595D01*
X502121Y447751D01*
X502901Y447946D01*
X503682Y448141D01*
X504424Y448337D01*
X504736Y448454D01*
X505010Y448571D01*
Y449039D01*
Y449117D01*
Y449273D01*
X504971Y449508D01*
X504931Y449820D01*
X504853Y450172D01*
X504697Y450484D01*
X504541Y450796D01*
X504307Y451069D01*
X504268Y451108D01*
X504151Y451186D01*
X503995Y451265D01*
X503721Y451382D01*
X503370Y451499D01*
X502901Y451616D01*
X502316Y451655D01*
X501652Y451694D01*
X501418D01*
X501184Y451655D01*
X500910Y451616D01*
X500208Y451460D01*
X499895Y451343D01*
X499583Y451147D01*
X499544Y451108D01*
X499466Y451030D01*
X499310Y450913D01*
X499154Y450718D01*
X498958Y450484D01*
X498763Y450172D01*
X498568Y449781D01*
X498412Y449352D01*
X494000Y450172D01*
Y450210D01*
X494039Y450289D01*
X494078Y450445D01*
X494156Y450601D01*
X494352Y451069D01*
X494586Y451655D01*
X494937Y452319D01*
X495406Y452943D01*
X495952Y453568D01*
X496577Y454114D01*
X496616D01*
X496655Y454154D01*
X496772Y454232D01*
X496928Y454310D01*
X497124Y454427D01*
X497358Y454544D01*
X497631Y454661D01*
X497943Y454778D01*
X498295Y454895D01*
X498724Y455012D01*
X499154Y455130D01*
X499661Y455247D01*
X500169Y455325D01*
X500754Y455403D01*
X501340Y455442D01*
X502550D01*
X502823Y455403D01*
D02*
G37*
G36*
X459060Y462079D02*
X459801Y462040D01*
X460543Y462001D01*
X461246Y461922D01*
X461871Y461844D01*
X461949D01*
X462144Y461805D01*
X462417Y461727D01*
X462769Y461610D01*
X463198Y461493D01*
X463666Y461298D01*
X464096Y461064D01*
X464564Y460790D01*
X464603Y460751D01*
X464760Y460634D01*
X464994Y460478D01*
X465267Y460205D01*
X465540Y459892D01*
X465892Y459541D01*
X466204Y459112D01*
X466516Y458643D01*
X466555Y458565D01*
X466633Y458409D01*
X466790Y458136D01*
X466946Y457784D01*
X467063Y457316D01*
X467219Y456808D01*
X467297Y456262D01*
X467336Y455637D01*
Y455559D01*
Y455325D01*
X467297Y454973D01*
X467219Y454544D01*
X467102Y454036D01*
X466907Y453490D01*
X466673Y452904D01*
X466360Y452319D01*
X466321Y452241D01*
X466165Y452084D01*
X465970Y451811D01*
X465658Y451499D01*
X465267Y451108D01*
X464838Y450757D01*
X464291Y450406D01*
X463705Y450093D01*
X463745D01*
X463823Y450054D01*
X463940Y450015D01*
X464096Y449976D01*
X464525Y449781D01*
X465033Y449547D01*
X465618Y449235D01*
X466204Y448844D01*
X466790Y448337D01*
X467297Y447751D01*
X467336Y447673D01*
X467492Y447478D01*
X467688Y447126D01*
X467961Y446658D01*
X468195Y446072D01*
X468390Y445448D01*
X468546Y444706D01*
X468586Y443886D01*
Y443808D01*
Y443574D01*
X468546Y443261D01*
X468468Y442793D01*
X468390Y442285D01*
X468234Y441700D01*
X468039Y441114D01*
X467766Y440490D01*
X467727Y440411D01*
X467609Y440216D01*
X467414Y439904D01*
X467180Y439553D01*
X466868Y439123D01*
X466477Y438694D01*
X466048Y438225D01*
X465540Y437835D01*
X465462Y437796D01*
X465306Y437679D01*
X464994Y437523D01*
X464564Y437327D01*
X464057Y437093D01*
X463471Y436898D01*
X462808Y436742D01*
X462066Y436625D01*
X461910D01*
X461792Y436586D01*
X461402D01*
X461129Y436547D01*
X460426D01*
X459958Y436507D01*
X458904D01*
X458240Y436469D01*
X447114D01*
Y462118D01*
X458396D01*
X459060Y462079D01*
D02*
G37*
G36*
X390311Y436469D02*
X385392D01*
Y455051D01*
X390311D01*
Y436469D01*
D02*
G37*
G36*
X371845Y462079D02*
X372352D01*
X373406Y462039D01*
X374422Y461962D01*
X374890Y461922D01*
X375319Y461844D01*
X375671Y461805D01*
X375983Y461727D01*
X376022D01*
X376100Y461688D01*
X376178Y461649D01*
X376334Y461610D01*
X376764Y461454D01*
X377271Y461181D01*
X377857Y460868D01*
X378443Y460400D01*
X379067Y459853D01*
X379653Y459190D01*
Y459151D01*
X379731Y459112D01*
X379809Y458994D01*
X379887Y458838D01*
X380004Y458643D01*
X380121Y458409D01*
X380434Y457862D01*
X380707Y457121D01*
X380941Y456262D01*
X381097Y455286D01*
X381175Y454193D01*
Y454154D01*
Y454075D01*
Y453958D01*
Y453802D01*
X381136Y453373D01*
X381058Y452826D01*
X380980Y452201D01*
X380824Y451538D01*
X380590Y450874D01*
X380317Y450249D01*
X380277Y450171D01*
X380160Y449976D01*
X379965Y449703D01*
X379731Y449352D01*
X379419Y448922D01*
X379028Y448493D01*
X378599Y448102D01*
X378130Y447712D01*
X378091Y447673D01*
X377896Y447556D01*
X377623Y447400D01*
X377310Y447243D01*
X376881Y447009D01*
X376451Y446814D01*
X375944Y446658D01*
X375437Y446502D01*
X375358D01*
X375241Y446463D01*
X375085D01*
X374890Y446424D01*
X374656Y446385D01*
X374382Y446345D01*
X374070D01*
X373719Y446306D01*
X373328Y446268D01*
X372899Y446228D01*
X372391Y446189D01*
X371884D01*
X371337Y446150D01*
X366731D01*
Y436469D01*
X361538D01*
Y462118D01*
X371376D01*
X371845Y462079D01*
D02*
G37*
G36*
X329682Y462157D02*
X329994Y462118D01*
X330385Y462079D01*
X330775Y462039D01*
X331244Y461922D01*
X332180Y461688D01*
X333195Y461337D01*
X333664Y461103D01*
X334171Y460829D01*
X334601Y460478D01*
X335030Y460127D01*
X335069Y460088D01*
X335108Y460048D01*
X335225Y459931D01*
X335382Y459775D01*
X335538Y459580D01*
X335733Y459307D01*
X336123Y458721D01*
X336514Y457979D01*
X336865Y457121D01*
X337138Y456144D01*
X337178Y455598D01*
X337216Y455051D01*
Y454973D01*
Y454778D01*
X337178Y454427D01*
X337138Y453997D01*
X337060Y453490D01*
X336943Y452943D01*
X336787Y452319D01*
X336592Y451733D01*
X336553Y451655D01*
X336475Y451460D01*
X336319Y451147D01*
X336123Y450757D01*
X335850Y450249D01*
X335499Y449703D01*
X335069Y449117D01*
X334601Y448493D01*
X334562Y448454D01*
X334445Y448298D01*
X334211Y448024D01*
X333859Y447673D01*
X333430Y447204D01*
X332844Y446619D01*
X332180Y445955D01*
X331361Y445213D01*
X331321Y445174D01*
X331244Y445135D01*
X331126Y445018D01*
X331009Y444862D01*
X330619Y444511D01*
X330150Y444042D01*
X329643Y443574D01*
X329174Y443105D01*
X328745Y442676D01*
X328589Y442520D01*
X328433Y442364D01*
X328394Y442324D01*
X328316Y442246D01*
X328198Y442129D01*
X328081Y441934D01*
X327730Y441544D01*
X327418Y441036D01*
X337216D01*
Y436469D01*
X320000D01*
Y436507D01*
Y436586D01*
X320039Y436742D01*
X320078Y436898D01*
X320117Y437132D01*
X320156Y437405D01*
X320312Y438030D01*
X320508Y438811D01*
X320820Y439631D01*
X321171Y440490D01*
X321640Y441348D01*
Y441387D01*
X321718Y441466D01*
X321796Y441583D01*
X321913Y441778D01*
X322108Y442012D01*
X322303Y442285D01*
X322577Y442637D01*
X322850Y442988D01*
X323201Y443418D01*
X323631Y443886D01*
X324060Y444394D01*
X324568Y444940D01*
X325153Y445526D01*
X325739Y446150D01*
X326442Y446814D01*
X327183Y447517D01*
X327222Y447556D01*
X327340Y447634D01*
X327496Y447829D01*
X327730Y448024D01*
X327964Y448259D01*
X328276Y448571D01*
X328940Y449195D01*
X329643Y449898D01*
X330307Y450601D01*
X330619Y450913D01*
X330892Y451186D01*
X331126Y451460D01*
X331283Y451694D01*
X331321Y451772D01*
X331439Y451967D01*
X331595Y452240D01*
X331790Y452631D01*
X331985Y453099D01*
X332141Y453607D01*
X332258Y454154D01*
X332298Y454700D01*
Y454778D01*
Y454973D01*
X332258Y455286D01*
X332180Y455637D01*
X332063Y456027D01*
X331907Y456457D01*
X331712Y456886D01*
X331400Y457238D01*
X331361Y457277D01*
X331244Y457394D01*
X331048Y457511D01*
X330775Y457706D01*
X330424Y457862D01*
X329994Y457979D01*
X329487Y458097D01*
X328940Y458136D01*
X328706D01*
X328394Y458097D01*
X328081Y458018D01*
X327691Y457901D01*
X327261Y457745D01*
X326871Y457511D01*
X326481Y457199D01*
X326442Y457160D01*
X326324Y457003D01*
X326207Y456808D01*
X326012Y456457D01*
X325856Y456027D01*
X325661Y455520D01*
X325544Y454856D01*
X325466Y454114D01*
X320586Y454583D01*
Y454622D01*
X320625Y454778D01*
Y454973D01*
X320703Y455247D01*
X320742Y455598D01*
X320859Y455949D01*
X320937Y456379D01*
X321093Y456847D01*
X321445Y457784D01*
X321913Y458760D01*
X322225Y459229D01*
X322538Y459658D01*
X322928Y460048D01*
X323318Y460400D01*
X323357Y460439D01*
X323436Y460478D01*
X323553Y460556D01*
X323748Y460673D01*
X323943Y460829D01*
X324216Y460985D01*
X324529Y461142D01*
X324919Y461298D01*
X325309Y461454D01*
X325739Y461610D01*
X326715Y461922D01*
X327808Y462118D01*
X328433Y462196D01*
X329409D01*
X329682Y462157D01*
D02*
G37*
G36*
X482015Y455403D02*
X482366Y455364D01*
X482796Y455286D01*
X483225Y455208D01*
X483733Y455090D01*
X484280Y454934D01*
X484826Y454778D01*
X485412Y454544D01*
X485958Y454271D01*
X486544Y453958D01*
X487129Y453568D01*
X487676Y453177D01*
X488184Y452670D01*
X488223Y452631D01*
X488301Y452553D01*
X488418Y452397D01*
X488613Y452163D01*
X488808Y451928D01*
X489042Y451577D01*
X489277Y451226D01*
X489550Y450796D01*
X489784Y450289D01*
X490018Y449781D01*
X490253Y449196D01*
X490448Y448610D01*
X490643Y447946D01*
X490760Y447243D01*
X490838Y446541D01*
X490877Y445760D01*
Y445721D01*
Y445565D01*
Y445370D01*
X490838Y445057D01*
X490799Y444706D01*
X490721Y444277D01*
X490643Y443808D01*
X490526Y443301D01*
X490409Y442754D01*
X490214Y442207D01*
X489979Y441622D01*
X489745Y441036D01*
X489394Y440451D01*
X489042Y439865D01*
X488613Y439318D01*
X488144Y438772D01*
X488105Y438733D01*
X488027Y438655D01*
X487871Y438499D01*
X487676Y438342D01*
X487403Y438147D01*
X487090Y437913D01*
X486700Y437640D01*
X486270Y437405D01*
X485802Y437132D01*
X485294Y436859D01*
X484748Y436625D01*
X484123Y436429D01*
X483499Y436273D01*
X482796Y436117D01*
X482054Y436039D01*
X481312Y436000D01*
X480883D01*
X480649Y436039D01*
X480376Y436078D01*
X479751Y436156D01*
X479009Y436273D01*
X478189Y436469D01*
X477330Y436742D01*
X476471Y437132D01*
X476432D01*
X476354Y437171D01*
X476237Y437249D01*
X476081Y437366D01*
X475691Y437640D01*
X475183Y437991D01*
X474598Y438460D01*
X474012Y439045D01*
X473465Y439748D01*
X472958Y440529D01*
Y440568D01*
X472919Y440646D01*
X472841Y440763D01*
X472763Y440919D01*
X472685Y441153D01*
X472607Y441387D01*
X472490Y441700D01*
X472372Y442051D01*
X472177Y442832D01*
X471982Y443769D01*
X471826Y444823D01*
X471787Y445955D01*
Y445994D01*
Y446072D01*
Y446189D01*
X471826Y446385D01*
Y446580D01*
X471865Y446853D01*
X471943Y447478D01*
X472060Y448219D01*
X472294Y449000D01*
X472567Y449859D01*
X472958Y450718D01*
Y450757D01*
X472997Y450835D01*
X473075Y450952D01*
X473192Y451108D01*
X473465Y451499D01*
X473856Y452006D01*
X474324Y452592D01*
X474910Y453177D01*
X475574Y453724D01*
X476354Y454232D01*
X476393D01*
X476471Y454271D01*
X476589Y454349D01*
X476745Y454427D01*
X476940Y454505D01*
X477213Y454622D01*
X477799Y454856D01*
X478541Y455051D01*
X479399Y455247D01*
X480297Y455403D01*
X481312Y455442D01*
X481703D01*
X482015Y455403D01*
D02*
G37*
G36*
X349397Y462157D02*
X349709D01*
X350061Y462118D01*
X350451Y462039D01*
X350881Y461962D01*
X351778Y461727D01*
X352715Y461415D01*
X353652Y460946D01*
X354082Y460634D01*
X354472Y460322D01*
X354511Y460283D01*
X354550Y460244D01*
X354667Y460127D01*
X354785Y459970D01*
X355097Y459580D01*
X355487Y459034D01*
X355878Y458331D01*
X356190Y457511D01*
X356424Y456613D01*
X356463Y456105D01*
X356502Y455559D01*
Y455481D01*
Y455247D01*
X356463Y454934D01*
X356385Y454505D01*
X356268Y453997D01*
X356112Y453490D01*
X355878Y452943D01*
X355565Y452397D01*
X355526Y452319D01*
X355409Y452163D01*
X355175Y451928D01*
X354902Y451616D01*
X354511Y451265D01*
X354082Y450913D01*
X353535Y450601D01*
X352950Y450289D01*
X352989D01*
X353028Y450249D01*
X353145Y450210D01*
X353301Y450132D01*
X353691Y449937D01*
X354160Y449664D01*
X354667Y449313D01*
X355214Y448883D01*
X355721Y448376D01*
X356190Y447790D01*
X356229Y447712D01*
X356385Y447517D01*
X356541Y447165D01*
X356776Y446697D01*
X356971Y446150D01*
X357166Y445487D01*
X357283Y444745D01*
X357322Y443964D01*
Y443925D01*
Y443808D01*
Y443613D01*
X357283Y443378D01*
X357244Y443066D01*
X357205Y442715D01*
X357127Y442324D01*
X357049Y441895D01*
X356776Y440997D01*
X356580Y440529D01*
X356346Y440021D01*
X356073Y439553D01*
X355799Y439084D01*
X355409Y438616D01*
X355019Y438186D01*
X354980Y438147D01*
X354902Y438108D01*
X354785Y437991D01*
X354589Y437835D01*
X354394Y437679D01*
X354121Y437483D01*
X353769Y437288D01*
X353418Y437093D01*
X353028Y436898D01*
X352559Y436703D01*
X352052Y436507D01*
X351544Y436351D01*
X350959Y436195D01*
X350334Y436078D01*
X349709Y436039D01*
X349007Y436000D01*
X348655D01*
X348421Y436039D01*
X348109D01*
X347757Y436117D01*
X347367Y436156D01*
X346977Y436234D01*
X346040Y436469D01*
X345064Y436781D01*
X344088Y437249D01*
X343619Y437523D01*
X343190Y437835D01*
X343151Y437874D01*
X343073Y437952D01*
X342955Y438069D01*
X342760Y438225D01*
X342565Y438460D01*
X342331Y438733D01*
X342096Y439045D01*
X341823Y439397D01*
X341589Y439787D01*
X341316Y440216D01*
X341082Y440724D01*
X340886Y441231D01*
X340691Y441817D01*
X340574Y442442D01*
X340496Y443066D01*
X340457Y443769D01*
Y443808D01*
Y443847D01*
Y443964D01*
Y444120D01*
X340496Y444511D01*
X340574Y445018D01*
X340691Y445604D01*
X340886Y446268D01*
X341120Y446931D01*
X341472Y447595D01*
Y447634D01*
X341511Y447673D01*
X341667Y447868D01*
X341901Y448219D01*
X342253Y448610D01*
X342721Y449039D01*
X343268Y449469D01*
X343931Y449898D01*
X344712Y450289D01*
X344673D01*
X344634Y450328D01*
X344400Y450445D01*
X344088Y450601D01*
X343658Y450874D01*
X343229Y451147D01*
X342760Y451538D01*
X342331Y451967D01*
X341979Y452475D01*
X341940Y452553D01*
X341862Y452709D01*
X341706Y453021D01*
X341550Y453373D01*
X341394Y453841D01*
X341238Y454388D01*
X341160Y454934D01*
X341120Y455559D01*
Y455598D01*
Y455676D01*
Y455832D01*
X341160Y456027D01*
X341199Y456301D01*
X341238Y456574D01*
X341355Y457238D01*
X341589Y457979D01*
X341979Y458799D01*
X342175Y459190D01*
X342448Y459580D01*
X342760Y459970D01*
X343112Y460322D01*
X343151Y460361D01*
X343190Y460400D01*
X343307Y460478D01*
X343463Y460634D01*
X343697Y460751D01*
X343931Y460907D01*
X344244Y461103D01*
X344556Y461259D01*
X344946Y461454D01*
X345376Y461610D01*
X345844Y461766D01*
X346352Y461922D01*
X346898Y462039D01*
X347484Y462118D01*
X348148Y462157D01*
X348811Y462196D01*
X349163D01*
X349397Y462157D01*
D02*
G37*
%LPC*%
G36*
X536632Y451694D02*
X536554D01*
X536359Y451655D01*
X536046Y451616D01*
X535617Y451538D01*
X535187Y451343D01*
X534680Y451108D01*
X534211Y450757D01*
X533743Y450289D01*
X533704Y450210D01*
X533548Y450015D01*
X533391Y449703D01*
X533157Y449235D01*
X532962Y448649D01*
X532767Y447946D01*
X532611Y447087D01*
X532572Y446111D01*
Y446072D01*
Y445994D01*
Y445838D01*
Y445604D01*
X532611Y445370D01*
Y445096D01*
X532689Y444433D01*
X532767Y443730D01*
X532884Y443027D01*
X533079Y442364D01*
X533235Y442051D01*
X533353Y441778D01*
Y441739D01*
X533391Y441700D01*
X533587Y441466D01*
X533860Y441192D01*
X534211Y440841D01*
X534680Y440490D01*
X535266Y440177D01*
X535929Y439943D01*
X536281Y439904D01*
X536671Y439865D01*
X536749D01*
X536944Y439904D01*
X537257Y439943D01*
X537647Y440060D01*
X538115Y440216D01*
X538584Y440490D01*
X539052Y440841D01*
X539521Y441310D01*
X539560Y441387D01*
X539716Y441583D01*
X539911Y441934D01*
X540145Y442403D01*
X540341Y442988D01*
X540536Y443730D01*
X540692Y444628D01*
X540731Y445643D01*
Y445682D01*
Y445799D01*
Y445955D01*
Y446150D01*
X540692Y446424D01*
X540653Y446736D01*
X540575Y447439D01*
X540458Y448181D01*
X540224Y448922D01*
X539950Y449664D01*
X539755Y449976D01*
X539560Y450250D01*
X539521Y450328D01*
X539365Y450484D01*
X539091Y450718D01*
X538779Y450991D01*
X538350Y451226D01*
X537842Y451460D01*
X537257Y451616D01*
X536632Y451694D01*
D02*
G37*
G36*
X505010Y445370D02*
X504971D01*
X504814Y445291D01*
X504580Y445252D01*
X504268Y445135D01*
X503838Y445018D01*
X503331Y444901D01*
X502706Y444745D01*
X502004Y444589D01*
X501926D01*
X501691Y444511D01*
X501340Y444433D01*
X500910Y444315D01*
X500481Y444198D01*
X500013Y444042D01*
X499661Y443886D01*
X499349Y443730D01*
X499310Y443691D01*
X499193Y443613D01*
X499036Y443457D01*
X498880Y443261D01*
X498724Y443027D01*
X498568Y442715D01*
X498451Y442402D01*
X498412Y442012D01*
Y441973D01*
Y441856D01*
X498451Y441622D01*
X498490Y441387D01*
X498607Y441114D01*
X498724Y440802D01*
X498919Y440490D01*
X499154Y440216D01*
X499193Y440177D01*
X499310Y440099D01*
X499466Y439982D01*
X499700Y439865D01*
X499973Y439709D01*
X500325Y439592D01*
X500676Y439514D01*
X501106Y439475D01*
X501340D01*
X501574Y439514D01*
X501926Y439592D01*
X502316Y439670D01*
X502745Y439826D01*
X503175Y440060D01*
X503643Y440333D01*
X503682Y440373D01*
X503799Y440451D01*
X503917Y440607D01*
X504112Y440802D01*
X504307Y441036D01*
X504502Y441309D01*
X504658Y441622D01*
X504814Y441973D01*
Y442012D01*
X504853Y442090D01*
X504893Y442246D01*
X504931Y442520D01*
Y442832D01*
X504971Y443261D01*
X505010Y443730D01*
Y444355D01*
Y445370D01*
D02*
G37*
G36*
X457498Y457862D02*
X452306D01*
Y451928D01*
X457264D01*
X457928Y451967D01*
X459060D01*
X459294Y452006D01*
X459528D01*
X459684Y452045D01*
X459919Y452084D01*
X460192Y452163D01*
X460543Y452280D01*
X460895Y452436D01*
X461207Y452670D01*
X461519Y452904D01*
X461558Y452943D01*
X461636Y453060D01*
X461754Y453217D01*
X461910Y453451D01*
X462066Y453763D01*
X462183Y454075D01*
X462261Y454505D01*
X462300Y454934D01*
Y454973D01*
Y455130D01*
X462261Y455364D01*
X462222Y455598D01*
X462144Y455910D01*
X462027Y456223D01*
X461871Y456535D01*
X461636Y456847D01*
X461597Y456886D01*
X461519Y456964D01*
X461363Y457081D01*
X461129Y457238D01*
X460856Y457394D01*
X460543Y457550D01*
X460153Y457667D01*
X459684Y457745D01*
X459645D01*
X459489Y457784D01*
X459060D01*
X458825Y457823D01*
X457889D01*
X457498Y457862D01*
D02*
G37*
G36*
X457654Y447673D02*
X452306D01*
Y440802D01*
X458006D01*
X458552Y440841D01*
X459177D01*
X459762Y440880D01*
X460270Y440919D01*
X460465D01*
X460621Y440958D01*
X460660D01*
X460817Y440997D01*
X461012Y441075D01*
X461285Y441153D01*
X461558Y441309D01*
X461910Y441466D01*
X462222Y441700D01*
X462495Y441973D01*
X462534Y442012D01*
X462612Y442129D01*
X462729Y442324D01*
X462886Y442559D01*
X463003Y442871D01*
X463120Y443261D01*
X463198Y443691D01*
X463237Y444159D01*
Y444198D01*
Y444355D01*
X463198Y444550D01*
X463159Y444823D01*
X463081Y445135D01*
X463003Y445448D01*
X462847Y445799D01*
X462651Y446111D01*
X462612Y446150D01*
X462534Y446228D01*
X462417Y446385D01*
X462261Y446580D01*
X462027Y446775D01*
X461754Y446970D01*
X461441Y447126D01*
X461051Y447282D01*
X461012D01*
X460817Y447361D01*
X460543Y447400D01*
X460309Y447439D01*
X460075Y447478D01*
X459801Y447517D01*
X459450Y447556D01*
X459099Y447595D01*
X458669D01*
X458201Y447634D01*
X457654Y447673D01*
D02*
G37*
G36*
X370596Y457784D02*
X366731D01*
Y450484D01*
X370283D01*
X370556Y450523D01*
X371181D01*
X371884Y450562D01*
X372548Y450640D01*
X373133Y450757D01*
X373406Y450796D01*
X373602Y450874D01*
X373641Y450913D01*
X373758Y450952D01*
X373953Y451030D01*
X374187Y451186D01*
X374460Y451343D01*
X374734Y451577D01*
X375007Y451811D01*
X375241Y452123D01*
X375280Y452163D01*
X375319Y452280D01*
X375437Y452475D01*
X375554Y452709D01*
X375632Y452982D01*
X375749Y453334D01*
X375788Y453724D01*
X375827Y454114D01*
Y454193D01*
Y454349D01*
X375788Y454622D01*
X375710Y454934D01*
X375632Y455286D01*
X375476Y455676D01*
X375280Y456066D01*
X375007Y456418D01*
X374968Y456457D01*
X374851Y456574D01*
X374695Y456730D01*
X374422Y456925D01*
X374148Y457121D01*
X373758Y457316D01*
X373367Y457472D01*
X372899Y457589D01*
X372860D01*
X372704Y457628D01*
X372469Y457667D01*
X372118Y457706D01*
X371611D01*
X370947Y457745D01*
X370596Y457784D01*
D02*
G37*
G36*
X481312Y451421D02*
X481234D01*
X481000Y451382D01*
X480649Y451343D01*
X480180Y451226D01*
X479673Y451069D01*
X479165Y450796D01*
X478619Y450445D01*
X478111Y449937D01*
X478072Y449859D01*
X477916Y449664D01*
X477721Y449313D01*
X477486Y448844D01*
X477213Y448259D01*
X477018Y447517D01*
X476862Y446697D01*
X476823Y445721D01*
Y445682D01*
Y445604D01*
Y445448D01*
X476862Y445252D01*
Y445018D01*
X476901Y444784D01*
X476979Y444159D01*
X477135Y443457D01*
X477369Y442754D01*
X477682Y442090D01*
X478111Y441466D01*
X478189Y441387D01*
X478345Y441231D01*
X478619Y440997D01*
X479009Y440763D01*
X479478Y440490D01*
X480024Y440255D01*
X480610Y440099D01*
X481312Y440021D01*
X481390D01*
X481625Y440060D01*
X481976Y440099D01*
X482445Y440216D01*
X482952Y440373D01*
X483460Y440646D01*
X484006Y440997D01*
X484514Y441466D01*
X484553Y441544D01*
X484709Y441739D01*
X484943Y442090D01*
X485177Y442559D01*
X485412Y443144D01*
X485646Y443886D01*
X485802Y444745D01*
X485841Y445721D01*
Y445760D01*
Y445838D01*
Y445994D01*
Y446189D01*
X485802Y446385D01*
X485763Y446658D01*
X485685Y447282D01*
X485529Y447946D01*
X485294Y448649D01*
X484943Y449313D01*
X484514Y449937D01*
X484475Y450015D01*
X484280Y450172D01*
X484006Y450406D01*
X483616Y450679D01*
X483186Y450952D01*
X482640Y451186D01*
X482015Y451343D01*
X481312Y451421D01*
D02*
G37*
G36*
X348850Y458292D02*
X348616D01*
X348343Y458253D01*
X348031Y458175D01*
X347679Y458097D01*
X347289Y457940D01*
X346937Y457706D01*
X346586Y457433D01*
X346547Y457394D01*
X346469Y457277D01*
X346313Y457081D01*
X346196Y456847D01*
X346040Y456535D01*
X345883Y456144D01*
X345805Y455715D01*
X345766Y455208D01*
Y455130D01*
Y454973D01*
X345805Y454700D01*
X345883Y454388D01*
X345961Y454036D01*
X346118Y453646D01*
X346313Y453295D01*
X346586Y452943D01*
X346625Y452904D01*
X346742Y452826D01*
X346937Y452670D01*
X347172Y452553D01*
X347484Y452397D01*
X347874Y452240D01*
X348304Y452163D01*
X348811Y452123D01*
X349046D01*
X349280Y452163D01*
X349592Y452240D01*
X349944Y452319D01*
X350334Y452475D01*
X350685Y452670D01*
X351037Y452943D01*
X351076Y452982D01*
X351154Y453099D01*
X351310Y453295D01*
X351466Y453529D01*
X351622Y453880D01*
X351778Y454271D01*
X351856Y454739D01*
X351895Y455247D01*
Y455325D01*
Y455481D01*
X351856Y455715D01*
X351778Y456027D01*
X351700Y456379D01*
X351544Y456730D01*
X351310Y457121D01*
X351037Y457433D01*
X350998Y457472D01*
X350881Y457550D01*
X350724Y457706D01*
X350451Y457862D01*
X350139Y458018D01*
X349787Y458175D01*
X349319Y458253D01*
X348850Y458292D01*
D02*
G37*
G36*
Y448219D02*
X348538D01*
X348226Y448141D01*
X347835Y448063D01*
X347406Y447907D01*
X346977Y447712D01*
X346547Y447400D01*
X346157Y446970D01*
X346118Y446931D01*
X346040Y446736D01*
X345883Y446502D01*
X345727Y446150D01*
X345571Y445760D01*
X345415Y445291D01*
X345337Y444784D01*
X345298Y444237D01*
Y444198D01*
Y444159D01*
Y443886D01*
X345337Y443535D01*
X345415Y443066D01*
X345532Y442559D01*
X345727Y442051D01*
X345961Y441544D01*
X346313Y441075D01*
X346352Y441036D01*
X346508Y440919D01*
X346742Y440724D01*
X347055Y440529D01*
X347406Y440294D01*
X347874Y440138D01*
X348382Y439982D01*
X348928Y439943D01*
X349202D01*
X349475Y440021D01*
X349826Y440099D01*
X350217Y440216D01*
X350646Y440411D01*
X351076Y440685D01*
X351466Y441036D01*
X351505Y441075D01*
X351622Y441231D01*
X351778Y441505D01*
X351974Y441856D01*
X352169Y442285D01*
X352325Y442832D01*
X352442Y443457D01*
X352481Y444198D01*
Y444237D01*
Y444276D01*
Y444511D01*
X352442Y444823D01*
X352364Y445252D01*
X352208Y445682D01*
X352052Y446189D01*
X351778Y446658D01*
X351427Y447087D01*
X351388Y447126D01*
X351232Y447282D01*
X351037Y447439D01*
X350724Y447673D01*
X350334Y447868D01*
X349905Y448063D01*
X349397Y448180D01*
X348850Y448219D01*
D02*
G37*
%LPD*%
D10*
X186186Y523083D02*
G03*
X186699Y494122I-33786J-15083D01*
G01*
X633350Y170180D02*
G03*
X633350Y157480I0J-6350D01*
G01*
X78780Y284840D02*
Y304760D01*
X43220Y284840D02*
Y304760D01*
Y284840D02*
X78780D01*
X43220Y305160D02*
X78780D01*
X58500Y272500D02*
X64500D01*
X77500Y254500D02*
Y272500D01*
X45500Y254500D02*
Y272500D01*
X182160Y377490D02*
Y410510D01*
X161840D02*
X182160D01*
X161840Y377490D02*
Y410510D01*
Y377490D02*
X182160D01*
X263740Y431340D02*
Y451660D01*
X296760D01*
Y431340D02*
Y451660D01*
X263740Y431340D02*
X296760D01*
X263740Y408340D02*
X296760D01*
Y428660D01*
X263740D02*
X296760D01*
X263740Y408340D02*
Y428660D01*
X106510Y339840D02*
Y360160D01*
X73490Y339840D02*
X106510D01*
X73490D02*
Y360160D01*
X106510D01*
X78490Y204840D02*
X111510D01*
Y225160D01*
X78490D02*
X111510D01*
X78490Y204840D02*
Y225160D01*
X86990Y182840D02*
Y203160D01*
X120010D01*
Y182840D02*
Y203160D01*
X86990Y182840D02*
X120010D01*
X78490Y181160D02*
X111510D01*
X78490Y160840D02*
Y181160D01*
Y160840D02*
X111510D01*
Y181160D01*
X206840Y257490D02*
X227160D01*
X206840D02*
Y290510D01*
X227160D01*
Y257490D02*
Y290510D01*
X620160Y448490D02*
Y481510D01*
X599840D02*
X620160D01*
X599840Y448490D02*
Y481510D01*
Y448490D02*
X620160D01*
X574840D02*
X595160D01*
X574840D02*
Y481510D01*
X595160D01*
Y448490D02*
Y481510D01*
X646160Y405490D02*
Y438510D01*
X625840D02*
X646160D01*
X625840Y405490D02*
Y438510D01*
Y405490D02*
X646160D01*
X411510Y88840D02*
Y109160D01*
X378490Y88840D02*
X411510D01*
X378490D02*
Y109160D01*
X411510D01*
X227490Y449160D02*
X260510D01*
X227490Y428840D02*
Y449160D01*
Y428840D02*
X260510D01*
Y449160D01*
X434510Y220840D02*
Y241160D01*
X401490Y220840D02*
X434510D01*
X401490D02*
Y241160D01*
X434510D01*
X582490Y365160D02*
X615510D01*
X582490Y344840D02*
Y365160D01*
Y344840D02*
X615510D01*
Y365160D01*
X242840Y137490D02*
X263160D01*
X242840D02*
Y170510D01*
X263160D01*
Y137490D02*
Y170510D01*
X5990Y243840D02*
X39010D01*
Y264160D01*
X5990D02*
X39010D01*
X5990Y243840D02*
Y264160D01*
X638840Y249510D02*
X659160D01*
Y216490D02*
Y249510D01*
X638840Y216490D02*
X659160D01*
X638840D02*
Y249510D01*
X262490Y97160D02*
X295510D01*
X262490Y76840D02*
Y97160D01*
Y76840D02*
X295510D01*
Y97160D01*
X121490Y204840D02*
Y225160D01*
X154510D01*
Y204840D02*
Y225160D01*
X121490Y204840D02*
X154510D01*
X343160Y40490D02*
Y73510D01*
X322840D02*
X343160D01*
X322840Y40490D02*
Y73510D01*
Y40490D02*
X343160D01*
X322840Y59490D02*
X343160D01*
X322840D02*
Y92510D01*
X343160D01*
Y59490D02*
Y92510D01*
X80840Y256490D02*
Y289510D01*
Y256490D02*
X101160D01*
Y289510D01*
X80840D02*
X101160D01*
X598490Y215840D02*
Y236160D01*
X631510D01*
Y215840D02*
Y236160D01*
X598490Y215840D02*
X631510D01*
X681160Y183490D02*
Y216510D01*
X660840D02*
X681160D01*
X660840Y183490D02*
Y216510D01*
Y183490D02*
X681160D01*
X20840Y268490D02*
X41160D01*
X20840D02*
Y301510D01*
X41160D01*
Y268490D02*
Y301510D01*
X661840Y216490D02*
Y249510D01*
Y216490D02*
X682160D01*
Y249510D01*
X661840D02*
X682160D01*
X262840Y74510D02*
X283160D01*
Y41490D02*
Y74510D01*
X262840Y41490D02*
X283160D01*
X262840D02*
Y74510D01*
X6000Y264000D02*
Y300000D01*
Y264000D02*
X20000D01*
Y300000D01*
X598000Y250000D02*
X634000D01*
Y236000D02*
Y250000D01*
X598000Y236000D02*
X634000D01*
X671000Y276000D02*
Y294000D01*
X611000Y276000D02*
Y294000D01*
X621000Y315000D02*
X661000D01*
X621000Y255000D02*
X661000D01*
X249000Y27000D02*
Y67000D01*
X189000Y27000D02*
Y67000D01*
X210000Y17000D02*
X228000D01*
X210000Y77000D02*
X228000D01*
X103500Y75300D02*
X179700D01*
Y100664D01*
X103500D02*
X179700D01*
X103500Y75300D02*
Y100664D01*
X127000Y127000D02*
Y165000D01*
X140000D01*
X182000D02*
X195000D01*
Y127000D02*
Y165000D01*
X193000Y127000D02*
X195000D01*
X127000D02*
X129000D01*
X158700Y357100D02*
Y458700D01*
X133300Y357100D02*
Y458700D01*
X158700D01*
X133300Y357100D02*
X158700D01*
X11900Y305900D02*
Y356700D01*
Y305900D02*
X62700D01*
X11900Y356700D02*
X62700D01*
Y305900D02*
Y356700D01*
X649300Y405500D02*
Y481700D01*
Y405500D02*
X674664D01*
Y481700D01*
X649300D02*
X674664D01*
X7370Y161023D02*
Y240511D01*
Y234000D02*
Y240511D01*
X370Y163000D02*
Y239329D01*
Y161138D02*
Y163000D01*
Y238000D02*
Y240657D01*
X-5630Y161000D02*
X10370D01*
X-5630D02*
Y241000D01*
X10370D01*
X51370Y180000D02*
Y183000D01*
Y219000D02*
Y222000D01*
X34370Y162000D02*
X36370D01*
X34370Y240000D02*
X36370D01*
X-14630Y146000D02*
Y256000D01*
X-26630Y146000D02*
X-14630D01*
X-26630Y256000D02*
X-14630D01*
X-14283Y236000D02*
X-9630D01*
X-14488Y166000D02*
X-9630D01*
X-26630Y201000D02*
X-14630D01*
X-17630Y204000D02*
X-14630Y201000D01*
X-17630Y204000D02*
X-14630Y201000D01*
X-17630Y198000D02*
X-14630Y201000D01*
X12700Y373380D02*
Y424180D01*
Y373380D02*
X88900D01*
X12700Y424180D02*
X88900D01*
Y373380D02*
Y424180D01*
Y459740D02*
Y510540D01*
X12700D02*
X88900D01*
X12700Y459740D02*
X88900D01*
X12700D02*
Y510540D01*
X13220Y532160D02*
X48780D01*
X13220Y511840D02*
X48780D01*
X13220D02*
Y531760D01*
X48780Y511840D02*
Y531760D01*
X431800Y495300D02*
Y520700D01*
X172720Y495300D02*
X431800D01*
X172720D02*
Y520700D01*
X431800D01*
X650240Y495300D02*
Y520700D01*
X441960Y495300D02*
X650240D01*
X441960Y501650D02*
Y514350D01*
Y520700D02*
X650240D01*
X441960Y514350D02*
Y520700D01*
Y495300D02*
Y501650D01*
X492760Y12700D02*
Y38100D01*
X650240D01*
Y19050D02*
Y31750D01*
X492760Y12700D02*
X650240D01*
Y19050D01*
Y31750D02*
Y38100D01*
X264160Y12700D02*
Y38100D01*
X472440D01*
Y19050D02*
Y31750D01*
X264160Y12700D02*
X472440D01*
Y19050D01*
Y31750D02*
Y38100D01*
X681780Y116840D02*
Y136760D01*
X646220Y116840D02*
Y136760D01*
Y116840D02*
X681780D01*
X646220Y137160D02*
X681780D01*
X676250Y149000D02*
Y167000D01*
X644250Y149000D02*
Y167000D01*
X657250Y149000D02*
X663250D01*
X446280Y87840D02*
Y107760D01*
X410720Y87840D02*
Y107760D01*
Y87840D02*
X446280D01*
X410720Y108160D02*
X446280D01*
X204240Y247280D02*
X224160D01*
X204240Y211720D02*
X224160D01*
Y247280D01*
X203840Y211720D02*
Y247280D01*
X183840Y211720D02*
X203760D01*
X183840Y247280D02*
X203760D01*
X183840Y211720D02*
Y247280D01*
X204160Y211720D02*
Y247280D01*
X159840Y211720D02*
X179760D01*
X159840Y247280D02*
X179760D01*
X159840Y211720D02*
Y247280D01*
X180160Y211720D02*
Y247280D01*
X264780Y229840D02*
Y249760D01*
X229220Y229840D02*
Y249760D01*
Y229840D02*
X264780D01*
X229220Y250160D02*
X264780D01*
X13240Y459780D02*
X33160D01*
X13240Y424220D02*
X33160D01*
Y459780D01*
X12840Y424220D02*
Y459780D01*
X437470Y240910D02*
X473030D01*
X437470Y220590D02*
X473030D01*
X437470D02*
Y240510D01*
X473030Y220590D02*
Y240510D01*
X633550Y170180D02*
Y215830D01*
X277950D02*
X633550D01*
X277550Y111830D02*
Y215830D01*
X633550Y111830D02*
Y157480D01*
X277950Y111830D02*
X633550D01*
X211160Y173220D02*
Y208780D01*
X190840Y173220D02*
Y208780D01*
X210760D01*
X190840Y173220D02*
X210760D01*
X228220Y370380D02*
X230760D01*
X228220Y385620D02*
X230760D01*
X228220Y370380D02*
Y385620D01*
X230760Y370380D02*
Y385620D01*
X261240D01*
Y370380D02*
Y385620D01*
X230760Y370380D02*
X261240D01*
X228220Y389380D02*
X230760D01*
X228220Y404620D02*
X230760D01*
X228220Y389380D02*
Y404620D01*
X230760Y389380D02*
Y404620D01*
X261240D01*
Y389380D02*
Y404620D01*
X230760Y389380D02*
X261240D01*
X206840Y292220D02*
Y327780D01*
X227160Y292220D02*
Y327780D01*
X207240Y292220D02*
X227160D01*
X207240Y327780D02*
X227160D01*
X119000Y265000D02*
X121000D01*
X119000D02*
Y267000D01*
Y333000D02*
Y335000D01*
X121000D01*
X187000D02*
X189000D01*
Y333000D02*
Y335000D01*
X188000Y264000D02*
X190000Y266000D01*
X36000Y54000D02*
Y112000D01*
X4000Y54000D02*
X36000D01*
X4000D02*
Y112000D01*
X36000D01*
X89500Y14500D02*
X99500Y24500D01*
X84500Y14500D02*
X89500D01*
X44500Y24500D02*
X54500Y14500D01*
X59500D01*
X99500Y24500D02*
Y69500D01*
X84500D02*
X99500D01*
X44500D02*
X59500D01*
X44500Y24500D02*
Y69500D01*
X89500Y95000D02*
X99500Y105000D01*
X84500Y95000D02*
X89500D01*
X44500Y105000D02*
X54500Y95000D01*
X59500D01*
X99500Y105000D02*
Y150000D01*
X84500D02*
X99500D01*
X44500D02*
X59500D01*
X44500Y105000D02*
Y150000D01*
X120220Y247160D02*
X155780D01*
X120220Y226840D02*
X155780D01*
X120220D02*
Y246760D01*
X155780Y226840D02*
Y246760D01*
X230220Y356160D02*
X265780D01*
X230220Y335840D02*
X265780D01*
X230220D02*
Y355760D01*
X265780Y335840D02*
Y355760D01*
X76620Y175030D02*
Y202970D01*
X61380D02*
X76620D01*
X61380Y175030D02*
Y202970D01*
Y175030D02*
X76620D01*
X61380Y205030D02*
Y232970D01*
Y205030D02*
X76620D01*
Y232970D01*
X61380D02*
X76620D01*
X229000Y252000D02*
X267000D01*
X229000D02*
Y334000D01*
X267000D01*
Y252000D02*
Y334000D01*
X646160Y446220D02*
Y481780D01*
X625840Y446220D02*
Y481780D01*
X645760D01*
X625840Y446220D02*
X645760D01*
X199840Y98220D02*
Y133780D01*
X220160Y98220D02*
Y133780D01*
X200240Y98220D02*
X220160D01*
X200240Y133780D02*
X220160D01*
X103840Y103220D02*
Y138780D01*
X124160Y103220D02*
Y138780D01*
X104240Y103220D02*
X124160D01*
X104240Y138780D02*
X124160D01*
X473220Y44840D02*
X508780D01*
X473220Y65160D02*
X508780D01*
Y45240D02*
Y65160D01*
X473220Y45240D02*
Y65160D01*
X582220Y321840D02*
X617780D01*
X582220Y342160D02*
X617780D01*
Y322240D02*
Y342160D01*
X582220Y322240D02*
Y342160D01*
X345840Y38220D02*
Y73780D01*
X366160Y38220D02*
Y73780D01*
X346240Y38220D02*
X366160D01*
X346240Y73780D02*
X366160D01*
X294840Y38220D02*
Y73780D01*
X315160Y38220D02*
Y73780D01*
X295240Y38220D02*
X315160D01*
X295240Y73780D02*
X315160D01*
X373220Y60160D02*
X408780D01*
X373220Y39840D02*
X408780D01*
X373220D02*
Y59760D01*
X408780Y39840D02*
Y59760D01*
X473220Y66840D02*
X508780D01*
X473220Y87160D02*
X508780D01*
Y67240D02*
Y87160D01*
X473220Y67240D02*
Y87160D01*
X235220Y494160D02*
X270780D01*
X235220Y473840D02*
X270780D01*
X235220D02*
Y493760D01*
X270780Y473840D02*
Y493760D01*
X471160Y52220D02*
Y87780D01*
X450840Y52220D02*
Y87780D01*
X470760D01*
X450840Y52220D02*
X470760D01*
X410095Y68840D02*
X445655D01*
X410095Y89160D02*
X445655D01*
Y69240D02*
Y89160D01*
X410095Y69240D02*
Y89160D01*
X450220Y88840D02*
X485780D01*
X450220Y109160D02*
X485780D01*
Y89240D02*
Y109160D01*
X450220Y89240D02*
Y109160D01*
X399099Y244472D02*
X434659D01*
X399099Y264792D02*
X434659D01*
Y244872D02*
Y264792D01*
X399099Y244872D02*
Y264792D01*
X476000Y268000D02*
Y306000D01*
X394000Y268000D02*
X476000D01*
X394000D02*
Y306000D01*
X476000D01*
X437220Y264160D02*
X472780D01*
X437220Y243840D02*
X472780D01*
X437220D02*
Y263760D01*
X472780Y243840D02*
Y263760D01*
X224160Y413220D02*
Y448780D01*
X203840Y413220D02*
Y448780D01*
X223760D01*
X203840Y413220D02*
X223760D01*
X227220Y413380D02*
X229760D01*
X227220Y428620D02*
X229760D01*
X227220Y413380D02*
Y428620D01*
X229760Y413380D02*
Y428620D01*
X260240D01*
Y413380D02*
Y428620D01*
X229760Y413380D02*
X260240D01*
X582220Y367380D02*
X584760D01*
X582220Y382620D02*
X584760D01*
X582220Y367380D02*
Y382620D01*
X584760Y367380D02*
Y382620D01*
X615240D01*
Y367380D02*
Y382620D01*
X584760Y367380D02*
X615240D01*
X190000Y428000D02*
Y434000D01*
X172000Y415000D02*
X190000D01*
X172000Y447000D02*
X190000D01*
X214840Y173220D02*
Y208780D01*
X235160Y173220D02*
Y208780D01*
X215240Y173220D02*
X235160D01*
X215240Y208780D02*
X235160D01*
X229000Y150000D02*
Y156000D01*
X211000Y137000D02*
X229000D01*
X211000Y169000D02*
X229000D01*
X222840Y98220D02*
Y133780D01*
X243160Y98220D02*
Y133780D01*
X223240Y98220D02*
X243160D01*
X223240Y133780D02*
X243160D01*
X82220Y247160D02*
X117780D01*
X82220Y226840D02*
X117780D01*
X82220D02*
Y246760D01*
X117780Y226840D02*
Y246760D01*
X659160Y179220D02*
Y214780D01*
X638840Y179220D02*
Y214780D01*
X658760D01*
X638840Y179220D02*
X658760D01*
X3000Y344664D02*
X4333Y345997D01*
X6999D01*
X8332Y344664D01*
Y343332D01*
X6999Y341999D01*
X5666D01*
X6999D01*
X8332Y340666D01*
Y339333D01*
X6999Y338000D01*
X4333D01*
X3000Y339333D01*
X6999Y312000D02*
Y319997D01*
X3000Y315999D01*
X8332D01*
X265101Y400437D02*
X271765D01*
X268433D01*
Y390440D01*
X265101Y371440D02*
Y381437D01*
X270099D01*
X271765Y379770D01*
Y376438D01*
X270099Y374772D01*
X265101D01*
X268433D02*
X271765Y371440D01*
X551000Y98665D02*
Y92000D01*
X544336Y98665D01*
X542669D01*
X541003Y96998D01*
Y93666D01*
X542669Y92000D01*
X541003Y108661D02*
Y101997D01*
X546002D01*
X544336Y105329D01*
Y106995D01*
X546002Y108661D01*
X549334D01*
X551000Y106995D01*
Y103663D01*
X549334Y101997D01*
X319000Y93000D02*
Y96332D01*
Y94666D01*
X309003D01*
X310669Y93000D01*
X309003Y107995D02*
X310669Y104663D01*
X314002Y101331D01*
X317334D01*
X319000Y102997D01*
Y106329D01*
X317334Y107995D01*
X315668D01*
X314002Y106329D01*
Y101331D01*
X294560Y219101D02*
Y222433D01*
Y220767D01*
X284564D01*
X286230Y219101D01*
X294560Y232430D02*
X284564D01*
X289562Y227432D01*
Y234096D01*
X396560Y220101D02*
Y223433D01*
Y221767D01*
X386563D01*
X388230Y220101D01*
Y228431D02*
X386563Y230098D01*
Y233430D01*
X388230Y235096D01*
X394894D01*
X396560Y233430D01*
Y230098D01*
X394894Y228431D01*
X388230D01*
X512840Y225863D02*
Y219198D01*
X517839D01*
X516173Y222530D01*
Y224196D01*
X517839Y225863D01*
X521171D01*
X522837Y224196D01*
Y220864D01*
X521171Y219198D01*
X73664Y309000D02*
X67000D01*
X73664Y315665D01*
Y317331D01*
X71998Y318997D01*
X68666D01*
X67000Y317331D01*
X38000Y437997D02*
X41332D01*
X39666D01*
Y428000D01*
X38000D01*
X41332D01*
X52995Y436331D02*
X51329Y437997D01*
X47997D01*
X46331Y436331D01*
Y429666D01*
X47997Y428000D01*
X51329D01*
X52995Y429666D01*
X62992Y436331D02*
X61326Y437997D01*
X57993D01*
X56327Y436331D01*
Y434664D01*
X57993Y432998D01*
X61326D01*
X62992Y431332D01*
Y429666D01*
X61326Y428000D01*
X57993D01*
X56327Y429666D01*
X66324Y428000D02*
Y437997D01*
X71323D01*
X72989Y436331D01*
Y432998D01*
X71323Y431332D01*
X66324D01*
X76321Y428000D02*
X79653D01*
X77987D01*
Y437997D01*
X76321Y436331D01*
X55000Y523997D02*
X58332D01*
X56666D01*
Y514000D01*
X55000D01*
X58332D01*
X69995Y522331D02*
X68329Y523997D01*
X64997D01*
X63331Y522331D01*
Y515666D01*
X64997Y514000D01*
X68329D01*
X69995Y515666D01*
X79992Y522331D02*
X78326Y523997D01*
X74994D01*
X73327Y522331D01*
Y520664D01*
X74994Y518998D01*
X78326D01*
X79992Y517332D01*
Y515666D01*
X78326Y514000D01*
X74994D01*
X73327Y515666D01*
X83324Y514000D02*
Y523997D01*
X88323D01*
X89989Y522331D01*
Y518998D01*
X88323Y517332D01*
X83324D01*
X178003Y35000D02*
X184667D01*
X186000Y36333D01*
Y38999D01*
X184667Y40332D01*
X178003D01*
X179335Y48329D02*
X178003Y46996D01*
Y44330D01*
X179335Y42997D01*
X180668D01*
X182001Y44330D01*
Y46996D01*
X183334Y48329D01*
X184667D01*
X186000Y46996D01*
Y44330D01*
X184667Y42997D01*
X178003Y56326D02*
Y50995D01*
X186000D01*
Y56326D01*
X182001Y50995D02*
Y53661D01*
X186000Y58992D02*
X178003D01*
Y62991D01*
X179335Y64324D01*
X182001D01*
X183334Y62991D01*
Y58992D01*
Y61658D02*
X186000Y64324D01*
X592000Y262000D02*
X582003D01*
Y266998D01*
X583669Y268664D01*
X587002D01*
X588668Y266998D01*
Y262000D01*
Y265332D02*
X592000Y268664D01*
X582003Y278661D02*
Y271997D01*
X592000D01*
Y278661D01*
X587002Y271997D02*
Y275329D01*
X583669Y288658D02*
X582003Y286992D01*
Y283660D01*
X583669Y281994D01*
X585336D01*
X587002Y283660D01*
Y286992D01*
X588668Y288658D01*
X590334D01*
X592000Y286992D01*
Y283660D01*
X590334Y281994D01*
X582003Y298655D02*
Y291990D01*
X592000D01*
Y298655D01*
X587002Y291990D02*
Y295323D01*
X582003Y301987D02*
Y308652D01*
Y305319D01*
X592000D01*
X97000Y84000D02*
X100332D01*
X98666D01*
Y93997D01*
X97000Y92331D01*
X126000Y442000D02*
X129332D01*
X127666D01*
Y451997D01*
X126000Y450331D01*
X66200Y342000D02*
X69532D01*
X67866D01*
Y351997D01*
X66200Y350331D01*
X678250Y464500D02*
X681582D01*
X679916D01*
Y474497D01*
X678250Y472831D01*
X5000Y382000D02*
X8332D01*
X6666D01*
Y391997D01*
X5000Y390331D01*
X4750Y462000D02*
X8082D01*
X6416D01*
Y471997D01*
X4750Y470331D01*
X421000Y526000D02*
Y529332D01*
Y527666D01*
X411003D01*
X412669Y526000D01*
X640000Y525000D02*
Y528332D01*
Y526666D01*
X630003D01*
X631669Y525000D01*
X512000Y5400D02*
Y8732D01*
Y7066D01*
X502003D01*
X503669Y5400D01*
X283400D02*
Y8732D01*
Y7066D01*
X273403D01*
X275069Y5400D01*
X169335Y370998D02*
X166003D01*
X167669D01*
Y362668D01*
X166003Y361002D01*
X164337D01*
X162671Y362668D01*
X172668Y361002D02*
Y370998D01*
X177666D01*
X179332Y369332D01*
Y366000D01*
X177666Y364334D01*
X172668D01*
X182665Y369332D02*
X184331Y370998D01*
X187663D01*
X189329Y369332D01*
Y367666D01*
X187663Y366000D01*
X185997D01*
X187663D01*
X189329Y364334D01*
Y362668D01*
X187663Y361002D01*
X184331D01*
X182665Y362668D01*
X30536Y369998D02*
X27203D01*
X28869D01*
Y361668D01*
X27203Y360001D01*
X25537D01*
X23871Y361668D01*
X33868Y360001D02*
Y369998D01*
X38866D01*
X40532Y368332D01*
Y365000D01*
X38866Y363334D01*
X33868D01*
X50529Y360001D02*
X43864D01*
X50529Y366666D01*
Y368332D01*
X48863Y369998D01*
X45531D01*
X43864Y368332D01*
X657002Y494998D02*
X653669D01*
X655335D01*
Y486668D01*
X653669Y485002D01*
X652003D01*
X650337Y486668D01*
X660334Y485002D02*
Y494998D01*
X665332D01*
X666998Y493332D01*
Y490000D01*
X665332Y488334D01*
X660334D01*
X670331Y485002D02*
X673663D01*
X671997D01*
Y494998D01*
X670331Y493332D01*
X63334Y169998D02*
X60002D01*
X61668D01*
Y161668D01*
X60002Y160002D01*
X58335D01*
X56669Y161668D01*
X66666Y169998D02*
X73331D01*
Y168332D01*
X66666Y161668D01*
Y160002D01*
X100334Y402998D02*
X97002D01*
X98668D01*
Y394668D01*
X97002Y393002D01*
X95336D01*
X93669Y394668D01*
X110331Y402998D02*
X106998Y401332D01*
X103666Y398000D01*
Y394668D01*
X105332Y393002D01*
X108665D01*
X110331Y394668D01*
Y396334D01*
X108665Y398000D01*
X103666D01*
X101334Y491998D02*
X98002D01*
X99668D01*
Y483668D01*
X98002Y482002D01*
X96335D01*
X94669Y483668D01*
X111331Y491998D02*
X104666D01*
Y487000D01*
X107998Y488666D01*
X109664D01*
X111331Y487000D01*
Y483668D01*
X109664Y482002D01*
X106332D01*
X104666Y483668D01*
X306334Y491998D02*
X303002D01*
X304668D01*
Y483668D01*
X303002Y482002D01*
X301336D01*
X299669Y483668D01*
X314664Y482002D02*
Y491998D01*
X309666Y487000D01*
X316331D01*
X543334Y491998D02*
X540002D01*
X541668D01*
Y483668D01*
X540002Y482002D01*
X538335D01*
X536669Y483668D01*
X546666Y490332D02*
X548332Y491998D01*
X551665D01*
X553331Y490332D01*
Y488666D01*
X551665Y487000D01*
X549998D01*
X551665D01*
X553331Y485334D01*
Y483668D01*
X551665Y482002D01*
X548332D01*
X546666Y483668D01*
X573334Y51998D02*
X570002D01*
X571668D01*
Y43668D01*
X570002Y42002D01*
X568335D01*
X566669Y43668D01*
X583331Y42002D02*
X576666D01*
X583331Y48666D01*
Y50332D01*
X581665Y51998D01*
X578332D01*
X576666Y50332D01*
X423000Y52998D02*
X419668D01*
X421334D01*
Y44668D01*
X419668Y43002D01*
X418002D01*
X416335Y44668D01*
X426332Y43002D02*
X429664D01*
X427998D01*
Y52998D01*
X426332Y51332D01*
D11*
X200000Y263000D02*
G03*
X200000Y263000I-1000J0D01*
G01*
D12*
X11000Y302000D02*
X15000D01*
X596000Y241000D02*
Y245000D01*
D13*
X110668Y71999D02*
X108003D01*
X109335D01*
Y65334D01*
X108003Y64001D01*
X106670D01*
X105337Y65334D01*
X113334Y64001D02*
Y71999D01*
X117333D01*
X118666Y70666D01*
Y68000D01*
X117333Y66667D01*
X113334D01*
X125330Y64001D02*
Y71999D01*
X121332Y68000D01*
X126663D01*
M02*
