G04*
G04 #@! TF.GenerationSoftware,Altium Limited,Altium Designer,21.0.8 (223)*
G04*
G04 Layer_Color=8388736*
%FSLAX44Y44*%
%MOMM*%
G71*
G04*
G04 #@! TF.SameCoordinates,CB068B56-A197-48A0-A871-B344E5AE3D22*
G04*
G04*
G04 #@! TF.FilePolarity,Negative*
G04*
G01*
G75*
%ADD35R,1.1000X1.5000*%
%ADD36R,0.7500X1.2000*%
%ADD37R,1.5000X0.9000*%
%ADD38R,0.9000X1.5000*%
%ADD39R,0.8858X0.7588*%
%ADD40R,0.7588X0.8858*%
%ADD41R,0.8000X2.4000*%
%ADD42R,3.7000X2.4000*%
%ADD43R,1.4500X0.5000*%
%ADD44R,1.6000X1.8000*%
%ADD45R,2.1000X2.1000*%
%ADD46R,1.5000X1.1000*%
%ADD47R,1.0000X1.0000*%
%ADD48R,1.6200X0.6700*%
%ADD49R,0.6700X1.6200*%
%ADD50R,2.9000X2.2000*%
%ADD51R,1.8000X3.2000*%
%ADD52R,1.1000X0.8000*%
%ADD53R,2.8000X2.7000*%
%ADD54R,2.7000X2.8000*%
%ADD55C,3.0480*%
%ADD56R,1.2000X0.7500*%
%ADD57C,3.4000*%
%ADD58C,2.1000*%
%ADD59R,2.1000X2.1000*%
%ADD60R,1.8000X2.2000*%
%ADD61O,1.8000X2.2000*%
%ADD62O,2.2000X1.8000*%
%ADD63R,2.2000X1.8000*%
%ADD64R,1.9000X1.9000*%
%ADD65C,1.9000*%
G04:AMPARAMS|DCode=66|XSize=2.2mm|YSize=1.4mm|CornerRadius=0.4mm|HoleSize=0mm|Usage=FLASHONLY|Rotation=0.000|XOffset=0mm|YOffset=0mm|HoleType=Round|Shape=RoundedRectangle|*
%AMROUNDEDRECTD66*
21,1,2.2000,0.6000,0,0,0.0*
21,1,1.4000,1.4000,0,0,0.0*
1,1,0.8000,0.7000,-0.3000*
1,1,0.8000,-0.7000,-0.3000*
1,1,0.8000,-0.7000,0.3000*
1,1,0.8000,0.7000,0.3000*
%
%ADD66ROUNDEDRECTD66*%
%ADD67C,4.2000*%
%ADD68C,7.6000*%
D35*
X70500Y295000D02*
D03*
X51500D02*
D03*
X21500Y522000D02*
D03*
X40500D02*
D03*
X673500Y127000D02*
D03*
X654500D02*
D03*
X438000Y98000D02*
D03*
X419000D02*
D03*
X256500Y240000D02*
D03*
X237500D02*
D03*
X445750Y230750D02*
D03*
X464750D02*
D03*
X128500Y237000D02*
D03*
X147500D02*
D03*
X238500Y346000D02*
D03*
X257500D02*
D03*
X500500Y55000D02*
D03*
X481500D02*
D03*
X609500Y332000D02*
D03*
X590500D02*
D03*
X381500Y50000D02*
D03*
X400500D02*
D03*
X500500Y77000D02*
D03*
X481500D02*
D03*
X243500Y484000D02*
D03*
X262500D02*
D03*
X437375Y79000D02*
D03*
X418375D02*
D03*
X477500Y99000D02*
D03*
X458500D02*
D03*
X426379Y254632D02*
D03*
X407379D02*
D03*
X445500Y254000D02*
D03*
X464500D02*
D03*
X90500Y237000D02*
D03*
X109500D02*
D03*
D36*
X71000Y277000D02*
D03*
X52000D02*
D03*
X71000Y250000D02*
D03*
X61500D02*
D03*
X52000D02*
D03*
X669750Y171500D02*
D03*
X660250D02*
D03*
X650750D02*
D03*
X669750Y144500D02*
D03*
X650750D02*
D03*
D37*
X172000Y384500D02*
D03*
Y403500D02*
D03*
X217000Y283500D02*
D03*
Y264500D02*
D03*
X610000Y455500D02*
D03*
Y474500D02*
D03*
X585000D02*
D03*
Y455500D02*
D03*
X636000Y412500D02*
D03*
Y431500D02*
D03*
X253000Y163500D02*
D03*
Y144500D02*
D03*
X649000Y223500D02*
D03*
Y242500D02*
D03*
X333000Y47500D02*
D03*
Y66500D02*
D03*
Y85500D02*
D03*
Y66500D02*
D03*
X91000Y282500D02*
D03*
Y263500D02*
D03*
X671000Y190500D02*
D03*
Y209500D02*
D03*
X31000Y294500D02*
D03*
Y275500D02*
D03*
X672000Y242500D02*
D03*
Y223500D02*
D03*
X273000Y48500D02*
D03*
Y67500D02*
D03*
D38*
X289750Y441500D02*
D03*
X270750D02*
D03*
Y418500D02*
D03*
X289750D02*
D03*
X80500Y350000D02*
D03*
X99500D02*
D03*
X85500Y215000D02*
D03*
X104500D02*
D03*
X113000Y193000D02*
D03*
X94000D02*
D03*
X104500Y171000D02*
D03*
X85500D02*
D03*
X385500Y99000D02*
D03*
X404500D02*
D03*
X253500Y439000D02*
D03*
X234500D02*
D03*
X408500Y231000D02*
D03*
X427500D02*
D03*
X608500Y355000D02*
D03*
X589500D02*
D03*
X13000Y254000D02*
D03*
X32000D02*
D03*
X288500Y87000D02*
D03*
X269500D02*
D03*
X147500Y215000D02*
D03*
X128500D02*
D03*
X624500Y226000D02*
D03*
X605500D02*
D03*
D39*
X13000Y294192D02*
D03*
Y269808D02*
D03*
D40*
X628192Y243000D02*
D03*
X603808D02*
D03*
D41*
X135600Y115000D02*
D03*
X148300D02*
D03*
X161000D02*
D03*
X173700D02*
D03*
X186400D02*
D03*
D42*
X161000Y177000D02*
D03*
D43*
X48745Y214000D02*
D03*
Y207500D02*
D03*
Y201000D02*
D03*
Y194500D02*
D03*
Y188000D02*
D03*
D44*
X46495Y233000D02*
D03*
Y169000D02*
D03*
D45*
X21995Y213000D02*
D03*
Y189000D02*
D03*
X241500Y79500D02*
D03*
D46*
X214000Y239000D02*
D03*
Y220000D02*
D03*
X194000D02*
D03*
Y239000D02*
D03*
X170000Y220000D02*
D03*
Y239000D02*
D03*
X23000Y451500D02*
D03*
Y432500D02*
D03*
X201000Y200500D02*
D03*
Y181500D02*
D03*
X217000Y300500D02*
D03*
Y319500D02*
D03*
X636000Y473500D02*
D03*
Y454500D02*
D03*
X210000Y106500D02*
D03*
Y125500D02*
D03*
X114000Y111500D02*
D03*
Y130500D02*
D03*
X356000Y46500D02*
D03*
Y65500D02*
D03*
X305000Y46500D02*
D03*
Y65500D02*
D03*
X461000Y79500D02*
D03*
Y60500D02*
D03*
X214000Y440500D02*
D03*
Y421500D02*
D03*
X225000Y181500D02*
D03*
Y200500D02*
D03*
X233000Y106500D02*
D03*
Y125500D02*
D03*
X649000Y206500D02*
D03*
Y187500D02*
D03*
D47*
X254000Y378000D02*
D03*
X238000D02*
D03*
X254000Y397000D02*
D03*
X238000D02*
D03*
X253000Y421000D02*
D03*
X237000D02*
D03*
X608000Y375000D02*
D03*
X592000D02*
D03*
D48*
X196000Y272000D02*
D03*
Y328000D02*
D03*
Y320000D02*
D03*
Y312000D02*
D03*
Y304000D02*
D03*
Y296000D02*
D03*
Y288000D02*
D03*
Y280000D02*
D03*
X112000Y328000D02*
D03*
Y304000D02*
D03*
Y288000D02*
D03*
Y312000D02*
D03*
Y272000D02*
D03*
Y280000D02*
D03*
Y296000D02*
D03*
Y320000D02*
D03*
D49*
X174000Y342000D02*
D03*
X182000D02*
D03*
X150000Y258000D02*
D03*
X134000D02*
D03*
X126000Y342000D02*
D03*
X150000D02*
D03*
X142000D02*
D03*
X158000Y258000D02*
D03*
X142000D02*
D03*
X166000Y342000D02*
D03*
Y258000D02*
D03*
X126000D02*
D03*
X134000Y342000D02*
D03*
X158000D02*
D03*
X174000Y258000D02*
D03*
X182000D02*
D03*
D50*
X20000Y67000D02*
D03*
Y99000D02*
D03*
D51*
X72000Y62500D02*
D03*
Y21500D02*
D03*
Y143000D02*
D03*
Y102000D02*
D03*
D52*
X69000Y181500D02*
D03*
Y196500D02*
D03*
Y226500D02*
D03*
Y211500D02*
D03*
D53*
X248000Y317500D02*
D03*
Y268500D02*
D03*
D54*
X410500Y287000D02*
D03*
X459500D02*
D03*
D55*
X104000Y516000D02*
D03*
X668000Y513000D02*
D03*
X670000Y19000D02*
D03*
X220000Y48000D02*
D03*
D56*
X194500Y421500D02*
D03*
Y440500D02*
D03*
X167500Y421500D02*
D03*
Y431000D02*
D03*
Y440500D02*
D03*
X233500Y143500D02*
D03*
Y162500D02*
D03*
X206500Y143500D02*
D03*
Y153000D02*
D03*
Y162500D02*
D03*
D57*
X152400Y508000D02*
D03*
D58*
X673500Y307500D02*
D03*
X608500D02*
D03*
Y262500D02*
D03*
X241500Y14500D02*
D03*
X196500D02*
D03*
Y79500D02*
D03*
D59*
X673500Y262500D02*
D03*
D60*
X116200Y88000D02*
D03*
X416560Y508000D02*
D03*
X635000D02*
D03*
X508000Y25400D02*
D03*
X279400D02*
D03*
X620650Y201930D02*
D03*
D61*
X141600Y88000D02*
D03*
X167000D02*
D03*
X187960Y508000D02*
D03*
X213360D02*
D03*
X238760D02*
D03*
X264160D02*
D03*
X289560D02*
D03*
X314960D02*
D03*
X340360D02*
D03*
X365760D02*
D03*
X391160D02*
D03*
X457200D02*
D03*
X482600D02*
D03*
X508000D02*
D03*
X533400D02*
D03*
X558800D02*
D03*
X584200D02*
D03*
X609600D02*
D03*
X635000Y25400D02*
D03*
X609600D02*
D03*
X584200D02*
D03*
X558800D02*
D03*
X533400D02*
D03*
X457200D02*
D03*
X431800D02*
D03*
X406400D02*
D03*
X381000D02*
D03*
X355600D02*
D03*
X330200D02*
D03*
X304800D02*
D03*
X595250Y201930D02*
D03*
X569850D02*
D03*
X544450D02*
D03*
X519050D02*
D03*
X493650D02*
D03*
X468250D02*
D03*
X442850D02*
D03*
X417450D02*
D03*
X392050D02*
D03*
X366650D02*
D03*
X341250D02*
D03*
X315850D02*
D03*
X290450D02*
D03*
X620650Y125730D02*
D03*
X595250D02*
D03*
X569850D02*
D03*
X544450D02*
D03*
X519050D02*
D03*
X493650D02*
D03*
X468250D02*
D03*
X442850D02*
D03*
X417450D02*
D03*
X392050D02*
D03*
X366650D02*
D03*
X341250D02*
D03*
X315850D02*
D03*
X290450D02*
D03*
D62*
X146000Y420600D02*
D03*
Y395200D02*
D03*
Y369800D02*
D03*
X662000Y443600D02*
D03*
Y418200D02*
D03*
D63*
X146000Y446000D02*
D03*
X662000Y469000D02*
D03*
D64*
X50000Y344000D02*
D03*
X25400Y386080D02*
D03*
Y472440D02*
D03*
D65*
X24600Y344000D02*
D03*
X50000Y318600D02*
D03*
X24600D02*
D03*
X76200Y411480D02*
D03*
X50800D02*
D03*
X25400D02*
D03*
X76200Y386080D02*
D03*
X50800D02*
D03*
Y472440D02*
D03*
X76200D02*
D03*
X25400Y497840D02*
D03*
X50800D02*
D03*
X76200D02*
D03*
D66*
X21995Y234000D02*
D03*
Y168000D02*
D03*
D67*
X21750Y23750D02*
D03*
Y138000D02*
D03*
D68*
X660400Y355600D02*
D03*
Y76200D02*
D03*
X139700Y25400D02*
D03*
M02*
