G04*
G04 #@! TF.GenerationSoftware,Altium Limited,Altium Designer,21.0.8 (223)*
G04*
G04 Layer_Color=13888217*
%FSLAX44Y44*%
%MOMM*%
G71*
G04*
G04 #@! TF.SameCoordinates,CB068B56-A197-48A0-A871-B344E5AE3D22*
G04*
G04*
G04 #@! TF.FilePolarity,Positive*
G04*
G01*
G75*
%ADD86C,0.3810*%
D86*
X-387648Y1318471D02*
X-401190D01*
Y1308315D01*
X-394419D01*
X-401190D01*
Y1298158D01*
X-380877D02*
X-374105D01*
X-377491D01*
Y1311700D01*
X-380877D01*
X-363949Y1298158D02*
X-357178D01*
X-360563D01*
Y1318471D01*
X-363949D01*
X-336864Y1298158D02*
X-343635D01*
X-347021Y1301543D01*
Y1308315D01*
X-343635Y1311700D01*
X-336864D01*
X-333479Y1308315D01*
Y1304929D01*
X-347021D01*
X-326707Y1298158D02*
X-316551D01*
X-313165Y1301543D01*
X-316551Y1304929D01*
X-323322D01*
X-326707Y1308315D01*
X-323322Y1311700D01*
X-313165D01*
X-401190Y1281566D02*
X-387648Y1268023D01*
X-401190D02*
X-387648Y1281566D01*
X-401190Y1274794D02*
X-387648D01*
X-394419Y1268023D02*
Y1281566D01*
X-380877Y1264638D02*
Y1268023D01*
X-377491D01*
Y1264638D01*
X-380877D01*
X-350406Y1281566D02*
X-353792Y1284951D01*
X-360563D01*
X-363949Y1281566D01*
Y1268023D01*
X-360563Y1264638D01*
X-353792D01*
X-350406Y1268023D01*
Y1274794D01*
X-357178D01*
X-343635Y1284951D02*
X-330093D01*
X-336864D01*
Y1264638D01*
X-313165Y1284951D02*
X-319936D01*
X-323322Y1281566D01*
Y1268023D01*
X-319936Y1264638D01*
X-313165D01*
X-309780Y1268023D01*
Y1281566D01*
X-313165Y1284951D01*
X-282695Y1274794D02*
X-269153D01*
X-242068Y1284951D02*
X-228526D01*
X-235297D01*
Y1264638D01*
X-218369D02*
X-211598D01*
X-208213Y1268023D01*
Y1274794D01*
X-211598Y1278180D01*
X-218369D01*
X-221755Y1274794D01*
Y1268023D01*
X-218369Y1264638D01*
X-201441Y1257867D02*
Y1278180D01*
X-191285D01*
X-187899Y1274794D01*
Y1268023D01*
X-191285Y1264638D01*
X-201441D01*
X-150658Y1284951D02*
X-157429D01*
X-160814Y1281566D01*
Y1268023D01*
X-157429Y1264638D01*
X-150658D01*
X-147272Y1268023D01*
Y1281566D01*
X-150658Y1284951D01*
X-140501Y1278180D02*
X-133730Y1264638D01*
X-126959Y1278180D01*
X-110031Y1264638D02*
X-116802D01*
X-120188Y1268023D01*
Y1274794D01*
X-116802Y1278180D01*
X-110031D01*
X-106645Y1274794D01*
Y1271409D01*
X-120188D01*
X-99874Y1278180D02*
Y1264638D01*
Y1271409D01*
X-96489Y1274794D01*
X-93103Y1278180D01*
X-89718D01*
X-79561Y1264638D02*
X-72790D01*
X-76175D01*
Y1284951D01*
X-79561D01*
X-59247Y1278180D02*
X-52476D01*
X-49091Y1274794D01*
Y1264638D01*
X-59247D01*
X-62633Y1268023D01*
X-59247Y1271409D01*
X-49091D01*
X-42319Y1278180D02*
Y1268023D01*
X-38934Y1264638D01*
X-28777D01*
Y1261252D01*
X-32163Y1257867D01*
X-35548D01*
X-28777Y1264638D02*
Y1278180D01*
X-401190Y1241274D02*
X-387648Y1227732D01*
X-401190D02*
X-387648Y1241274D01*
X-401190Y1234503D02*
X-387648D01*
X-394419Y1227732D02*
Y1241274D01*
X-380877Y1224347D02*
Y1227732D01*
X-377491D01*
Y1224347D01*
X-380877D01*
X-350406Y1241274D02*
X-353792Y1244660D01*
X-360563D01*
X-363949Y1241274D01*
Y1227732D01*
X-360563Y1224347D01*
X-353792D01*
X-350406Y1227732D01*
Y1234503D01*
X-357178D01*
X-343635Y1244660D02*
X-330093D01*
X-336864D01*
Y1224347D01*
X-323322D02*
Y1244660D01*
X-313165D01*
X-309780Y1241274D01*
Y1234503D01*
X-313165Y1231118D01*
X-323322D01*
X-282695Y1234503D02*
X-269153D01*
X-242068Y1244660D02*
X-228526D01*
X-235297D01*
Y1224347D01*
X-218369D02*
X-211598D01*
X-208213Y1227732D01*
Y1234503D01*
X-211598Y1237889D01*
X-218369D01*
X-221755Y1234503D01*
Y1227732D01*
X-218369Y1224347D01*
X-201441Y1217575D02*
Y1237889D01*
X-191285D01*
X-187899Y1234503D01*
Y1227732D01*
X-191285Y1224347D01*
X-201441D01*
X-160814D02*
Y1244660D01*
X-150658D01*
X-147272Y1241274D01*
Y1234503D01*
X-150658Y1231118D01*
X-160814D01*
X-137115Y1237889D02*
X-130344D01*
X-126959Y1234503D01*
Y1224347D01*
X-137115D01*
X-140501Y1227732D01*
X-137115Y1231118D01*
X-126959D01*
X-120188Y1224347D02*
X-110031D01*
X-106645Y1227732D01*
X-110031Y1231118D01*
X-116802D01*
X-120188Y1234503D01*
X-116802Y1237889D01*
X-106645D01*
X-96489Y1241274D02*
Y1237889D01*
X-99874D01*
X-93103D01*
X-96489D01*
Y1227732D01*
X-93103Y1224347D01*
X-72790D02*
X-79561D01*
X-82946Y1227732D01*
Y1234503D01*
X-79561Y1237889D01*
X-72790D01*
X-69404Y1234503D01*
Y1231118D01*
X-82946D01*
X-401190Y1200983D02*
X-387648Y1187441D01*
X-401190D02*
X-387648Y1200983D01*
X-401190Y1194212D02*
X-387648D01*
X-394419Y1187441D02*
Y1200983D01*
X-380877Y1184055D02*
Y1187441D01*
X-377491D01*
Y1184055D01*
X-380877D01*
X-350406Y1200983D02*
X-353792Y1204369D01*
X-360563D01*
X-363949Y1200983D01*
Y1187441D01*
X-360563Y1184055D01*
X-353792D01*
X-350406Y1187441D01*
Y1194212D01*
X-357178D01*
X-343635Y1204369D02*
X-330093D01*
X-336864D01*
Y1184055D01*
X-309780Y1200983D02*
X-313165Y1204369D01*
X-319936D01*
X-323322Y1200983D01*
Y1197598D01*
X-319936Y1194212D01*
X-313165D01*
X-309780Y1190826D01*
Y1187441D01*
X-313165Y1184055D01*
X-319936D01*
X-323322Y1187441D01*
X-282695Y1194212D02*
X-269153D01*
X-242068Y1204369D02*
X-228526D01*
X-235297D01*
Y1184055D01*
X-218369D02*
X-211598D01*
X-208213Y1187441D01*
Y1194212D01*
X-211598Y1197598D01*
X-218369D01*
X-221755Y1194212D01*
Y1187441D01*
X-218369Y1184055D01*
X-201441Y1177284D02*
Y1197598D01*
X-191285D01*
X-187899Y1194212D01*
Y1187441D01*
X-191285Y1184055D01*
X-201441D01*
X-147272Y1200983D02*
X-150658Y1204369D01*
X-157429D01*
X-160814Y1200983D01*
Y1197598D01*
X-157429Y1194212D01*
X-150658D01*
X-147272Y1190826D01*
Y1187441D01*
X-150658Y1184055D01*
X-157429D01*
X-160814Y1187441D01*
X-137115Y1184055D02*
X-130344D01*
X-126959Y1187441D01*
Y1194212D01*
X-130344Y1197598D01*
X-137115D01*
X-140501Y1194212D01*
Y1187441D01*
X-137115Y1184055D01*
X-120188D02*
X-113417D01*
X-116802D01*
Y1204369D01*
X-120188D01*
X-89718D02*
Y1184055D01*
X-99874D01*
X-103260Y1187441D01*
Y1194212D01*
X-99874Y1197598D01*
X-89718D01*
X-72790Y1184055D02*
X-79561D01*
X-82946Y1187441D01*
Y1194212D01*
X-79561Y1197598D01*
X-72790D01*
X-69404Y1194212D01*
Y1190826D01*
X-82946D01*
X-62633Y1197598D02*
Y1184055D01*
Y1190826D01*
X-59247Y1194212D01*
X-55862Y1197598D01*
X-52476D01*
X-401190Y1160692D02*
X-387648Y1147150D01*
X-401190D02*
X-387648Y1160692D01*
X-401190Y1153921D02*
X-387648D01*
X-394419Y1147150D02*
Y1160692D01*
X-380877Y1143764D02*
Y1147150D01*
X-377491D01*
Y1143764D01*
X-380877D01*
X-350406Y1160692D02*
X-353792Y1164078D01*
X-360563D01*
X-363949Y1160692D01*
Y1147150D01*
X-360563Y1143764D01*
X-353792D01*
X-350406Y1147150D01*
Y1153921D01*
X-357178D01*
X-343635Y1164078D02*
X-330093D01*
X-336864D01*
Y1143764D01*
X-323322Y1164078D02*
Y1143764D01*
X-309780D01*
X-282695Y1153921D02*
X-269153D01*
X-242068Y1164078D02*
Y1143764D01*
X-228526D01*
X-221755D02*
X-214984D01*
X-218369D01*
Y1164078D01*
X-221755Y1160692D01*
X-177742Y1143764D02*
X-184513Y1150535D01*
Y1157306D01*
X-177742Y1164078D01*
X-167586Y1143764D02*
Y1164078D01*
X-157429D01*
X-154043Y1160692D01*
Y1153921D01*
X-157429Y1150535D01*
X-167586D01*
X-143887Y1143764D02*
X-137115D01*
X-133730Y1147150D01*
Y1153921D01*
X-137115Y1157306D01*
X-143887D01*
X-147272Y1153921D01*
Y1147150D01*
X-143887Y1143764D01*
X-126959D02*
X-116802D01*
X-113417Y1147150D01*
X-116802Y1150535D01*
X-123573D01*
X-126959Y1153921D01*
X-123573Y1157306D01*
X-113417D01*
X-106645Y1143764D02*
X-99874D01*
X-103260D01*
Y1157306D01*
X-106645D01*
X-86332Y1160692D02*
Y1157306D01*
X-89718D01*
X-82946D01*
X-86332D01*
Y1147150D01*
X-82946Y1143764D01*
X-72790D02*
X-66019D01*
X-69404D01*
Y1157306D01*
X-72790D01*
X-55862D02*
X-49091Y1143764D01*
X-42319Y1157306D01*
X-25392Y1143764D02*
X-32163D01*
X-35548Y1147150D01*
Y1153921D01*
X-32163Y1157306D01*
X-25392D01*
X-22006Y1153921D01*
Y1150535D01*
X-35548D01*
X-15235Y1143764D02*
X-8464Y1150535D01*
Y1157306D01*
X-15235Y1164078D01*
X-401190Y1127172D02*
X-387648Y1113630D01*
X-401190D02*
X-387648Y1127172D01*
X-401190Y1120401D02*
X-387648D01*
X-394419Y1113630D02*
Y1127172D01*
X-380877Y1110244D02*
Y1113630D01*
X-377491D01*
Y1110244D01*
X-380877D01*
X-350406Y1127172D02*
X-353792Y1130557D01*
X-360563D01*
X-363949Y1127172D01*
Y1113630D01*
X-360563Y1110244D01*
X-353792D01*
X-350406Y1113630D01*
Y1120401D01*
X-357178D01*
X-343635Y1130557D02*
Y1110244D01*
X-333479D01*
X-330093Y1113630D01*
Y1117015D01*
X-333479Y1120401D01*
X-343635D01*
X-333479D01*
X-330093Y1123786D01*
Y1127172D01*
X-333479Y1130557D01*
X-343635D01*
X-323322D02*
Y1110244D01*
X-309780D01*
X-282695Y1120401D02*
X-269153D01*
X-242068Y1130557D02*
Y1110244D01*
X-228526D01*
X-208213D02*
X-221755D01*
X-208213Y1123786D01*
Y1127172D01*
X-211598Y1130557D01*
X-218369D01*
X-221755Y1127172D01*
X-174357Y1110244D02*
X-181128Y1117015D01*
Y1123786D01*
X-174357Y1130557D01*
X-164200Y1110244D02*
Y1130557D01*
X-154043D01*
X-150658Y1127172D01*
Y1120401D01*
X-154043Y1117015D01*
X-164200D01*
X-140501Y1110244D02*
X-133730D01*
X-130344Y1113630D01*
Y1120401D01*
X-133730Y1123786D01*
X-140501D01*
X-143887Y1120401D01*
Y1113630D01*
X-140501Y1110244D01*
X-123573D02*
X-113417D01*
X-110031Y1113630D01*
X-113417Y1117015D01*
X-120188D01*
X-123573Y1120401D01*
X-120188Y1123786D01*
X-110031D01*
X-103260Y1110244D02*
X-96489D01*
X-99874D01*
Y1123786D01*
X-103260D01*
X-82946Y1127172D02*
Y1123786D01*
X-86332D01*
X-79561D01*
X-82946D01*
Y1113630D01*
X-79561Y1110244D01*
X-69404D02*
X-62633D01*
X-66019D01*
Y1123786D01*
X-69404D01*
X-52476D02*
X-45705Y1110244D01*
X-38934Y1123786D01*
X-22006Y1110244D02*
X-28777D01*
X-32163Y1113630D01*
Y1120401D01*
X-28777Y1123786D01*
X-22006D01*
X-18621Y1120401D01*
Y1117015D01*
X-32163D01*
X-11849Y1110244D02*
X-5078Y1117015D01*
Y1123786D01*
X-11849Y1130557D01*
X-401190Y1093652D02*
X-387648Y1080109D01*
X-401190D02*
X-387648Y1093652D01*
X-401190Y1086881D02*
X-387648D01*
X-394419Y1080109D02*
Y1093652D01*
X-380877Y1076724D02*
Y1080109D01*
X-377491D01*
Y1076724D01*
X-380877D01*
X-350406Y1093652D02*
X-353792Y1097037D01*
X-360563D01*
X-363949Y1093652D01*
Y1080109D01*
X-360563Y1076724D01*
X-353792D01*
X-350406Y1080109D01*
Y1086881D01*
X-357178D01*
X-343635Y1097037D02*
Y1076724D01*
X-333479D01*
X-330093Y1080109D01*
Y1083495D01*
X-333479Y1086881D01*
X-343635D01*
X-333479D01*
X-330093Y1090266D01*
Y1093652D01*
X-333479Y1097037D01*
X-343635D01*
X-309780Y1093652D02*
X-313165Y1097037D01*
X-319936D01*
X-323322Y1093652D01*
Y1090266D01*
X-319936Y1086881D01*
X-313165D01*
X-309780Y1083495D01*
Y1080109D01*
X-313165Y1076724D01*
X-319936D01*
X-323322Y1080109D01*
X-282695Y1086881D02*
X-269153D01*
X-242068Y1097037D02*
Y1076724D01*
X-231912D01*
X-228526Y1080109D01*
Y1083495D01*
X-231912Y1086881D01*
X-242068D01*
X-231912D01*
X-228526Y1090266D01*
Y1093652D01*
X-231912Y1097037D01*
X-242068D01*
X-218369Y1076724D02*
X-211598D01*
X-208213Y1080109D01*
Y1086881D01*
X-211598Y1090266D01*
X-218369D01*
X-221755Y1086881D01*
Y1080109D01*
X-218369Y1076724D01*
X-198056Y1093652D02*
Y1090266D01*
X-201441D01*
X-194670D01*
X-198056D01*
Y1080109D01*
X-194670Y1076724D01*
X-181128Y1093652D02*
Y1090266D01*
X-184513D01*
X-177742D01*
X-181128D01*
Y1080109D01*
X-177742Y1076724D01*
X-164200D02*
X-157429D01*
X-154043Y1080109D01*
Y1086881D01*
X-157429Y1090266D01*
X-164200D01*
X-167586Y1086881D01*
Y1080109D01*
X-164200Y1076724D01*
X-147272D02*
Y1090266D01*
X-143887D01*
X-140501Y1086881D01*
Y1076724D01*
Y1086881D01*
X-137115Y1090266D01*
X-133730Y1086881D01*
Y1076724D01*
X-93103Y1093652D02*
X-96489Y1097037D01*
X-103260D01*
X-106645Y1093652D01*
Y1090266D01*
X-103260Y1086881D01*
X-96489D01*
X-93103Y1083495D01*
Y1080109D01*
X-96489Y1076724D01*
X-103260D01*
X-106645Y1080109D01*
X-82946Y1076724D02*
X-76175D01*
X-72790Y1080109D01*
Y1086881D01*
X-76175Y1090266D01*
X-82946D01*
X-86332Y1086881D01*
Y1080109D01*
X-82946Y1076724D01*
X-66019D02*
X-59247D01*
X-62633D01*
Y1097037D01*
X-66019D01*
X-35548D02*
Y1076724D01*
X-45705D01*
X-49091Y1080109D01*
Y1086881D01*
X-45705Y1090266D01*
X-35548D01*
X-18621Y1076724D02*
X-25392D01*
X-28777Y1080109D01*
Y1086881D01*
X-25392Y1090266D01*
X-18621D01*
X-15235Y1086881D01*
Y1083495D01*
X-28777D01*
X-8464Y1090266D02*
Y1076724D01*
Y1083495D01*
X-5078Y1086881D01*
X-1693Y1090266D01*
X1693D01*
X-401190Y1060132D02*
X-387648Y1046589D01*
X-401190D02*
X-387648Y1060132D01*
X-401190Y1053361D02*
X-387648D01*
X-394419Y1046589D02*
Y1060132D01*
X-380877Y1043204D02*
Y1046589D01*
X-377491D01*
Y1043204D01*
X-380877D01*
X-350406Y1060132D02*
X-353792Y1063517D01*
X-360563D01*
X-363949Y1060132D01*
Y1046589D01*
X-360563Y1043204D01*
X-353792D01*
X-350406Y1046589D01*
Y1053361D01*
X-357178D01*
X-343635Y1063517D02*
Y1043204D01*
X-333479D01*
X-330093Y1046589D01*
Y1049975D01*
X-333479Y1053361D01*
X-343635D01*
X-333479D01*
X-330093Y1056746D01*
Y1060132D01*
X-333479Y1063517D01*
X-343635D01*
X-313165D02*
X-319936D01*
X-323322Y1060132D01*
Y1046589D01*
X-319936Y1043204D01*
X-313165D01*
X-309780Y1046589D01*
Y1060132D01*
X-313165Y1063517D01*
X-282695Y1053361D02*
X-269153D01*
X-242068Y1063517D02*
Y1043204D01*
X-231912D01*
X-228526Y1046589D01*
Y1049975D01*
X-231912Y1053361D01*
X-242068D01*
X-231912D01*
X-228526Y1056746D01*
Y1060132D01*
X-231912Y1063517D01*
X-242068D01*
X-218369Y1043204D02*
X-211598D01*
X-208213Y1046589D01*
Y1053361D01*
X-211598Y1056746D01*
X-218369D01*
X-221755Y1053361D01*
Y1046589D01*
X-218369Y1043204D01*
X-198056Y1060132D02*
Y1056746D01*
X-201441D01*
X-194670D01*
X-198056D01*
Y1046589D01*
X-194670Y1043204D01*
X-181128Y1060132D02*
Y1056746D01*
X-184513D01*
X-177742D01*
X-181128D01*
Y1046589D01*
X-177742Y1043204D01*
X-164200D02*
X-157429D01*
X-154043Y1046589D01*
Y1053361D01*
X-157429Y1056746D01*
X-164200D01*
X-167586Y1053361D01*
Y1046589D01*
X-164200Y1043204D01*
X-147272D02*
Y1056746D01*
X-143887D01*
X-140501Y1053361D01*
Y1043204D01*
Y1053361D01*
X-137115Y1056746D01*
X-133730Y1053361D01*
Y1043204D01*
X-96489Y1063517D02*
X-103260D01*
X-106645Y1060132D01*
Y1046589D01*
X-103260Y1043204D01*
X-96489D01*
X-93103Y1046589D01*
Y1060132D01*
X-96489Y1063517D01*
X-86332Y1056746D02*
X-79561Y1043204D01*
X-72790Y1056746D01*
X-55862Y1043204D02*
X-62633D01*
X-66019Y1046589D01*
Y1053361D01*
X-62633Y1056746D01*
X-55862D01*
X-52476Y1053361D01*
Y1049975D01*
X-66019D01*
X-45705Y1056746D02*
Y1043204D01*
Y1049975D01*
X-42319Y1053361D01*
X-38934Y1056746D01*
X-35548D01*
X-25392Y1043204D02*
X-18621D01*
X-22006D01*
Y1063517D01*
X-25392D01*
X-5078Y1056746D02*
X1693D01*
X5078Y1053361D01*
Y1043204D01*
X-5078D01*
X-8464Y1046589D01*
X-5078Y1049975D01*
X5078D01*
X11850Y1056746D02*
Y1046589D01*
X15235Y1043204D01*
X25392D01*
Y1039818D01*
X22006Y1036433D01*
X18621D01*
X25392Y1043204D02*
Y1056746D01*
X-401190Y1019840D02*
X-387648Y1006298D01*
X-401190D02*
X-387648Y1019840D01*
X-401190Y1013069D02*
X-387648D01*
X-394419Y1006298D02*
Y1019840D01*
X-380877Y1002913D02*
Y1006298D01*
X-377491D01*
Y1002913D01*
X-380877D01*
X-350406Y1019840D02*
X-353792Y1023226D01*
X-360563D01*
X-363949Y1019840D01*
Y1006298D01*
X-360563Y1002913D01*
X-353792D01*
X-350406Y1006298D01*
Y1013069D01*
X-357178D01*
X-343635Y1002913D02*
Y1023226D01*
X-336864Y1016455D01*
X-330093Y1023226D01*
Y1002913D01*
X-309780D02*
X-323322D01*
X-309780Y1016455D01*
Y1019840D01*
X-313165Y1023226D01*
X-319936D01*
X-323322Y1019840D01*
X-282695Y1013069D02*
X-269153D01*
X-242068Y1002913D02*
Y1023226D01*
X-235297Y1016455D01*
X-228526Y1023226D01*
Y1002913D01*
X-211598D02*
X-218369D01*
X-221755Y1006298D01*
Y1013069D01*
X-218369Y1016455D01*
X-211598D01*
X-208213Y1013069D01*
Y1009684D01*
X-221755D01*
X-187899Y1016455D02*
X-198056D01*
X-201441Y1013069D01*
Y1006298D01*
X-198056Y1002913D01*
X-187899D01*
X-181128Y1023226D02*
Y1002913D01*
Y1013069D01*
X-177742Y1016455D01*
X-170971D01*
X-167586Y1013069D01*
Y1002913D01*
X-157429Y1016455D02*
X-150658D01*
X-147272Y1013069D01*
Y1002913D01*
X-157429D01*
X-160814Y1006298D01*
X-157429Y1009684D01*
X-147272D01*
X-140501Y1002913D02*
Y1016455D01*
X-130344D01*
X-126959Y1013069D01*
Y1002913D01*
X-120188D02*
X-113417D01*
X-116802D01*
Y1016455D01*
X-120188D01*
X-89718D02*
X-99874D01*
X-103260Y1013069D01*
Y1006298D01*
X-99874Y1002913D01*
X-89718D01*
X-79561Y1016455D02*
X-72790D01*
X-69404Y1013069D01*
Y1002913D01*
X-79561D01*
X-82946Y1006298D01*
X-79561Y1009684D01*
X-69404D01*
X-62633Y1002913D02*
X-55862D01*
X-59247D01*
Y1023226D01*
X-62633D01*
X-25392D02*
Y1002913D01*
X-15235D01*
X-11849Y1006298D01*
Y1019840D01*
X-15235Y1023226D01*
X-25392D01*
X-5078Y1016455D02*
Y1002913D01*
Y1009684D01*
X-1693Y1013069D01*
X1693Y1016455D01*
X5078D01*
X18621D02*
X25392D01*
X28777Y1013069D01*
Y1002913D01*
X18621D01*
X15235Y1006298D01*
X18621Y1009684D01*
X28777D01*
X35549Y1016455D02*
Y1006298D01*
X38934Y1002913D01*
X42320Y1006298D01*
X45705Y1002913D01*
X49091Y1006298D01*
Y1016455D01*
X55862Y1002913D02*
X62633D01*
X59248D01*
Y1016455D01*
X55862D01*
X72790Y1002913D02*
Y1016455D01*
X82947D01*
X86332Y1013069D01*
Y1002913D01*
X99874Y996141D02*
X103260D01*
X106646Y999527D01*
Y1016455D01*
X96489D01*
X93103Y1013069D01*
Y1006298D01*
X96489Y1002913D01*
X106646D01*
X-401190Y979549D02*
X-387648Y966007D01*
X-401190D02*
X-387648Y979549D01*
X-401190Y972778D02*
X-387648D01*
X-394419Y966007D02*
Y979549D01*
X-380877Y962621D02*
Y966007D01*
X-377491D01*
Y962621D01*
X-380877D01*
X-350406Y979549D02*
X-353792Y982935D01*
X-360563D01*
X-363949Y979549D01*
Y966007D01*
X-360563Y962621D01*
X-353792D01*
X-350406Y966007D01*
Y972778D01*
X-357178D01*
X-343635Y962621D02*
Y982935D01*
X-336864Y976164D01*
X-330093Y982935D01*
Y962621D01*
X-323322Y979549D02*
X-319936Y982935D01*
X-313165D01*
X-309780Y979549D01*
Y976164D01*
X-313165Y972778D01*
X-316551D01*
X-313165D01*
X-309780Y969392D01*
Y966007D01*
X-313165Y962621D01*
X-319936D01*
X-323322Y966007D01*
X-282695Y972778D02*
X-269153D01*
X-242068Y962621D02*
Y982935D01*
X-235297Y976164D01*
X-228526Y982935D01*
Y962621D01*
X-218369Y976164D02*
X-211598D01*
X-208213Y972778D01*
Y962621D01*
X-218369D01*
X-221755Y966007D01*
X-218369Y969392D01*
X-208213D01*
X-201441Y962621D02*
Y976164D01*
X-191285D01*
X-187899Y972778D01*
Y962621D01*
X-181128Y976164D02*
Y966007D01*
X-177742Y962621D01*
X-167586D01*
Y976164D01*
X-157429Y962621D02*
Y979549D01*
Y972778D01*
X-160814D01*
X-154043D01*
X-157429D01*
Y979549D01*
X-154043Y982935D01*
X-140501Y976164D02*
X-133730D01*
X-130344Y972778D01*
Y962621D01*
X-140501D01*
X-143887Y966007D01*
X-140501Y969392D01*
X-130344D01*
X-110031Y976164D02*
X-120188D01*
X-123573Y972778D01*
Y966007D01*
X-120188Y962621D01*
X-110031D01*
X-99874Y979549D02*
Y976164D01*
X-103260D01*
X-96489D01*
X-99874D01*
Y966007D01*
X-96489Y962621D01*
X-86332Y976164D02*
Y966007D01*
X-82946Y962621D01*
X-72790D01*
Y976164D01*
X-66019D02*
Y962621D01*
Y969392D01*
X-62633Y972778D01*
X-59247Y976164D01*
X-55862D01*
X-45705Y962621D02*
X-38934D01*
X-42319D01*
Y976164D01*
X-45705D01*
X-28777Y962621D02*
Y976164D01*
X-18621D01*
X-15235Y972778D01*
Y962621D01*
X-1693Y955850D02*
X1693D01*
X5078Y959236D01*
Y976164D01*
X-5078D01*
X-8464Y972778D01*
Y966007D01*
X-5078Y962621D01*
X5078D01*
X32163D02*
Y982935D01*
X45705Y962621D01*
Y982935D01*
X55862Y962621D02*
X62633D01*
X66019Y966007D01*
Y972778D01*
X62633Y976164D01*
X55862D01*
X52476Y972778D01*
Y966007D01*
X55862Y962621D01*
X76175Y979549D02*
Y976164D01*
X72790D01*
X79561D01*
X76175D01*
Y966007D01*
X79561Y962621D01*
X99874D02*
X93103D01*
X89718Y966007D01*
Y972778D01*
X93103Y976164D01*
X99874D01*
X103260Y972778D01*
Y969392D01*
X89718D01*
X110031Y962621D02*
X120188D01*
X123573Y966007D01*
X120188Y969392D01*
X113417D01*
X110031Y972778D01*
X113417Y976164D01*
X123573D01*
X-401190Y939258D02*
X-387648Y925716D01*
X-401190D02*
X-387648Y939258D01*
X-401190Y932487D02*
X-387648D01*
X-394419Y925716D02*
Y939258D01*
X-380877Y922330D02*
Y925716D01*
X-377491D01*
Y922330D01*
X-380877D01*
X-350406Y939258D02*
X-353792Y942644D01*
X-360563D01*
X-363949Y939258D01*
Y925716D01*
X-360563Y922330D01*
X-353792D01*
X-350406Y925716D01*
Y932487D01*
X-357178D01*
X-343635Y922330D02*
Y942644D01*
X-336864Y935872D01*
X-330093Y942644D01*
Y922330D01*
X-313165D02*
Y942644D01*
X-323322Y932487D01*
X-309780D01*
X-282695D02*
X-269153D01*
X-242068Y942644D02*
Y922330D01*
X-228526D01*
X-221755D02*
X-214984D01*
X-218369D01*
Y935872D01*
X-221755D01*
X-191285D02*
X-201441D01*
X-204827Y932487D01*
Y925716D01*
X-201441Y922330D01*
X-191285D01*
X-174357D02*
X-181128D01*
X-184513Y925716D01*
Y932487D01*
X-181128Y935872D01*
X-174357D01*
X-170971Y932487D01*
Y929101D01*
X-184513D01*
X-164200Y922330D02*
Y935872D01*
X-154043D01*
X-150658Y932487D01*
Y922330D01*
X-130344Y935872D02*
X-140501D01*
X-143887Y932487D01*
Y925716D01*
X-140501Y922330D01*
X-130344D01*
X-113417D02*
X-120188D01*
X-123573Y925716D01*
Y932487D01*
X-120188Y935872D01*
X-113417D01*
X-110031Y932487D01*
Y929101D01*
X-123573D01*
X-401190Y905738D02*
X-387648Y892196D01*
X-401190D02*
X-387648Y905738D01*
X-401190Y898967D02*
X-387648D01*
X-394419Y892196D02*
Y905738D01*
X-380877Y888810D02*
Y892196D01*
X-377491D01*
Y888810D01*
X-380877D01*
X-350406Y905738D02*
X-353792Y909123D01*
X-360563D01*
X-363949Y905738D01*
Y892196D01*
X-360563Y888810D01*
X-353792D01*
X-350406Y892196D01*
Y898967D01*
X-357178D01*
X-343635Y888810D02*
Y909123D01*
X-336864Y902352D01*
X-330093Y909123D01*
Y888810D01*
X-309780D02*
X-323322D01*
X-309780Y902352D01*
Y905738D01*
X-313165Y909123D01*
X-319936D01*
X-323322Y905738D01*
X-303008D02*
X-299623Y909123D01*
X-292852D01*
X-289466Y905738D01*
Y902352D01*
X-292852Y898967D01*
X-289466Y895581D01*
Y892196D01*
X-292852Y888810D01*
X-299623D01*
X-303008Y892196D01*
Y895581D01*
X-299623Y898967D01*
X-303008Y902352D01*
Y905738D01*
X-299623Y898967D02*
X-292852D01*
X-262382D02*
X-248839D01*
X-221755Y909123D02*
Y888810D01*
X-211598D01*
X-208213Y892196D01*
Y895581D01*
X-211598Y898967D01*
X-221755D01*
X-211598D01*
X-208213Y902352D01*
Y905738D01*
X-211598Y909123D01*
X-221755D01*
X-198056Y888810D02*
X-191285D01*
X-187899Y892196D01*
Y898967D01*
X-191285Y902352D01*
X-198056D01*
X-201441Y898967D01*
Y892196D01*
X-198056Y888810D01*
X-177742Y902352D02*
X-170971D01*
X-167586Y898967D01*
Y888810D01*
X-177742D01*
X-181128Y892196D01*
X-177742Y895581D01*
X-167586D01*
X-160814Y902352D02*
Y888810D01*
Y895581D01*
X-157429Y898967D01*
X-154043Y902352D01*
X-150658D01*
X-126959Y909123D02*
Y888810D01*
X-137115D01*
X-140501Y892196D01*
Y898967D01*
X-137115Y902352D01*
X-126959D01*
X-89718Y909123D02*
X-96489D01*
X-99874Y905738D01*
Y892196D01*
X-96489Y888810D01*
X-89718D01*
X-86332Y892196D01*
Y905738D01*
X-89718Y909123D01*
X-79561Y902352D02*
Y892196D01*
X-76175Y888810D01*
X-66019D01*
Y902352D01*
X-55862Y905738D02*
Y902352D01*
X-59247D01*
X-52476D01*
X-55862D01*
Y892196D01*
X-52476Y888810D01*
X-42319D02*
X-35548D01*
X-38934D01*
Y909123D01*
X-42319D01*
X-25392Y888810D02*
X-18621D01*
X-22006D01*
Y902352D01*
X-25392D01*
X-8464Y888810D02*
Y902352D01*
X1693D01*
X5078Y898967D01*
Y888810D01*
X22006D02*
X15235D01*
X11850Y892196D01*
Y898967D01*
X15235Y902352D01*
X22006D01*
X25392Y898967D01*
Y895581D01*
X11850D01*
M02*
