M48
;Layer_Color=9474304
;FILE_FORMAT=4:4
METRIC,LZ
;TYPE=PLATED
T1F00S00C0.3000
T3F00S00C1.0000
T4F00S00C1.1000
T5F00S00C1.5000
T6F00S00C3.2000
;TYPE=NON_PLATED
T7F00S00C3.2000
%
T01
X0037275Y000655
X00418494Y00064293
X004265Y00064
X00435
X00459Y00044
X0047825Y000405
X00489Y00083
X00499Y00096
X0046875Y001095
X00413Y00107
X0041075Y00085375
X00450738Y00151748
X0044175Y0021925
X0047725Y002545
X0039225
X0032875Y00174
X00606Y00183
X0062975Y001835
Y0017575
X00669Y0016
X0068Y0015875
X00682Y00126
X00615571Y00072602
X006155Y0006275
X0065525Y002815
X00316Y00259
X00309Y0024
X0026775Y00243
X00214Y00251
X002055Y002115
X00193Y00211
X00173Y00205
X001655Y002085
X001585Y0020175
X00170854Y00195625
X00137Y00185
Y00178
Y0017
X00124Y00172
X0012475Y00193
X00116Y00215
X001095Y0025
X00133023Y002455
X00133Y002705
X0015Y0027075
X001535Y00237
X0018375Y00288
X0010025Y002735
X00084Y00295
X0007925Y0025
X0007875Y0022675
X00059Y00229
Y00221505
X00013Y0028575
X00101Y00153
X00109
X00117
X00109Y00145
X00088Y00124
Y00108
X00155Y0013375
X00162Y00141
X0019225Y001435
X0021Y001345
X00233Y00135
X00243Y0018
X0024Y002035
X00304Y0017375
X00305Y00086
X00319991Y00077437
X0031971Y00070758
X0027Y0034575
X00217Y003335
X002185Y0040775
X002055Y004075
X0018975Y0040775
X0016775Y0041375
X001245Y004105
X00117Y00414
Y00405
X00098Y0037
X0008975Y00369
X000895Y003235
X00065Y00449
X000535Y0052225
X00213Y00475
X0022525Y0044025
X0029725Y0041925
X003195Y004255
X00282Y00486
X0032Y00416
X0040431Y00399333
X00404Y00391
X00413
Y00399
X0041269Y00477667
Y00485667
X00404Y00486
X0040369Y00477667
X00565Y0043
X00577
X0058Y00419
Y00401
X00580063Y00392359
X00580315Y00384349
X00554Y00416
X0062325Y00454
T03
X006085Y002625
Y003075
X006735
Y002625
X002415Y000795
X001965
Y000145
X002415
T04
X003302Y000254
X003556
X00381
X004064
X004318
X004572
X00508
X005334
X005588
X005842
X006096
X00635
X0062065Y0012573
X0059525
X0056985
X0054445
X0051905
X0049365
X0046825
X0044285
X0041745
X0039205
X0036665
X0034125
Y0020193
X0036665
X0039205
X0041745
X0044285
X0046825
X0049365
X0051905
X0054445
X0056985
X0059525
X0062065
X0031585
X0029045
Y0012573
X0031585
X003048Y000254
X002794
X00167Y00088
X001416
X001162
X0005Y003186
X000246
Y00344
X0005
X000508Y0038608
Y0041148
X000762
Y0038608
X000254
Y0041148
Y0047244
X000508
X000762
Y0049784
X000508
X000254
X00146Y00446
Y004206
Y003952
Y003698
X0018796Y00508
X0021336
X0023876
X0026416
X0028956
X0031496
X0034036
X0036576
X0039116
X0041656
X004572
X004826
X00508
X005334
X005588
X005842
X006096
X00635
X00662Y00469
Y004436
Y004182
T05
X0002175Y0002375
Y00138
T06
X006604Y000762
X001397Y000254
X006604Y003556
T07
X001524Y00508
M30
